<svg width="1452" height="498" viewBox="0 0 1452 498" fill="none" xmlns="http://www.w3.org/2000/svg">
<g opacity="0.3">
<path d="M555.295 498C550.112 498 545.067 497.593 540.218 496.782C530.05 495.078 520.656 491.581 512.296 486.386C503.311 480.804 495.43 473.199 488.871 463.781C475.689 444.852 469.094 422.183 462.716 400.26C461.462 395.955 460.167 391.504 458.852 387.185C449.876 357.748 438.499 331.962 424.072 308.356C395.291 261.264 354.816 221.075 307.021 192.133C251.746 158.664 192.316 141.991 139.677 145.188C108.739 147.068 67.8615 164.943 49.5922 195.47C38.7501 213.588 37.8758 233.693 47.0656 253.61L46.8832 253.695C42.0647 243.249 39.9652 232.777 40.645 222.57C41.2686 213.207 44.2203 204.054 49.4197 195.366C57.6891 181.547 71.3264 169.3 88.8578 159.947C105.058 151.305 123.1 145.992 139.665 144.986C167.213 143.314 196.511 147.024 226.745 156.014C254.152 164.165 281.196 176.258 307.125 191.959C354.949 220.917 395.448 261.128 424.244 308.247C438.679 331.87 450.063 357.67 459.044 387.123C460.362 391.442 461.657 395.895 462.908 400.2C469.281 422.107 475.872 444.76 489.036 463.661C501.767 481.943 518.999 493.018 540.252 496.577C569.685 501.507 605.425 491.196 635.856 468.992C679.709 436.996 710.144 390.423 739.578 345.386C744.738 337.492 750.072 329.329 755.353 321.447C769.065 300.978 787.635 274.455 809.704 250.827C832.262 226.675 855.186 208.93 879.785 196.576C894.842 189.015 910.8 183.92 927.214 181.435C942.375 179.138 958.423 178.996 974.912 181.008C1003.19 184.461 1033.67 194.215 1068.07 210.826C1135.8 243.536 1203.47 283.238 1269.18 328.832C1331.63 372.168 1392.89 421.205 1451.24 474.578L1451.1 474.726C1330.14 364.087 1201.24 275.359 1067.98 211.006C992.688 174.649 932.917 170.12 879.876 196.755C825.914 223.851 788.218 272.75 755.52 321.557C750.24 329.437 744.906 337.6 739.747 345.494C710.305 390.548 679.86 437.134 635.976 469.152C621.795 479.5 605.842 487.57 589.843 492.491C581.391 495.09 572.989 496.79 564.868 497.543C561.632 497.85 558.438 498 555.295 498Z" fill="#A1A1A1"/>
<path d="M560.363 486.775C547.145 486.775 534.901 484.26 523.958 479.296C511.757 473.76 501.228 465.182 492.661 453.803C491.904 452.795 491.152 451.752 490.426 450.702C477.384 431.855 470.496 409.481 463.837 387.842C462.489 383.469 461.098 378.946 459.686 374.557C451.278 348.423 441.154 325.389 428.732 304.143C427.202 301.528 425.618 298.906 424.02 296.353C394.816 249.666 354.013 209.986 306.02 181.601C250.346 148.703 190.748 132.72 138.204 136.598C107.49 138.889 66.8009 157.057 48.4534 187.349C37.467 205.489 36.2237 225.635 44.8541 245.61L44.6696 245.69C40.1459 235.22 38.2871 224.729 39.1473 214.51C39.9374 205.124 43.0093 195.951 48.281 187.245C56.6346 173.451 70.2318 161.189 87.5988 151.788C103.65 143.098 121.615 137.632 138.186 136.398C165.699 134.368 195.029 137.723 225.359 146.369C252.833 154.201 280.005 165.997 306.121 181.429C354.141 209.83 394.967 249.534 424.188 296.247C425.786 298.802 427.372 301.425 428.902 304.043C441.333 325.303 451.463 348.348 459.875 374.497C461.288 378.886 462.68 383.409 464.027 387.784C470.685 409.409 477.566 431.767 490.59 450.588C491.314 451.634 492.066 452.676 492.822 453.682C510.524 477.205 534.847 486.775 560.425 486.775C560.565 486.775 560.704 486.775 560.844 486.775C560.684 486.773 560.523 486.775 560.363 486.775ZM565.819 486.635C589.598 485.414 614.136 476.281 635.186 462.695C680.594 433.268 713.229 387.818 744.79 343.865C746.09 342.053 747.389 340.246 748.688 338.438C751.542 334.47 754.924 329.772 758.377 325.036C773.867 303.798 792.614 279.087 814.204 256.845C837.175 233.178 860.125 215.616 884.362 203.152C899.254 195.502 914.993 190.113 931.141 187.135C946.101 184.375 961.912 183.596 978.128 184.816C1006.14 186.926 1036.26 194.927 1070.22 209.277C1103.32 223.246 1130.53 236.395 1155.85 250.658C1191.72 270.884 1225.88 294.188 1254.58 314.316C1321.28 361.245 1386.73 414.533 1449.11 472.702L1448.97 472.848C1386.6 414.688 1321.16 361.404 1254.46 314.48C1225.77 294.355 1191.61 271.055 1155.75 250.835C1130.44 236.575 1103.24 223.43 1070.14 209.465C996.179 178.204 937.174 176.254 884.454 203.332C829.736 231.467 790.769 280.967 758.54 325.157C755.085 329.892 751.704 334.588 748.851 338.558C747.551 340.364 746.252 342.174 744.953 343.985C713.381 387.952 680.734 433.419 635.295 462.867C624.028 470.138 612.039 475.914 599.658 480.033C588.135 483.863 576.775 486.077 565.819 486.635Z" fill="#A1A1A1"/>
<path d="M565.95 475.807C564.36 475.807 562.78 475.773 561.212 475.702C548.006 475.119 535.784 472.091 524.888 466.698C512.971 460.8 502.646 452.064 494.202 440.73C493.453 439.72 492.705 438.676 491.983 437.626C479.087 418.871 471.913 396.795 464.977 375.449C463.531 371 462.035 366.398 460.519 361.933C451.696 335.887 441.306 313.038 428.749 292.079C427.195 289.487 425.587 286.888 423.965 284.355C394.338 238.075 353.205 198.904 305.017 171.076C248.946 138.749 189.179 123.454 136.727 128.013C107.195 130.62 66.6235 147.752 47.3336 179.201C36.1887 197.371 34.5665 217.57 42.6414 237.616L42.4549 237.69C38.224 227.188 36.6098 216.673 37.6525 206.435C38.611 197.02 41.8113 187.823 47.1631 179.097C55.605 165.334 69.1581 153.069 86.3586 143.623C102.26 134.891 120.142 129.278 136.709 127.815C164.19 125.428 193.552 128.426 223.977 136.727C251.518 144.243 278.817 155.74 305.117 170.904C353.334 198.749 394.488 237.943 424.133 284.248C425.755 286.784 427.365 289.383 428.919 291.978C441.482 312.95 451.879 335.813 460.706 361.873C462.222 366.34 463.718 370.942 465.163 375.391C472.097 396.725 479.266 418.785 492.145 437.517C492.867 438.568 493.611 439.61 494.361 440.616C528.672 486.667 589.477 481.723 634.516 456.397C681.818 429.563 716.971 384.965 750.967 341.835L751.316 341.393C754.609 337.212 758.013 332.891 761.402 328.624C797.161 283.611 836.465 237.351 888.94 209.724C903.673 201.984 919.195 196.3 935.072 192.831C949.84 189.605 965.41 188.188 981.35 188.62C1009.14 189.374 1038.91 195.623 1072.37 207.724C1107.53 220.396 1133.99 232.044 1158.17 245.494C1192.61 264.696 1225.98 288.96 1255.41 310.368C1320.95 358.29 1385.41 412.273 1446.98 470.816L1446.84 470.961C1385.27 412.424 1320.83 358.446 1255.29 310.529C1225.86 289.124 1192.5 264.864 1158.07 245.669C1133.91 232.223 1107.45 220.579 1072.3 207.91C999.777 181.68 941.543 182.311 889.033 209.899C836.591 237.508 797.303 283.747 761.559 328.744C758.17 333.011 754.765 337.334 751.473 341.513L751.124 341.956C734.182 363.448 716.664 385.672 697.747 405.523C676.488 427.831 655.837 444.528 634.612 456.567C612.406 469.053 588.218 475.807 565.95 475.807Z" fill="#A1A1A1"/>
<path d="M1444.72 469.071C1383.95 410.157 1320.5 355.486 1256.13 306.576C1253.41 304.52 1250.68 302.454 1247.94 300.382C1220.05 279.294 1191.23 257.489 1160.4 240.502C1130.49 224.068 1100.18 214.019 1074.47 206.357C1003.52 185.077 946.05 188.29 893.62 216.464C839.799 245.472 798.095 293.634 764.586 332.334C762.575 334.656 760.567 336.983 758.556 339.312C757.072 341.032 755.587 342.751 754.101 344.469C735.021 366.526 717.666 386.247 698.491 404.242C676.584 424.799 655.469 439.854 633.936 450.27C613.755 460.032 592.198 465.197 572.146 465.199C568.492 465.199 564.893 465.028 561.356 464.681C548.442 463.417 536.487 459.863 525.824 454.12C514.188 447.853 504.067 438.95 495.74 427.659C494.996 426.647 494.254 425.601 493.536 424.548C480.793 405.892 473.34 384.127 466.133 363.079C464.581 358.546 462.975 353.856 461.351 349.305C452.107 323.341 441.447 300.674 428.766 280.007C427.188 277.436 425.554 274.861 423.91 272.349C393.858 226.477 352.399 187.815 304.015 160.542C247.547 128.786 187.614 114.182 135.255 119.417C99.4599 123.067 62.8571 144.282 46.2421 171.008C34.9228 189.215 32.9156 209.479 40.4331 229.609L40.2446 229.679C36.3084 219.139 34.9368 208.592 36.168 198.328C37.3009 188.879 40.6336 179.652 46.0717 170.902C54.6017 157.179 68.1107 144.914 85.1388 135.434C100.888 126.666 118.678 120.906 135.234 119.219C162.684 116.473 192.076 119.116 222.595 127.073C250.202 134.272 277.631 145.473 304.116 160.366C352.529 187.654 394.01 226.338 424.08 272.239C425.727 274.752 427.361 277.33 428.939 279.901C441.628 300.58 452.291 323.259 461.541 349.235C463.165 353.788 464.772 358.476 466.324 363.011C473.526 384.047 480.976 405.798 493.703 424.432C494.42 425.482 495.16 426.527 495.902 427.537C531.721 476.105 592.601 470.039 633.849 450.087C683.063 426.282 720.722 382.748 753.95 344.336C755.436 342.617 756.92 340.897 758.406 339.18C760.415 336.851 762.424 334.524 764.435 332.201C783.563 310.112 802.452 288.645 823.218 268.864C847.097 246.115 870.097 228.918 893.528 216.287C908.105 208.453 923.407 202.475 939.009 198.521C953.591 194.823 968.923 192.771 984.579 192.418C1012.19 191.797 1041.62 196.294 1074.53 206.165C1100.25 213.83 1130.57 223.883 1160.5 240.327C1191.34 257.32 1220.17 279.132 1248.06 300.223C1250.8 302.295 1253.53 304.362 1256.26 306.418C1320.63 355.331 1384.09 410.008 1444.86 468.928L1444.72 469.071Z" fill="#A1A1A1"/>
<path d="M1442.59 467.183C1381.48 406.766 1319.03 351.399 1256.97 302.624C1253.26 299.706 1249.46 296.698 1245.79 293.79C1219.47 272.963 1192.27 251.426 1162.72 235.335C1133.22 219.324 1102.65 210.914 1076.64 204.802C1007.41 188.374 950.709 194.166 898.203 223.029C848.122 250.661 808.886 292.211 770.942 332.392L766.775 336.803C763.484 340.288 760.082 343.89 756.727 347.423C718.745 387.374 680.722 424.817 633.257 443.969C621.739 448.616 609.913 451.837 598.102 453.546C585.419 455.38 573.1 455.406 561.483 453.623C548.867 451.685 537.183 447.614 526.756 441.524C515.408 434.896 505.491 425.831 497.281 414.584C496.541 413.566 495.805 412.518 495.094 411.467C482.507 392.921 474.785 371.477 467.318 350.738C465.651 346.11 463.927 341.324 462.186 336.677C452.513 310.793 441.589 288.309 428.788 267.938C427.188 265.393 425.53 262.838 423.859 260.347C393.384 214.881 351.598 176.728 303.016 150.01C246.149 118.83 186.047 104.913 133.778 110.827C98.3103 114.926 61.874 136.29 45.1748 162.783C33.667 181.037 31.2628 201.379 38.2208 221.61L38.0303 221.677C34.3889 211.091 33.264 200.503 34.6856 190.21C35.997 180.72 39.468 171.457 45.0023 162.679C53.6247 149.002 67.0855 136.749 83.9331 127.241C99.5255 118.441 117.219 112.543 133.754 110.631C161.171 107.528 190.593 109.815 221.209 117.427C248.884 124.309 276.44 135.212 303.111 149.836C351.72 176.567 393.531 214.744 424.024 260.236C425.694 262.73 427.354 265.287 428.954 267.832C441.764 288.212 452.694 310.709 462.371 336.606C464.111 341.254 465.836 346.042 467.502 350.67C474.965 371.396 482.683 392.831 495.256 411.355C495.966 412.401 496.702 413.447 497.44 414.466C532.396 462.359 590.479 461.014 633.179 443.784C680.606 424.649 718.612 387.219 756.579 347.287C759.933 343.753 763.336 340.152 766.627 336.667L770.793 332.255C789.42 312.533 808.677 292.136 829.594 273.163C853.283 251.675 875.693 235.219 898.103 222.853C912.532 214.921 927.617 208.648 942.937 204.21C957.34 200.038 972.433 197.348 987.797 196.216C1015.29 194.19 1044.36 196.935 1076.69 204.605C1102.71 210.722 1133.29 219.133 1162.81 235.159C1192.38 251.256 1219.59 272.798 1245.91 293.632C1249.58 296.54 1253.38 299.546 1257.09 302.466C1319.16 351.245 1381.61 406.615 1442.73 467.038L1442.59 467.183Z" fill="#A1A1A1"/>
<path d="M1440.47 465.295C1379.88 404.206 1318.42 348.146 1257.81 298.674C1253.25 294.956 1248.58 291.09 1244.06 287.352C1219.17 266.75 1193.44 245.446 1165.04 230.172C1135.68 214.436 1104.97 207.732 1078.81 203.25C1011.5 191.544 955.564 199.918 902.785 229.599C856.726 255.611 818.91 292.475 782.337 328.125C778.489 331.877 774.509 335.755 770.631 339.512C766.077 343.925 762.598 347.278 759.352 350.381C741.965 366.987 721.263 386.109 699.539 402.014C676.517 418.867 654.615 430.531 632.578 437.673C620.99 441.429 609.213 443.798 597.573 444.712C585.075 445.694 572.973 444.973 561.608 442.566C549.294 439.958 537.883 435.371 527.686 428.931C516.63 421.949 506.918 412.722 498.821 401.511C498.092 400.495 497.36 399.444 496.65 398.39C484.23 379.968 476.249 358.854 468.529 338.436C466.738 333.7 464.888 328.804 463.021 324.048C452.913 298.237 441.722 275.937 428.806 255.869C427.182 253.346 425.5 250.815 423.805 248.344C392.907 203.284 350.792 165.641 302.014 139.478C244.752 108.871 184.482 95.6458 132.305 102.235C102.616 106.067 63.8393 123.72 44.1363 154.516C32.422 172.825 29.6107 193.26 36.0092 213.608L35.8187 213.668C32.4721 203.028 31.5978 192.394 33.218 182.061C34.7139 172.523 38.3292 163.22 43.9678 154.407C52.6824 140.787 66.0931 128.554 82.7542 119.026C98.1902 110.2 115.778 104.167 132.28 102.037C159.665 98.5778 189.12 100.508 219.827 107.775C247.569 114.34 275.253 124.946 302.108 139.302C350.914 165.478 393.054 203.144 423.97 248.229C425.664 250.701 427.348 253.236 428.973 255.761C441.894 275.839 453.091 298.151 463.205 323.974C465.074 328.732 466.925 333.628 468.715 338.364C476.429 358.772 484.408 379.874 496.814 398.276C497.524 399.328 498.254 400.376 498.984 401.39C528.065 441.662 577.984 455.154 632.516 437.479C681.899 421.474 722.184 385.602 759.214 350.233C762.46 347.13 765.937 343.777 770.491 339.364C774.369 335.606 778.349 331.728 782.197 327.976C800.202 310.426 818.818 292.279 838.675 275.285C861.129 256.068 882.07 241.065 902.689 229.421C916.98 221.384 931.844 214.816 946.873 209.902C961.108 205.247 975.963 201.922 991.024 200.016C1018.45 196.549 1047.17 197.541 1078.84 203.048C1105.02 207.533 1135.75 214.239 1165.14 229.99C1193.55 245.273 1219.29 266.583 1244.19 287.192C1248.71 290.93 1253.38 294.796 1257.93 298.514C1318.55 347.992 1380.01 404.056 1440.61 465.148L1440.47 465.295Z" fill="#A1A1A1"/>
<path d="M1438.34 463.407C1378.28 401.643 1317.82 344.888 1258.64 294.722C1253.61 290.455 1248.44 285.976 1243.43 281.645C1219.61 261.014 1194.98 239.682 1167.37 225.006C1137.98 209.458 1107.2 204.497 1080.98 201.696C1016.72 194.647 959.927 205.922 907.367 236.165C865.516 260.355 829.642 292.716 794.948 324.013C787.94 330.334 780.695 336.871 773.651 343.102C769.341 346.916 765.524 350.265 761.974 353.339C745.47 367.621 723.515 385.933 700.054 400.898C676.481 415.933 654.185 425.903 631.894 431.377C607.581 437.347 583.316 437.391 561.724 431.507C549.719 428.234 538.578 423.132 528.61 416.34C517.848 409.006 508.344 399.619 500.357 388.442C499.633 387.424 498.907 386.372 498.201 385.317C485.958 367.036 477.728 346.269 469.772 326.187C467.847 321.329 465.858 316.307 463.851 311.427C453.299 285.683 441.842 263.564 428.822 243.807C427.174 241.305 425.467 238.796 423.749 236.347C392.428 191.695 349.986 154.558 301.011 128.955C243.354 98.9229 182.915 86.3869 130.828 93.652C95.529 98.6824 60.2837 119.806 43.1273 146.213C31.1884 164.589 27.9621 185.129 33.7972 205.614L33.6047 205.668C30.5548 194.964 29.9332 184.273 31.7559 173.896C33.4402 164.304 37.21 154.953 42.9589 146.103C51.7657 132.546 65.1243 120.341 81.5909 110.805C96.8644 101.961 114.342 95.7964 130.8 93.4516C158.153 89.6357 187.639 91.2109 218.441 98.1312C246.251 104.38 274.063 114.69 301.103 128.775C350.106 154.394 392.572 191.551 423.913 236.231C425.632 238.68 427.338 241.191 428.988 243.694C442.014 263.463 453.478 285.593 464.035 311.348C466.042 316.229 468.031 321.253 469.956 326.111C477.909 346.182 486.134 366.939 498.366 385.203C499.072 386.257 499.796 387.306 500.519 388.324C529.101 428.334 578.195 444.356 631.845 431.182C680.756 419.172 723.23 386.598 761.842 353.189C765.389 350.115 769.209 346.768 773.516 342.954C780.558 336.723 787.805 330.187 794.811 323.866C829.513 292.564 865.394 260.195 907.265 235.995C921.429 227.844 936.077 220.983 950.801 215.6C964.884 210.454 979.499 206.491 994.242 203.824C1021.66 198.864 1050.04 198.104 1080.99 201.499C1107.24 204.303 1138.04 209.265 1167.46 224.831C1195.1 239.518 1219.74 260.858 1243.57 281.497C1248.57 285.828 1253.74 290.305 1258.77 294.572C1317.95 344.742 1378.42 401.501 1438.49 463.269L1438.34 463.407Z" fill="#A1A1A1"/>
<path d="M1436.22 461.519C1376.69 399.074 1317.22 341.627 1259.48 290.771C1254.17 286.098 1248.71 281.15 1243.43 276.364C1220.48 255.559 1196.75 234.044 1169.69 219.841C1140.18 204.425 1109.38 201.232 1083.14 200.142C1021.31 197.384 965.311 211.315 911.949 242.732C874.526 264.87 841.166 292.888 808.902 319.982C797.809 329.299 787.33 338.099 776.672 346.691C772.337 350.188 768.389 353.331 764.599 356.295C740.146 375.405 719.801 389.221 700.572 399.775C676.447 413.016 653.76 421.294 631.214 425.077C622.467 426.544 613.753 427.276 605.197 427.276C590.029 427.276 575.353 424.983 561.842 420.442C537.391 412.223 517.223 397.057 501.897 375.367C501.175 374.338 500.455 373.286 499.758 372.236C487.7 354.113 479.24 333.714 471.059 313.986C468.986 308.987 466.844 303.821 464.685 298.796C453.682 273.113 441.956 251.178 428.842 231.735C427.17 229.256 425.439 226.769 423.697 224.342C391.952 180.096 349.182 143.469 300.01 118.421C241.958 88.9659 181.353 77.1174 129.357 85.0578C93.9108 90.5833 59.6822 111.306 42.1588 137.853C29.9773 156.305 26.3238 176.968 31.5895 197.609L31.395 197.659C28.6459 186.881 28.2809 176.126 30.3122 165.695C32.193 156.039 36.1212 146.635 41.9924 137.743C50.8915 124.261 64.1919 112.096 80.458 102.56C95.5671 93.7017 112.922 87.4167 129.327 84.8594C156.647 80.6868 186.166 81.9053 217.06 88.4809C244.938 94.4152 272.876 104.428 300.103 118.24C349.302 143.304 392.097 179.952 423.861 224.224C425.604 226.653 427.334 229.14 429.008 231.621C442.13 251.073 453.863 273.021 464.869 298.714C467.029 303.738 469.172 308.907 471.244 313.905C479.421 333.624 487.877 354.014 499.924 372.122C500.622 373.17 501.34 374.222 502.062 375.248C530.68 415.756 577.742 433.846 631.18 424.877C682.05 416.339 727.106 385.337 764.475 356.135C768.263 353.171 772.211 350.03 776.546 346.533C787.202 337.941 797.681 329.143 808.774 319.826C841.041 292.726 874.41 264.704 911.846 242.558C925.905 234.281 940.334 227.126 954.735 221.29C968.684 215.638 983.061 211.039 997.466 207.621C1024.94 201.106 1052.97 198.593 1083.15 199.94C1109.41 201.03 1140.23 204.226 1169.78 219.66C1196.86 233.874 1220.61 255.398 1243.57 276.211C1248.84 280.997 1254.3 285.946 1259.61 290.617C1317.36 341.476 1376.82 398.929 1436.36 461.379L1436.22 461.519Z" fill="#A1A1A1"/>
<path d="M1434.09 459.631C1374.27 395.611 1317.42 339.084 1260.31 286.82C1254.86 281.833 1249.5 276.741 1243.82 271.35C1221.61 250.274 1198.66 228.483 1172.01 214.676C1142.13 199.266 1109.98 197.984 1085.31 198.589C1026.29 199.848 971.084 216.436 916.531 249.302C883.8 269.117 853.58 292.912 824.354 315.926C808.994 328.021 794.487 339.442 779.693 350.283C775.301 353.504 771.221 356.438 767.222 359.253C742.436 376.682 721.422 389.199 701.085 398.651C676.401 410.123 653.323 416.706 630.532 418.779C618.822 419.843 607.192 419.642 595.965 418.183C584.078 416.638 572.637 413.674 561.959 409.375C538.292 399.845 518.603 384.007 503.437 362.296C502.722 361.266 502.008 360.211 501.314 359.161C489.459 341.224 480.787 321.215 472.399 301.865C470.161 296.702 467.847 291.363 465.519 286.172C454.056 260.545 442.065 238.792 428.86 219.671C427.162 217.214 425.407 214.748 423.645 212.344C391.478 168.505 348.38 132.386 299.012 107.893C253.446 85.3808 206.457 73.6345 163.367 73.6345C151.185 73.6345 139.325 74.5725 127.885 76.4704C92.8665 82.3946 58.8524 103.192 41.2268 129.454C28.7866 147.992 24.69 168.795 29.3801 189.612L29.1836 189.657C26.7353 178.794 26.633 167.966 28.8788 157.474C30.9602 147.748 35.0588 138.282 41.0583 129.342C50.0496 115.944 63.2879 103.829 79.3455 94.3033C94.5027 85.3107 111.276 79.0758 127.849 76.274C155.138 71.7446 184.688 72.6084 215.676 78.8373C243.621 84.4529 271.689 94.167 299.1 107.711C348.496 132.218 391.62 168.357 423.807 212.221C425.572 214.626 427.328 217.093 429.027 219.552C442.237 238.684 454.234 260.447 465.704 286.086C468.032 291.277 470.348 296.616 472.586 301.781C480.969 321.123 489.638 341.124 501.482 359.047C502.176 360.095 502.89 361.149 503.604 362.178C531.963 402.776 578.219 423.33 630.516 418.576C683.435 413.764 731.311 384.255 767.11 359.085C771.108 356.269 775.187 353.335 779.578 350.117C794.371 339.28 808.876 327.857 824.234 315.763C853.464 292.748 883.688 268.947 916.431 249.126C944.517 232.205 972.079 219.873 1000.69 211.424C1028.29 203.275 1055.97 199.01 1085.31 198.385C1102.05 197.974 1115.71 198.687 1128.29 200.627C1144.54 203.132 1158.87 207.668 1172.11 214.494C1198.78 228.313 1221.75 250.116 1243.96 271.201C1249.64 276.592 1255.01 281.683 1260.45 286.669C1317.56 338.935 1374.41 395.466 1434.24 459.491L1434.09 459.631Z" fill="#A1A1A1"/>
<path d="M1431.96 457.743C1372.69 393.021 1316.81 335.821 1261.15 282.867C1255.64 277.628 1250.21 272.231 1244.46 266.517C1222.92 245.109 1200.65 222.969 1174.33 209.509C1144.2 194.171 1112.09 194.785 1087.48 197.031C1031.78 201.94 977.364 221.185 921.113 255.865C893.397 273.035 867.009 292.683 841.489 311.687C821.314 326.708 802.261 340.897 782.714 353.866C778.297 356.8 773.966 359.606 769.845 362.203C745.011 377.844 722.687 389.393 701.598 397.514C676.347 407.238 652.878 412.132 629.851 412.473C618.134 412.646 606.55 411.587 595.428 409.325C583.767 406.952 572.546 403.242 562.075 398.296C539.22 387.5 520.008 370.987 504.975 349.216C504.27 348.188 503.56 347.132 502.868 346.076C491.236 328.357 482.375 308.771 473.805 289.829C471.38 284.47 468.872 278.927 466.351 273.538C454.419 247.959 442.161 226.39 428.878 207.595C427.156 205.16 425.377 202.717 423.591 200.334C391 156.902 347.574 121.293 298.01 97.3551C239.169 69.0566 178.226 58.5869 126.409 67.8741C91.8439 74.1772 58.0565 95.0283 40.3326 120.992C27.6116 139.629 23.0599 160.588 27.1665 181.607L26.97 181.646C24.8284 170.689 24.9929 159.776 27.4613 149.212C29.7532 139.406 34.0263 129.872 40.1661 120.878C49.2457 107.576 62.4177 95.5213 78.2588 86.0157C93.2415 77.0251 109.879 70.6839 126.373 67.6757C153.632 62.7916 183.212 63.2966 214.293 69.1808C242.305 74.4838 270.5 83.9013 298.096 97.1727C347.69 121.122 391.141 156.754 423.749 200.212C425.538 202.595 427.318 205.04 429.041 207.477C442.331 226.282 454.593 247.861 466.532 273.45C469.054 278.839 471.561 284.382 473.987 289.743C482.553 308.676 491.41 328.255 503.034 345.962C503.726 347.016 504.436 348.072 505.14 349.098C533.798 390.6 578.087 413.038 629.847 412.269C671.845 411.647 716.297 395.682 769.737 362.029C773.856 359.431 778.185 356.628 782.602 353.694C802.143 340.727 821.196 326.541 841.366 311.52C866.89 292.515 893.283 272.862 921.006 255.689C949.368 238.203 976.486 224.967 1003.91 215.221C1031.7 205.349 1059.02 199.33 1087.46 196.825C1112.1 194.574 1144.25 193.963 1174.42 209.325C1200.77 222.801 1223.05 244.951 1244.6 266.369C1250.35 272.083 1255.78 277.478 1261.29 282.715C1316.95 335.67 1372.83 392.875 1432.11 457.601L1431.96 457.743Z" fill="#A1A1A1"/>
<path d="M1429.84 455.855C1371.11 390.43 1316.21 332.552 1261.99 278.917C1256.48 273.472 1251.04 267.814 1245.29 261.823C1224.36 240.032 1202.72 217.5 1176.66 204.345C1146.25 189.063 1114.18 191.578 1089.65 195.476C1037.25 203.643 985.15 224.919 925.697 262.433C903.399 276.566 881.608 292.07 860.536 307.063C834.942 325.273 810.767 342.474 785.736 357.455C781.227 360.157 776.763 362.75 772.47 365.159C747.19 379.337 724.177 389.55 702.114 396.38C689.756 400.206 677.556 402.978 665.854 404.619C653.372 406.369 641.03 406.892 629.171 406.174C605.111 404.717 582.576 398.34 562.195 387.221C540.184 375.212 521.452 358.029 506.519 336.143C505.817 335.107 505.114 334.049 504.426 332.999C493.042 315.541 484.023 296.419 475.302 277.929C472.662 272.331 469.933 266.543 467.187 260.912C454.773 235.375 442.249 213.989 428.898 195.528C427.152 193.113 425.347 190.692 423.538 188.333C390.525 145.306 346.772 110.206 297.011 86.8274C237.778 59.108 176.667 49.3278 124.937 59.2864C69.548 70.1148 15.5743 116.902 24.9586 173.609L24.7601 173.641C22.412 159.456 23.7876 145.481 28.8467 132.101C33.4666 119.882 41.0482 108.382 51.381 97.9244C60.9879 88.2002 72.5137 79.8049 85.6357 72.9707C98.116 66.4713 111.693 61.6693 124.897 59.088C152.124 53.8472 181.736 53.9975 212.911 59.5369C240.992 64.5252 269.315 73.6461 297.095 86.647C346.884 110.041 390.663 145.162 423.697 188.213C425.508 190.574 427.312 192.995 429.061 195.412C442.417 213.88 454.948 235.279 467.368 260.825C470.113 266.457 472.842 272.245 475.483 277.845C484.202 296.329 493.217 315.442 504.594 332.891C505.28 333.941 505.982 334.999 506.684 336.033C535.384 378.092 578.889 402.929 629.183 405.976C671.761 408.551 718.598 395.145 772.372 364.987C776.663 362.578 781.124 359.987 785.634 357.285C810.659 342.308 834.829 325.108 860.42 306.901C881.494 291.906 903.286 276.4 925.588 262.264C985.066 224.735 1037.19 203.451 1089.61 195.278C1106.1 192.658 1119.75 191.821 1132.57 192.644C1148.97 193.697 1163.41 197.464 1176.75 204.164C1202.84 217.333 1224.49 239.88 1245.43 261.683C1251.19 267.672 1256.62 273.329 1262.12 278.773C1316.35 332.412 1371.26 390.291 1429.98 455.721L1429.84 455.855Z" fill="#A1A1A1"/>
<path d="M1427.71 453.967C1369.55 387.828 1315.61 329.277 1262.82 274.965C1257.36 269.345 1251.96 263.459 1246.25 257.224C1225.88 235.016 1204.83 212.051 1178.98 199.178C1147.91 183.768 1114.35 188.797 1091.81 193.919C1030.65 207.652 975.833 239.578 930.281 269.001C913.908 279.619 897.578 290.866 881.783 301.742C850.099 323.562 820.174 344.17 788.76 361.045C784.14 363.528 779.544 365.907 775.097 368.118C749.324 380.902 725.621 389.777 702.633 395.244C676.574 401.443 651.631 403.002 628.493 399.875C604.724 396.663 582.458 388.678 562.318 376.142C541.193 362.995 522.94 345.14 508.061 323.072C507.368 322.036 506.668 320.976 505.984 319.922C494.883 302.785 485.752 284.188 476.919 266.203C474.025 260.309 471.032 254.216 468.024 248.286C454.94 222.428 442.514 201.832 428.921 183.462C427.15 181.069 425.323 178.672 423.489 176.333C390.048 133.715 345.966 99.1231 296.008 76.2979C236.382 49.1597 175.103 40.0669 123.462 50.6969C67.8739 62.2909 15.003 108.442 22.747 165.611L22.5485 165.637C20.6275 151.453 22.2898 137.492 27.4873 124.143C32.2516 111.912 39.8774 100.4 50.156 89.9301C59.7408 80.1659 71.2065 71.7084 84.2362 64.788C96.6423 58.1984 110.193 53.2582 123.422 50.4985C150.618 44.9009 180.261 44.6965 211.528 49.8892C239.677 54.5629 268.128 63.3871 296.093 76.1155C346.08 98.9527 390.186 133.564 423.643 176.209C425.478 178.549 427.306 180.948 429.079 183.341C442.68 201.719 455.11 222.328 468.2 248.196C471.208 254.126 474.202 260.22 477.095 266.115C485.926 284.094 495.056 302.684 506.149 319.814C506.832 320.868 507.53 321.926 508.224 322.962C537.147 365.859 579.867 393.103 628.517 399.677C672.15 405.573 720.066 395.19 775.007 367.937C779.452 365.729 784.048 363.352 788.664 360.869C820.069 343.998 849.991 323.393 881.669 301.576C897.464 290.7 913.796 279.45 930.17 268.83C960.802 249.047 986.284 234.431 1010.36 222.833C1038.7 209.181 1065.33 199.659 1091.77 193.723C1107.89 190.059 1121.93 188.4 1134.72 188.652C1151.18 188.977 1165.68 192.36 1179.07 198.998C1204.95 211.886 1226.02 234.866 1246.39 257.088C1252.11 263.321 1257.5 269.207 1262.96 274.823C1315.75 329.137 1369.69 387.692 1427.86 453.833L1427.71 453.967Z" fill="#A1A1A1"/>
<path d="M1425.59 452.077C1367.98 385.223 1315.01 325.996 1263.66 271.01C1258.27 265.244 1252.94 259.154 1247.3 252.704C1227.47 230.05 1206.97 206.623 1181.3 194.011C1149.89 178.637 1116.42 185.706 1093.98 192.362C1038.56 208.657 989.133 239.686 934.864 275.566C925.077 282.061 915.178 288.765 905.603 295.25C868.779 320.19 830.705 345.977 791.782 364.632C787.054 366.901 782.322 369.067 777.72 371.071C751.772 382.359 726.683 390.107 703.149 394.101C676.488 398.626 651.142 398.448 627.81 393.574C604.373 388.678 582.378 379.084 562.434 365.059C542.252 350.866 524.474 332.341 509.595 310.001C508.908 308.963 508.214 307.901 507.534 306.846C496.768 290.11 487.578 272.119 478.691 254.721C475.489 248.452 472.179 241.97 468.852 235.663C455.257 209.832 442.572 189.411 428.933 171.398C427.142 169.033 425.289 166.656 423.428 164.336C389.571 122.118 345.164 88.0357 295.006 65.7676C234.989 39.2107 173.543 30.8073 121.986 42.1067C68.1626 54.0314 14.3152 98.5635 20.5333 157.61L20.3348 157.63C18.8409 143.446 20.79 129.502 26.1258 116.182C31.0325 103.937 38.7043 92.4148 48.9268 81.9331C67.7876 62.5971 94.4006 48.0089 121.942 41.9083C149.106 35.956 178.781 35.3948 210.142 40.2408C238.359 44.6019 266.937 53.1275 295.086 65.5833C345.272 87.8634 389.705 121.968 423.585 164.205C425.448 166.528 427.3 168.905 429.093 171.272C442.738 189.295 455.429 209.724 469.028 235.565C472.355 241.874 475.668 248.355 478.87 254.624C487.755 272.018 496.943 290.006 507.703 306.734C508.38 307.788 509.074 308.849 509.762 309.887C539.529 354.583 580.363 383.453 627.848 393.375C671.817 402.562 722.212 394.997 777.635 370.887C782.235 368.883 786.964 366.718 791.69 364.452C830.599 345.803 868.669 320.02 905.484 295.084C915.059 288.599 924.959 281.895 934.748 275.399C958.504 259.693 986.145 241.678 1013.58 226.637C1042.27 210.904 1068.55 199.631 1093.92 192.171C1109.89 187.435 1123.94 184.978 1136.86 184.662C1153.16 184.261 1168.13 187.347 1181.39 193.833C1192.89 199.482 1204.46 207.914 1216.77 219.61C1227.64 229.937 1237.71 241.445 1247.45 252.572C1253.09 259.02 1258.42 265.11 1263.8 270.874C1315.16 325.862 1368.13 385.09 1425.74 451.947L1425.59 452.077Z" fill="#A1A1A1"/>
<path d="M1423.46 450.189C1366.42 382.613 1314.42 322.711 1264.49 267.06C1259.2 261.168 1253.97 254.893 1248.42 248.251C1229.11 225.126 1209.15 201.212 1183.63 188.849C1159.77 177.331 1131.16 177.972 1096.15 190.809C1047.2 208.656 1003.44 238.507 957.114 270.115C951.345 274.051 945.382 278.119 939.447 282.138C937.122 283.715 934.797 285.296 932.472 286.875C888.33 316.875 842.686 347.898 794.804 368.224C789.964 370.28 785.099 372.234 780.345 374.03C753.828 384.036 728.031 390.406 703.672 392.959C676.396 395.817 650.643 393.905 627.134 387.275C604.062 380.768 582.338 369.564 562.565 353.976C543.399 338.867 526.098 319.675 511.142 296.93C510.46 295.89 509.772 294.826 509.096 293.77C498.74 277.558 489.58 260.292 480.719 243.596C477.132 236.834 473.42 229.841 469.692 223.035C455.572 197.222 442.63 176.978 428.959 159.329C427.142 156.985 425.267 154.632 423.383 152.333C389.096 110.524 344.36 76.949 294.006 55.2381C233.599 29.2643 171.984 21.5483 120.512 33.5171C67.6776 45.9047 13.9064 90.8016 18.3238 149.611L18.1233 149.627C17.0586 135.442 19.2923 121.513 24.7665 108.228C29.8176 95.9683 37.5336 84.4325 47.7019 73.9428C66.4825 54.5667 93.0032 39.762 120.466 33.3227C147.601 27.0137 177.305 26.0958 208.759 30.5971C237.044 34.6414 265.752 42.8705 294.086 55.0537C344.468 76.7786 389.232 110.372 423.533 152.203C425.418 154.501 427.297 156.858 429.113 159.203C442.791 176.862 455.74 197.112 469.865 222.935C473.594 229.741 477.304 236.736 480.893 243.498C489.75 260.19 498.91 277.452 509.263 293.657C509.939 294.714 510.624 295.776 511.306 296.816C541.719 343.064 581.789 374.274 627.186 387.077C672 399.715 723.506 395.26 780.273 373.837C785.023 372.042 789.885 370.09 794.724 368.035C842.59 347.717 888.226 316.701 932.358 286.705C934.684 285.124 937.008 283.544 939.332 281.967C945.268 277.949 951.231 273.88 957 269.946C1003.34 238.333 1047.11 208.473 1096.08 190.618C1111.9 184.818 1125.94 181.565 1139.01 180.67C1155.36 179.549 1170.4 182.241 1183.71 188.666C1195.14 194.204 1206.57 202.673 1218.66 214.56C1229.31 225.047 1239.11 236.778 1248.58 248.121C1254.12 254.761 1259.36 261.034 1264.64 266.924C1314.57 322.577 1366.57 382.481 1423.61 450.059L1423.46 450.189Z" fill="#A1A1A1"/>
<path d="M1421.33 448.301C1369.27 385.331 1316.79 323.022 1265.33 263.108C1260.09 257.044 1254.9 250.528 1249.4 243.632C1231.53 221.198 1211.26 195.771 1185.95 183.684C1161.82 172.186 1133.15 174.008 1098.32 189.251C1056.89 207.317 1020.24 233.88 981.426 262.002C969.272 270.808 956.704 279.917 944.027 288.703C921.9 304.073 897.964 320.337 872.873 335.149C846.001 351.014 821.451 363.005 797.82 371.811C792.855 373.661 787.859 375.403 782.964 376.984C755.886 385.728 729.387 390.704 704.204 391.774C676.326 392.957 650.166 389.325 626.449 380.972C582.651 365.356 544.372 332.682 512.676 283.857C512 282.815 511.319 281.749 510.647 280.693C500.815 265.197 491.816 248.849 483.114 233.038C479.017 225.597 474.782 217.901 470.521 210.411C455.863 184.604 442.661 164.538 428.973 147.265C427.131 144.94 425.232 142.609 423.325 140.334C388.621 98.9286 343.556 65.8641 293.005 44.7084C232.208 19.3158 170.426 12.2913 119.039 24.9274C65.8833 38.0726 13.4596 82.3743 16.1125 141.613L15.9119 141.621C15.2763 127.432 17.7988 113.519 23.4074 100.267C28.6048 87.9919 36.3649 76.444 46.4751 65.9463C55.9997 56.0559 67.2889 47.408 80.0279 40.2411C92.396 33.2847 105.504 28.0659 118.989 24.731C146.093 18.0672 175.83 16.7926 207.376 20.9472C235.729 24.6809 264.564 32.6113 293.082 44.522C343.663 65.6898 388.753 98.7742 423.477 140.2C425.384 142.477 427.287 144.809 429.13 147.134C442.823 164.418 456.031 184.492 470.695 210.307C474.956 217.799 479.191 225.494 483.288 232.938C491.991 248.747 500.988 265.092 510.815 280.582C511.485 281.641 512.169 282.705 512.843 283.747C544.515 332.534 582.76 365.181 626.515 380.782C671.586 396.655 725.663 395.276 782.902 376.791C787.792 375.21 792.789 373.471 797.75 371.623C850.585 351.936 898.926 319.784 943.911 288.537C956.587 279.751 969.154 270.644 981.307 261.838C1020.13 233.709 1056.79 207.14 1098.23 189.067C1133.13 173.799 1161.85 171.978 1186.03 183.502C1197.37 188.915 1208.63 197.4 1220.45 209.439C1230.87 220.055 1240.37 231.978 1249.56 243.506C1255.05 250.402 1260.24 256.915 1265.48 262.976C1316.94 322.892 1369.43 385.201 1421.49 448.173L1421.33 448.301Z" fill="#A1A1A1"/>
<path d="M1419.21 446.413C1367.94 383.094 1316.45 320.092 1266.16 259.156C1261.09 253.025 1256.05 246.395 1250.72 239.377C1233.29 216.419 1213.52 190.398 1188.27 178.515C1163.85 167.037 1135.14 170.039 1100.48 187.69C1064.17 206.156 1030.82 232.23 998.556 257.448C982.38 270.092 965.652 283.168 948.608 295.267C921.707 314.382 899.072 328.964 877.374 341.16C850.619 356.197 825.584 367.396 800.842 375.396C795.763 377.04 790.629 378.567 785.586 379.936C759.31 387.065 733.507 390.672 708.823 390.674C707.452 390.674 706.088 390.662 704.725 390.64C676.187 390.175 649.622 384.8 625.768 374.667C614.255 369.749 602.979 363.506 592.258 356.11C582.18 349.16 572.276 340.973 562.822 331.778C545.812 315.236 529.91 295.283 514.214 270.782C513.54 269.728 512.868 268.672 512.2 267.611C503.093 253.155 494.477 238.044 486.145 223.43C481.335 214.994 476.362 206.27 471.353 197.779C455.931 171.617 442.867 152.313 428.989 135.191C427.122 132.889 425.199 130.58 423.268 128.327C388.143 87.3323 342.752 54.777 292.004 34.1763C230.818 9.367 168.868 3.03189 117.565 16.3354C65.4058 29.8995 13.0502 74.5378 13.9024 133.61L13.7019 133.612C13.3049 106.097 24.2151 79.933 45.2516 57.9495C54.7602 48.013 65.9893 39.3029 78.63 32.0559C90.9299 25.0054 104.012 19.6503 117.515 16.139C144.587 9.11848 174.356 7.48911 205.994 11.297C234.415 14.7181 263.378 22.3519 292.079 33.9879C342.858 54.6026 388.276 87.178 423.423 128.197C425.354 130.452 427.281 132.762 429.147 135.065C443.031 152.197 456.101 171.506 471.527 197.679C476.536 206.172 481.511 214.896 486.319 223.332C494.651 237.944 503.265 253.053 512.371 267.505C513.039 268.565 513.708 269.622 514.382 270.674C547.736 322.737 584.197 356.694 625.847 374.482C683.534 398.989 744.526 390.87 785.534 379.743C790.573 378.375 795.702 376.849 800.78 375.206C857.685 356.804 909.611 322.731 948.492 295.104C965.534 283.009 982.259 269.934 998.433 257.292C1030.7 232.07 1064.07 205.988 1100.39 187.514C1115.9 179.615 1129.93 174.765 1143.29 172.689C1159.77 170.128 1174.93 172.028 1188.35 178.337C1199.66 183.658 1210.81 192.211 1222.44 204.485C1232.68 215.299 1241.94 227.478 1250.88 239.259C1256.21 246.275 1261.25 252.903 1266.32 259.03C1316.61 319.966 1368.1 382.968 1419.37 446.287L1419.21 446.413Z" fill="#A1A1A1"/>
<path d="M1417.08 444.526L1267 255.206C1262.1 249.023 1257.23 242.295 1252.08 235.174C1235.07 211.674 1215.8 185.039 1190.6 173.353C1166.22 162.053 1136.64 166.354 1102.65 186.137C1069.98 205.154 1040.18 230.445 1011.36 254.903C992.575 270.846 973.15 287.33 953.193 301.838C893.207 345.445 840.784 371.2 788.214 382.894C766.405 387.744 744.891 390.185 724.027 390.185C717.703 390.185 711.443 389.961 705.249 389.512C676.037 387.395 649.067 380.281 625.091 368.368C602.87 357.325 582.541 341.737 562.95 320.709C547.306 303.919 532.309 283.901 515.756 257.713C507.02 243.893 498.56 229.533 490.378 215.646C471.862 184.221 452.717 151.726 429.014 123.127C392.655 79.2619 344.932 44.8627 291.002 23.6468C229.429 -0.577344 167.31 -6.22503 116.091 7.74588C66.503 21.2719 12.6816 63.9241 11.6911 125.612L11.4905 125.608C11.9337 98.0347 23.1848 71.8746 44.0268 49.9552C62.8716 30.1362 88.4458 15.077 116.039 7.55148C143.081 0.176217 172.882 -1.80989 204.611 1.65127C233.1 4.7577 262.192 12.0969 291.076 23.4604C317.762 33.9581 343.105 47.7767 366.405 64.5334C389.9 81.4304 411.017 101.099 429.166 122.994C452.879 151.604 472.031 184.107 490.551 215.54C498.732 229.425 507.192 243.782 515.927 257.601C540.077 295.812 574.322 342.911 625.181 368.184C683.508 397.166 746.008 392.071 788.169 382.694C840.713 371.008 893.113 345.262 953.074 301.672C973.024 287.17 992.446 270.686 1011.23 254.747C1040.05 230.284 1069.86 204.988 1102.55 185.961C1136.59 166.144 1166.25 161.839 1190.68 173.168C1201.96 178.401 1213.01 187.029 1224.45 199.549C1234.52 210.57 1243.53 223.017 1252.24 235.054C1257.39 242.175 1262.26 248.899 1267.16 255.08L1417.24 444.399L1417.08 444.526Z" fill="#A1A1A1"/>
<path d="M1415.87 429.972C1377.66 377.259 1344.87 334.484 1312.68 295.361C1297.06 276.356 1281.1 257.649 1265.26 239.76C1260.47 234.349 1255.72 228.593 1250.69 222.498C1238.06 207.181 1225 191.342 1209.96 179.588C1201.89 173.265 1194.12 168.737 1186.21 165.747C1161.92 156.478 1133.42 162.607 1101.51 183.965C1084.99 195.002 1069.95 207.562 1057.42 218.392C1044.15 229.858 1031.07 242.502 1018.41 254.729C1000.21 272.306 981.401 290.479 961.176 306.087C948.87 315.613 936.396 324.125 924.098 331.388C899.495 345.918 873.086 357.891 845.607 366.973C828.629 372.523 811.569 376.718 794.904 379.439C780.541 381.776 766.151 383.125 752.133 383.448C731.153 383.933 710.712 382.083 691.378 377.944C670.821 373.543 651.366 366.518 633.556 357.063C617.675 348.631 602.674 338.016 587.697 324.606C559.789 299.638 537.529 270.768 521.255 248.406C513.261 237.369 505.454 226.114 497.905 215.229C476.167 183.883 455.633 154.275 429.939 127.903C408.983 106.535 385.073 88.0944 358.867 73.0913C338.729 61.5615 316.826 52.1319 293.768 45.0633C288.276 43.3818 282.68 41.8146 277.139 40.4097C253.286 34.3712 226.432 30.4391 197.327 28.7215C167.983 26.9498 142.595 28.483 119.718 33.4132C106.784 36.1789 94.2538 40.5179 82.4693 46.3079C40.8656 66.7502 14.1504 101.067 11.0063 138.108L10.7556 138.086C11.5938 128.211 14.0542 118.485 18.0666 109.174C21.8784 100.33 27.114 91.8 33.6268 83.8215C45.9327 68.7503 62.7843 55.6993 82.359 46.0814C94.1616 40.2814 106.712 35.9364 119.666 33.1667C142.567 28.2325 167.975 26.6973 197.343 28.471C226.464 30.1885 253.332 34.1247 277.201 40.1672C282.748 41.5741 288.346 43.1413 293.843 44.8248C316.918 51.8975 338.839 61.335 358.993 72.8749C385.217 87.8879 409.147 106.344 430.113 127.726C455.824 154.115 476.361 183.73 498.107 215.085C505.655 225.97 513.461 237.223 521.454 248.258C537.72 270.61 559.97 299.466 587.862 324.417C602.823 337.813 617.807 348.419 633.67 356.84C668.527 375.345 708.38 384.213 752.125 383.197C766.131 382.874 780.511 381.526 794.862 379.191C811.515 376.469 828.563 372.278 845.527 366.733C872.99 357.656 899.382 345.691 923.97 331.169C936.26 323.912 948.726 315.405 961.022 305.887C981.234 290.287 1000.04 272.117 1018.23 254.547C1030.89 242.317 1043.98 229.669 1057.26 218.2C1069.79 207.363 1084.84 194.799 1101.37 183.754C1115.58 174.245 1129.34 167.675 1142.26 164.226C1158.14 159.989 1172.96 160.422 1186.3 165.513C1194.23 168.513 1202.03 173.052 1210.12 179.389C1225.17 191.162 1238.24 207.01 1250.89 222.338C1255.91 228.431 1260.66 234.187 1265.45 239.594C1281.3 257.485 1297.25 276.194 1312.88 295.203C1345.06 334.33 1377.86 377.108 1416.08 429.825L1415.87 429.972Z" fill="#A1A1A1"/>
<path d="M1414.66 415.413C1379.23 361.809 1345.97 316.952 1313 278.282C1296.91 259.393 1280.27 241.235 1263.52 224.314C1259.08 219.825 1254.69 215.159 1250.05 210.221C1236.14 195.432 1221.76 180.141 1205.65 169.561C1197.52 164.196 1189.73 160.46 1181.82 158.139C1151.57 149.249 1120.83 166.092 1100.37 181.786C1085.88 192.873 1072.64 205.409 1059.23 218.35C1047.49 229.677 1036.45 241.862 1024.76 254.761C1007.41 273.909 989.466 293.708 969.161 310.332C957.112 320.251 944.537 328.826 931.786 335.821C908.035 348.852 882.025 358.971 852.272 366.759C835.621 371.116 818.569 374.22 801.589 375.982C787.262 377.451 772.961 377.976 759.081 377.537C738.432 376.892 718.247 373.99 699.086 368.913C678.962 363.58 659.76 355.788 642.016 345.753C626.47 336.963 611.459 326.057 596.125 312.412C568.277 287.667 544.421 260.234 526.752 239.099C520.211 231.274 513.774 223.402 507.548 215.786C482.754 185.46 459.335 156.812 430.865 132.678C409.588 114.641 385.701 99.3895 359.87 87.3486C340.325 78.2378 319.609 71.4116 296.542 66.4794C291.218 65.3431 285.802 64.3189 280.446 63.4351C256.921 59.5731 231.814 58.1121 201.437 56.601C179.541 55.4566 150.877 54.7031 123.339 59.0761C110.297 61.1083 97.6908 64.6376 85.8662 69.5618C44.2344 86.9037 15.9933 117.198 10.3186 150.604L10.0219 150.553C11.5257 141.695 14.5736 133.007 19.0753 124.728C23.3664 116.84 29.005 109.276 35.8327 102.241C48.8083 88.8778 66.069 77.4802 85.7499 69.2832C97.5966 64.349 110.227 60.8137 123.291 58.7775C150.854 54.3984 179.541 55.154 201.451 56.2984C231.838 57.8095 256.953 59.2705 280.494 63.1345C285.854 64.0203 291.274 65.0445 296.604 66.1808C319.694 71.119 340.429 77.9512 359.996 87.072C385.853 99.125 409.761 114.389 431.06 132.444C459.55 156.596 482.978 185.251 507.781 215.59C514.005 223.204 520.441 231.076 526.982 238.898C544.648 260.026 568.494 287.449 596.326 312.182C611.641 325.812 626.636 336.707 642.164 345.487C677.055 365.218 716.397 375.898 759.091 377.232C772.959 377.669 787.246 377.146 801.559 375.677C818.523 373.918 835.561 370.817 852.196 366.462C881.925 358.682 907.912 348.571 931.644 335.552C944.379 328.566 956.937 320.002 968.973 310.094C989.259 293.483 1007.19 273.692 1024.54 254.555C1036.23 241.65 1047.28 229.463 1059.02 218.129C1072.44 205.18 1085.68 192.64 1100.19 181.542C1113.45 171.366 1126.53 164.047 1139.07 159.782C1154.28 154.612 1168.69 153.96 1181.91 157.844C1189.84 160.175 1197.66 163.923 1205.82 169.304C1221.96 179.904 1236.35 195.21 1250.27 210.01C1254.91 214.947 1259.3 219.61 1263.74 224.098C1280.49 241.025 1297.14 259.188 1313.23 278.083C1346.21 316.763 1379.48 361.628 1414.92 415.245L1414.66 415.413Z" fill="#A1A1A1"/>
<path d="M1413.45 400.855C1380.29 345.631 1347.53 299.95 1313.31 261.204C1296.76 242.431 1279.42 224.825 1261.78 208.87C1258.01 205.459 1254.13 201.839 1250.38 198.34C1234.88 183.882 1218.85 168.933 1201.34 159.536C1193.13 155.095 1185.31 152.148 1177.44 150.531C1147.25 144.32 1118.25 162.915 1099.23 179.605C1086.35 190.873 1074.57 203.643 1063.17 215.995L1061.04 218.307C1050.69 229.513 1040.99 241.802 1030.72 254.815C1014.36 275.536 997.441 296.96 977.146 314.577C965.337 324.902 952.663 333.542 939.472 340.256C916.475 351.962 890.881 360.315 858.932 366.544C842.411 369.765 825.367 371.777 808.271 372.523C793.98 373.122 779.767 372.821 766.023 371.625C724.416 368.019 685.539 355.509 650.472 334.444C635.313 325.337 620.292 314.144 604.553 300.219C577.919 276.704 554.229 252.534 532.25 229.793C529.303 226.745 526.387 223.717 523.494 220.712C493.474 189.55 465.12 160.115 431.798 137.46C410.044 122.669 386.18 110.609 360.873 101.61C342.292 95.0042 322.156 90.5189 299.317 87.8975C294.17 87.3103 288.934 86.8273 283.755 86.4626C270.725 85.5607 256.905 85.4144 242.274 85.2601C230.521 85.1358 218.37 85.0075 205.546 84.4845C180.78 83.3882 152.712 82.1476 126.957 84.745C113.669 86.0858 100.986 88.8034 89.2594 92.8237C47.6436 107.093 17.8745 133.37 9.6272 163.113L9.28833 163.019C11.462 155.177 15.0954 147.527 20.0863 140.282C24.8586 133.354 30.8983 126.752 38.0368 120.661C51.6901 109.013 69.3639 99.2731 89.1431 92.491C100.895 88.4607 113.604 85.7371 126.919 84.3943C152.7 81.7949 180.782 83.0375 205.558 84.1337C218.374 84.6548 230.525 84.7851 242.274 84.9093C256.911 85.0637 270.735 85.21 283.777 86.1138C288.96 86.4806 294.202 86.9636 299.353 87.5508C322.22 90.1742 342.381 94.6655 360.987 101.281C386.324 110.29 410.214 122.365 431.993 137.172C465.345 159.846 493.712 189.295 523.744 220.472C526.638 223.476 529.555 226.502 532.501 229.553C554.476 252.29 578.157 276.454 604.784 299.96C620.507 313.869 635.512 325.052 650.653 334.147C685.673 355.187 724.5 367.678 766.054 371.28C779.781 372.474 793.98 372.775 808.255 372.176C825.333 371.43 842.361 369.42 858.864 366.203C890.78 359.981 916.345 351.637 939.312 339.947C952.474 333.247 965.125 324.623 976.913 314.316C997.182 296.722 1014.09 275.309 1030.44 254.6C1040.72 241.582 1050.43 229.286 1060.78 218.073L1062.91 215.76C1074.31 203.403 1086.1 190.624 1099 179.345C1118.07 162.6 1147.18 143.952 1177.51 150.19C1185.42 151.816 1193.26 154.772 1201.51 159.231C1219.05 168.649 1235.1 183.614 1250.61 198.088C1254.37 201.587 1258.25 205.206 1262.02 208.615C1279.67 224.578 1297.01 242.195 1313.57 260.978C1347.81 299.74 1380.58 345.436 1413.75 400.679L1413.45 400.855Z" fill="#A1A1A1"/>
<path d="M1412.24 386.295C1381.8 330.237 1348.62 282.404 1313.62 244.129C1296.61 225.474 1278.59 208.417 1260.05 193.43C1257.37 191.265 1254.63 189.019 1251.98 186.846C1234.46 172.495 1216.34 157.652 1197.05 149.515C1188.76 145.986 1180.92 143.831 1173.07 142.925C1142.96 139.454 1115.68 159.77 1098.1 177.425C1087.18 188.331 1077.33 200.46 1067.8 212.191C1066.15 214.221 1064.5 216.247 1062.85 218.265C1053.78 229.352 1045.31 241.738 1036.34 254.849C1021.08 277.139 1005.3 300.187 985.133 318.825C973.286 329.77 960.866 338.231 947.158 344.697C918.488 358.219 889.836 363.223 865.591 366.338C849.193 368.442 832.157 369.364 814.952 369.071C800.705 368.801 786.579 367.672 772.967 365.72C732.609 359.946 694.242 345.621 658.932 323.14C644.24 313.789 629.211 302.305 612.983 288.034C596.591 273.652 581.315 259.813 566.541 246.43C556.501 237.333 547.016 228.741 537.754 220.498C502.744 189.337 470.675 161.941 432.738 142.248C410.517 130.714 386.677 121.84 361.881 115.873C344.109 111.597 325.112 109.514 302.098 109.316C297.133 109.28 292.076 109.338 287.069 109.49C279.464 109.737 271.595 110.252 263.268 110.799C247.286 111.847 229.169 113.036 209.655 112.37C202.224 112.116 194.642 111.757 187.309 111.408C168.448 110.512 148.946 109.586 130.572 110.414C117.079 111.023 104.318 112.931 92.648 116.086C51.1024 127.319 19.8074 149.579 8.93126 175.631L8.5603 175.477C11.4077 168.655 15.6266 162.045 21.0988 155.83C26.3544 149.862 32.795 144.224 40.2383 139.075C54.5814 129.155 72.6663 121.072 92.5397 115.699C104.238 112.536 117.027 110.623 130.55 110.013C148.944 109.184 168.454 110.111 187.325 111.007C194.656 111.356 202.238 111.715 209.667 111.969C229.163 112.635 247.266 111.448 263.24 110.4C271.571 109.853 279.442 109.338 287.055 109.091C292.068 108.939 297.129 108.881 302.1 108.917C325.146 109.113 344.171 111.202 361.973 115.485C386.8 121.459 410.671 130.343 432.921 141.893C450.057 150.788 467.422 162.057 486.008 176.342C502.648 189.131 518.833 203.124 538.019 220.199C547.281 228.444 556.766 237.036 566.808 246.133C581.58 259.515 596.855 273.353 613.244 287.733C629.456 301.99 644.469 313.462 659.143 322.804C694.404 345.254 732.717 359.56 773.019 365.326C786.615 367.276 800.723 368.402 814.954 368.672C832.139 368.965 849.157 368.045 865.535 365.941C889.75 362.832 918.364 357.834 946.984 344.336C960.653 337.889 973.041 329.449 984.856 318.533C1004.99 299.926 1020.76 276.897 1036 254.624C1044.98 241.505 1053.46 229.114 1062.54 218.015C1064.19 215.997 1065.83 213.97 1067.48 211.942C1077.02 200.204 1086.88 188.067 1097.81 177.146C1109.25 165.66 1120.99 156.824 1132.69 150.884C1146.56 143.847 1160.16 141.037 1173.11 142.533C1181 143.442 1188.88 145.607 1197.2 149.15C1216.54 157.309 1234.68 172.17 1252.22 186.54C1254.88 188.712 1257.62 190.959 1260.29 193.121C1278.84 208.12 1296.88 225.194 1313.91 243.862C1332.49 264.186 1350.69 287.342 1367.99 312.687C1383.29 335.087 1398.29 359.79 1412.58 386.107L1412.24 386.295Z" fill="#A1A1A1"/>
<path d="M1411.03 371.731C1382.85 314.066 1350.19 265.389 1313.94 227.052C1296.46 208.515 1277.75 192.009 1258.32 177.988C1257.4 177.321 1256.47 176.653 1255.55 175.984C1235.34 161.386 1214.45 146.291 1192.76 139.494C1184.35 136.861 1176.48 135.496 1168.71 135.32C1138.72 134.642 1113.15 156.656 1096.97 175.24C1087.46 186.113 1079.01 198.03 1070.84 209.553C1068.82 212.403 1066.73 215.349 1064.67 218.219C1056.82 229.15 1049.52 241.578 1041.79 254.737C1027.73 278.672 1013.19 303.422 993.126 323.07C981.516 334.438 968.995 342.963 954.849 349.136C926.979 361.295 898.679 364.488 872.251 366.127C855.955 367.137 838.925 366.965 821.634 365.616C807.433 364.474 793.397 362.52 779.912 359.81C740.927 351.994 703.069 335.853 667.395 311.833C653.108 302.215 638.498 290.779 621.42 275.845C588.961 247.538 564.859 227.601 543.271 211.201C500.334 178.583 467.563 159.394 433.697 147.036C411.025 138.763 387.209 133.077 362.908 130.135C346.049 128.095 328.156 128.277 304.896 130.732C300.13 131.241 295.253 131.841 290.401 132.516C285.817 133.163 281.161 133.905 276.23 134.689C258.025 137.584 237.389 140.867 213.772 140.254C201.324 139.931 188.609 139.048 176.313 138.194C162.339 137.224 147.89 136.22 134.19 136.083C120.454 135.947 107.615 137.045 96.0393 139.35C54.6321 147.589 21.8071 165.837 8.23394 188.161L7.84894 187.927C11.3741 182.127 16.1785 176.557 22.1279 171.372C27.8708 166.366 34.7085 161.694 42.4525 157.484C57.4955 149.303 75.9954 142.877 95.951 138.907C107.559 136.598 120.426 135.496 134.194 135.632C147.906 135.769 162.363 136.773 176.343 137.745C188.635 138.599 201.344 139.482 213.782 139.805C237.357 140.416 257.971 137.138 276.156 134.246C281.088 133.46 285.748 132.72 290.334 132.071C295.193 131.396 300.074 130.796 304.844 130.285C328.14 127.828 346.063 127.644 362.958 129.69C387.293 132.636 411.143 138.33 433.848 146.615C467.76 158.989 500.565 178.199 543.54 210.844C565.136 227.25 589.246 247.193 621.712 275.508C638.779 290.431 653.372 301.854 667.643 311.462C703.269 335.448 741.071 351.567 779.998 359.371C793.465 362.077 807.485 364.027 821.666 365.169C838.937 366.516 855.945 366.689 872.221 365.68C898.609 364.043 926.86 360.858 954.666 348.727C968.761 342.579 981.237 334.081 992.807 322.754C1012.83 303.147 1027.35 278.424 1041.39 254.514C1049.13 241.347 1056.43 228.909 1064.3 217.963C1066.36 215.095 1068.45 212.149 1070.47 209.299C1078.65 197.765 1087.1 185.84 1096.63 174.95C1107.19 162.821 1118.25 153.227 1129.52 146.433C1142.72 138.474 1155.91 134.588 1168.72 134.875C1176.54 135.051 1184.44 136.424 1192.89 139.07C1214.66 145.89 1235.58 161.005 1255.81 175.625C1256.73 176.295 1257.66 176.964 1258.58 177.629C1278.03 191.666 1296.77 208.193 1314.27 226.749C1350.54 265.12 1383.24 313.835 1411.43 371.541L1411.03 371.731Z" fill="#A1A1A1"/>
<path d="M882.228 365.919C881.103 365.919 879.994 365.917 878.903 365.911C862.691 365.843 845.667 364.58 828.308 362.155C814.16 360.141 800.212 357.361 786.851 353.896C767.762 348.954 748.604 341.851 729.906 332.786C711.849 324.032 693.664 313.178 675.854 300.522C658.403 288.122 642.102 274.305 629.851 263.653C601.184 238.798 573.91 218.023 548.785 201.904C508.091 175.798 471.827 159.883 434.657 151.82C412.233 146.956 388.175 144.391 365.011 144.391C364.652 144.391 364.295 144.391 363.936 144.393C344.037 144.461 325.144 148.156 307.695 152.141C303.153 153.185 298.455 154.325 293.73 155.534C291.142 156.203 288.549 156.892 285.806 157.622C266.458 162.775 244.527 168.613 217.884 168.134C201.658 167.841 185.085 166.162 169.058 164.536C158.709 163.486 148.009 162.402 137.803 161.746C123.772 160.847 110.861 161.135 99.4234 162.608C58.2368 167.907 23.8819 182.145 7.52151 200.695L7.14453 200.364C15.5363 190.851 28.159 182.614 44.6617 175.88C60.4225 169.45 79.3374 164.689 99.3593 162.113C110.827 160.638 123.772 160.346 137.835 161.249C148.051 161.905 158.757 162.991 169.11 164.041C185.127 165.667 201.69 167.346 217.894 167.637C244.469 168.116 266.362 162.286 285.678 157.143C288.423 156.411 291.015 155.722 293.606 155.053C298.334 153.844 303.037 152.702 307.582 151.658C325.062 147.667 343.987 143.966 363.934 143.896C387.467 143.813 411.957 146.387 434.764 151.335C453.947 155.498 472.545 161.624 491.617 170.066C509.984 178.197 528.773 188.474 549.053 201.487C574.198 217.618 601.493 238.409 630.177 263.281C642.419 273.927 658.707 287.733 676.14 300.119C712.28 325.8 749.57 343.731 786.975 353.417C800.318 356.878 814.248 359.654 828.377 361.666C845.713 364.087 862.713 365.35 878.903 365.416C904.237 365.52 933.653 364.666 962.343 353.112C976.865 347.264 989.427 338.713 1000.75 326.97C1020.64 306.348 1033.82 279.879 1046.57 254.28C1053.13 241.113 1059.32 228.675 1066.06 217.909C1068.22 214.46 1070.39 210.906 1072.5 207.469C1079.61 195.857 1086.97 183.852 1095.44 172.755C1105.13 159.989 1115.52 149.633 1126.33 141.978C1138.86 133.101 1151.64 128.135 1164.31 127.217C1172.13 126.65 1180.06 127.229 1188.57 128.989C1211.31 133.69 1233.85 147.351 1256.86 162.135C1276.92 175.026 1296.89 191.45 1314.61 209.634C1334.29 229.773 1352.78 253.4 1369.56 279.857C1384.52 303.428 1398.21 329.373 1410.28 356.974L1409.82 357.175C1383.91 297.9 1351.76 248.378 1314.25 209.984C1296.56 191.827 1276.62 175.427 1256.59 162.558C1233.62 147.8 1211.12 134.165 1188.46 129.48C1180 127.73 1172.11 127.155 1164.34 127.718C1141.07 129.408 1116.74 145.509 1095.84 173.06C1087.38 184.137 1080.03 196.132 1072.93 207.732C1070.82 211.171 1068.64 214.726 1066.48 218.175C1059.76 228.921 1053.57 241.349 1047.02 254.504C1040.76 267.064 1034.29 280.053 1026.87 292.539C1018.45 306.694 1010.03 318.07 1001.11 327.319C989.74 339.113 977.122 347.703 962.532 353.579C949.665 358.762 935.835 362.187 920.252 364.055C907.056 365.628 893.802 365.919 882.228 365.919Z" fill="#A1A1A1"/>
<path d="M914.384 366.923C904.159 366.923 894.338 366.314 885.551 365.697C869.395 364.562 852.379 362.207 834.978 358.696C820.89 355.812 807.03 352.209 793.784 347.982C757.512 336.432 721.701 317.206 684.306 289.21C667.998 277.003 652.624 263.868 638.279 251.462C609.958 227.042 581.705 207.241 554.3 192.606C513.995 171.084 476.286 159.642 435.624 156.6C412.456 154.866 388.025 155.574 364.969 158.644C345.671 161.213 327.478 167.414 310.494 173.543C306.245 175.084 301.726 176.768 297.064 178.545C295.899 178.992 294.724 179.447 293.532 179.906C273.972 187.466 251.839 196.019 223.433 196.019C222.954 196.019 222.477 196.017 221.993 196.011C202.776 195.817 183.155 193.075 164.178 190.422C156.654 189.37 148.874 188.283 141.409 187.404C126.827 185.688 114.198 185.181 102.799 185.858C61.3373 188.324 26.3407 198.296 6.78611 213.225L6.45123 212.786C16.1183 205.407 30.0965 199 46.8699 194.258C63.3686 189.594 82.6966 186.5 102.765 185.307C114.196 184.628 126.857 185.135 141.471 186.855C148.944 187.734 156.726 188.823 164.252 189.873C183.211 192.522 202.814 195.262 221.995 195.456C250.992 195.753 273.487 187.057 293.33 179.387C294.519 178.928 295.696 178.473 296.861 178.024C301.527 176.245 306.049 174.561 310.302 173.02C327.314 166.879 345.541 160.67 364.891 158.093C387.983 155.019 412.454 154.309 435.66 156.045C455.811 157.552 475.022 161.111 494.393 166.923C514.342 172.91 534.021 181.149 554.554 192.115C581.993 206.77 610.283 226.595 638.634 251.039C652.973 263.441 668.337 276.568 684.631 288.763C721.976 316.721 757.732 335.919 793.946 347.451C807.172 351.67 821.014 355.269 835.082 358.149C852.459 361.656 869.452 364.009 885.583 365.139C912.73 367.043 941.608 368.021 970.018 357.486C984.967 351.94 997.617 343.334 1008.69 331.175C1028.42 309.516 1040.69 279.973 1051.53 253.907C1056.98 240.792 1062.13 228.404 1067.81 217.845C1069.86 214.035 1071.92 210.097 1073.92 206.289C1080.16 194.374 1086.61 182.055 1094.25 170.549C1103.08 157.145 1112.81 146.028 1123.14 137.506C1135.01 127.72 1147.38 121.676 1159.89 119.545C1167.71 118.212 1175.68 118 1184.24 118.89C1208.15 121.381 1232.44 133.69 1255.13 146.623C1276.08 158.564 1296.77 174.429 1314.95 192.502C1335.18 212.548 1353.81 236.411 1370.34 263.425C1385.12 287.583 1398.16 314.15 1409.11 342.392L1408.6 342.591C1385.33 282.559 1352.81 230.793 1314.56 192.891C1296.42 174.852 1275.77 159.017 1254.86 147.1C1232.22 134.198 1207.99 121.918 1184.18 119.437C1175.67 118.551 1167.76 118.764 1159.99 120.086C1136.88 124.02 1113.7 142.048 1094.71 170.849C1087.09 182.331 1080.64 194.639 1074.41 206.541C1072.41 210.351 1070.35 214.289 1068.3 218.103C1062.63 228.639 1057.49 241.015 1052.04 254.116C1041.19 280.222 1028.89 309.813 1009.1 331.544C997.964 343.769 985.243 352.423 970.21 358.001C957.165 362.839 943.092 365.64 927.185 366.56C922.884 366.821 918.601 366.923 914.384 366.923Z" fill="#A1A1A1"/>
<path d="M934.566 369.093C934.419 369.093 934.275 369.093 934.129 369.093C919.679 369.057 905.492 367.29 892.198 365.482C876.066 363.289 859.06 359.84 841.649 355.235C827.625 351.485 813.853 347.054 800.719 342.067C765.897 328.866 731.594 308.478 692.764 277.901C678.78 266.892 665.018 255.037 651.708 243.576C650.043 242.141 648.377 240.708 646.711 239.275C618.243 214.86 589.009 196.031 559.824 183.313C519.858 165.899 479.552 158.724 436.601 161.38C413.05 162.837 388.64 166.819 366.012 172.895C348.158 177.691 332.248 185.385 313.303 194.945C309.464 196.891 305.363 198.991 300.402 201.557L300.125 201.701C290.555 206.683 279.706 212.329 267.539 216.622C253.565 221.552 240.008 223.925 226.106 223.897C204.428 223.843 182.304 219.81 160.911 215.908C155.669 214.952 150.247 213.964 145.014 213.071C130.005 210.511 117.3 209.219 106.173 209.12C65.2031 208.76 28.7046 214.828 6.03797 225.767L5.77728 225.226C16.88 219.867 31.8568 215.518 49.0874 212.648C66.3501 209.772 86.0932 208.345 106.179 208.521C117.338 208.619 130.075 209.914 145.116 212.479C150.354 213.373 155.776 214.361 161.019 215.317C182.387 219.213 204.482 223.242 226.108 223.296C226.204 223.296 226.302 223.296 226.398 223.296C257.333 223.296 280.9 211.03 299.849 201.168L300.127 201.024C305.09 198.456 309.191 196.356 313.033 194.41C332.01 184.834 347.947 177.126 365.857 172.316C388.524 166.228 412.973 162.239 436.565 160.78C457.583 159.482 477.408 160.472 497.177 163.811C518.481 167.408 539.052 173.607 560.064 182.764C589.306 195.506 618.59 214.365 647.104 238.82C648.77 240.253 650.436 241.688 652.101 243.123C665.405 254.58 679.163 266.431 693.135 277.432C731.915 307.971 766.168 328.331 800.932 341.51C814.048 346.491 827.799 350.914 841.804 354.659C859.191 359.259 876.173 362.702 892.278 364.891C921.127 368.815 949.37 371.536 977.703 361.884C993.079 356.646 1005.82 347.986 1016.64 335.408C1036.19 312.687 1046.87 281.203 1056.29 253.424C1060.7 240.419 1064.87 228.134 1069.57 217.81C1071.38 213.838 1073.19 209.73 1074.95 205.755C1080.44 193.33 1086.11 180.483 1093.06 168.37C1101.07 154.323 1110.12 142.442 1119.96 133.059C1131.17 122.365 1143.12 115.246 1155.48 111.903C1163.14 109.831 1170.96 108.821 1179.36 108.821C1179.54 108.821 1179.73 108.821 1179.91 108.823C1206.03 108.959 1232.91 120.82 1253.41 131.137C1275.25 142.13 1296.65 157.433 1315.3 175.395C1336.08 195.348 1354.86 219.446 1371.13 247.021C1385.72 271.766 1398.12 298.956 1407.96 327.84L1407.39 328.034C1392.74 285.057 1364.8 223.767 1314.88 175.829C1296.28 157.908 1274.93 142.641 1253.14 131.674C1232.7 121.385 1205.9 109.558 1179.91 109.424C1171.35 109.374 1163.41 110.38 1155.64 112.484C1132.74 118.679 1110.71 138.632 1093.59 168.669C1086.65 180.754 1080.98 193.586 1075.5 205.998C1073.74 209.974 1071.93 214.085 1070.12 218.059C1065.43 228.356 1061.27 240.626 1056.86 253.616C1047.42 281.446 1036.72 312.989 1017.1 335.798C1006.2 348.461 993.378 357.179 977.898 362.452C964.778 366.919 950.597 369.093 934.566 369.093Z" fill="#A1A1A1"/>
<path d="M950.613 371.916C947.501 371.916 944.321 371.816 941.065 371.615C926.812 370.739 912.96 368.112 898.843 365.266C882.479 361.967 865.952 357.554 848.318 351.774C834.366 347.161 820.685 341.906 807.653 336.152C774.594 321.578 741.769 300.123 701.222 266.59C691.152 258.263 681.086 249.529 671.35 241.081C666.051 236.484 660.572 231.728 655.144 227.084C626.338 202.505 596.128 184.652 565.352 174.018C524.689 159.967 482.896 157.394 437.583 166.152C413.643 170.78 389.256 178.037 367.06 187.137C349.23 194.449 333.698 204.716 317.254 215.586L316.117 216.338C313.548 218.041 310.951 219.769 308.322 221.517C306.809 222.525 305.285 223.539 303.747 224.561C294.158 230.968 283.801 237.652 271.924 242.797C258.134 248.769 244.495 251.707 230.222 251.779C206.461 251.895 182.224 246.376 158.787 241.033C155.443 240.269 151.982 239.482 148.623 238.734C132.876 235.227 120.462 233.209 109.55 232.379C69.2815 229.319 31.2791 231.475 5.28382 238.297L5.11737 237.668C31.1809 230.828 69.2615 228.663 109.6 231.73C120.542 232.561 132.988 234.586 148.765 238.099C152.126 238.848 155.587 239.636 158.934 240.4C182.084 245.677 206.014 251.13 229.46 251.13C229.713 251.13 229.966 251.13 230.22 251.128C260.547 250.976 282.135 238.217 303.388 224.02C304.926 222.998 306.45 221.984 307.963 220.975C310.592 219.226 313.187 217.5 315.758 215.795L316.895 215.043C333.367 204.155 348.926 193.869 366.814 186.534C389.049 177.415 413.479 170.146 437.461 165.511C482.888 156.73 524.793 159.312 565.566 173.401C596.418 184.063 626.699 201.956 655.569 226.589C660.997 231.235 666.478 235.988 671.777 240.588C681.509 249.033 691.573 257.766 701.637 266.087C742.136 299.582 774.914 321.006 807.916 335.557C820.93 341.3 834.591 346.549 848.523 351.155C866.131 356.927 882.633 361.334 898.974 364.627C923.778 369.627 954.648 375.852 985.389 366.264C1001.19 361.336 1014.02 352.622 1024.58 339.623C1043.95 315.814 1052.92 282.326 1060.85 252.783C1064.29 239.949 1067.54 227.826 1071.33 217.765C1072.81 213.845 1074.29 209.79 1075.72 205.868C1080.53 192.715 1085.5 179.115 1091.88 166.18C1099.07 151.48 1107.45 138.835 1116.77 128.598C1127.33 116.998 1138.87 108.807 1151.06 104.252C1158.89 101.328 1166.91 99.5261 1175.58 98.7425C1187.19 97.6923 1199.56 98.8146 1213.37 102.166C1225.06 105.003 1237.59 109.409 1251.69 115.635C1274.41 125.678 1296.53 140.423 1315.65 158.274C1336.98 178.133 1355.91 202.469 1371.91 230.603C1386.32 255.938 1398.06 283.751 1406.81 313.274L1406.18 313.459C1387.72 251.13 1355.41 196.186 1315.2 158.751C1296.14 140.948 1274.08 126.245 1251.42 116.233C1221.06 102.817 1196.98 97.4638 1175.64 99.3918C1167.02 100.169 1159.06 101.959 1151.29 104.861C1122.29 115.698 1103.29 144.345 1092.46 166.467C1086.1 179.369 1081.13 192.953 1076.33 206.091C1074.9 210.015 1073.42 214.071 1071.94 217.993C1068.16 228.024 1064.91 240.133 1061.48 252.952C1053.54 282.559 1044.54 316.116 1025.09 340.034C1014.44 353.135 1001.51 361.919 985.582 366.887C974.784 370.254 963.268 371.916 950.613 371.916Z" fill="#A1A1A1"/>
<path d="M964.518 375.15C943.313 375.15 922.926 369.705 905.485 365.047C889.076 360.666 872.558 355.191 854.984 348.31C841.11 342.839 827.517 336.759 814.583 330.235C775.813 310.703 741.25 282.667 709.676 255.278C703.229 249.686 696.716 243.923 690.42 238.349C681.677 230.609 672.636 222.606 663.576 214.894C634.339 190.073 603.152 173.192 570.885 164.721C529.143 153.764 485.86 155.79 438.566 170.917C414.215 178.706 389.852 189.237 368.11 201.374C351.34 210.734 337.151 222.55 322.131 235.06C321.066 235.946 319.999 236.836 318.926 237.726L318.345 238.211C314.693 241.255 310.918 244.401 307.09 247.56C297.918 255.162 287.818 263.024 276.135 269.03C262.574 276.003 248.903 279.48 234.335 279.66C208.765 279.979 182.704 272.794 157.502 265.846C155.736 265.359 153.977 264.874 152.227 264.395C135.608 259.837 123.484 257.136 112.921 255.633C73.6632 250.049 34.1529 248.294 4.52022 250.817L4.46008 250.117C34.1409 247.588 73.7094 249.346 113.019 254.937C123.613 256.444 135.762 259.152 152.411 263.717C154.162 264.196 155.92 264.681 157.689 265.17C182.842 272.105 208.853 279.272 234.325 278.959C265.961 278.566 288.241 262.266 306.64 247.019C310.468 243.86 314.244 240.714 317.896 237.672L318.477 237.187C319.55 236.295 320.617 235.407 321.681 234.521C336.728 221.989 350.941 210.153 367.767 200.761C389.549 188.602 413.958 178.052 438.351 170.25C460.773 163.079 481.834 158.939 502.734 157.592C526.048 156.091 549.036 158.261 571.061 164.043C603.431 172.541 634.71 189.47 664.03 214.359C673.095 222.075 682.139 230.08 690.883 237.822C697.18 243.395 703.688 249.157 710.133 254.747C741.675 282.105 776.196 310.111 814.896 329.608C827.812 336.121 841.385 342.194 855.239 347.657C872.786 354.527 889.279 359.995 905.663 364.37C930.82 371.088 962.13 379.449 993.066 370.651C1009.3 366.033 1022.21 357.265 1032.52 343.845C1051.68 318.916 1058.85 283.368 1065.18 252.003C1067.72 239.401 1070.12 227.499 1073.08 217.724C1074.18 214.109 1075.28 210.373 1076.34 206.76C1080.5 192.626 1084.8 178.01 1090.68 163.995C1097.08 148.629 1104.78 135.218 1113.57 124.137C1123.49 111.633 1134.61 102.37 1146.64 96.6037C1154.45 92.8599 1162.49 90.2646 1171.24 88.6673C1183.02 86.5168 1196.09 86.589 1210.1 88.8817C1222.36 90.8899 1235.77 94.6757 1249.95 100.137C1273.56 109.23 1296.4 123.413 1315.99 141.154C1337.87 160.921 1356.95 185.492 1372.69 214.187C1386.91 240.111 1398 268.549 1405.64 298.712L1404.96 298.884C1388.76 234.972 1357 179.14 1315.52 141.675C1295.99 123.992 1273.23 109.855 1249.7 100.792C1219.19 89.0461 1193.57 85.3043 1171.36 89.3587C1162.68 90.944 1154.69 93.5213 1146.94 97.237C1118.33 110.955 1100.91 141.258 1091.33 164.266C1085.46 178.245 1081.17 192.841 1077.01 206.956C1075.95 210.569 1074.85 214.307 1073.75 217.927C1070.8 227.669 1068.41 239.555 1065.87 252.141C1062.82 267.231 1059.38 284.332 1054.37 300.365C1048.63 318.735 1041.67 333.097 1033.08 344.272C1028.11 350.733 1022.41 356.233 1016.12 360.618C1009.35 365.334 1001.66 368.937 993.258 371.326C983.645 374.062 973.998 375.15 964.518 375.15Z" fill="#A1A1A1"/>
<path d="M977.05 378.699C970.04 378.699 962.695 378.018 954.937 376.657C939.657 373.978 925.031 369.115 912.126 364.829C895.86 359.423 878.876 352.699 861.649 344.845C847.863 338.524 834.358 331.618 821.513 324.315C784.644 303.377 752.879 275.538 718.13 243.965C715.042 241.159 711.905 238.297 708.873 235.527C696.933 224.627 684.587 213.355 672.008 202.705C642.285 177.593 610.124 161.686 576.417 155.425C533.899 147.527 487.847 154.341 439.548 175.681C414.764 186.632 390.423 200.436 369.158 215.606C353.147 227.027 339.966 240.493 326.012 254.751C324.595 256.2 323.171 257.653 321.739 259.112C318.176 262.747 314.338 266.649 310.434 270.556C302.247 278.775 292.269 288.14 280.348 295.261C267.004 303.233 253.298 307.251 238.452 307.542C211.273 308.077 183.608 299.083 156.852 290.385L155.834 290.054C142.734 285.797 128.876 281.496 116.295 278.885C77.9481 270.926 37.9826 265.401 3.76404 263.327L3.81015 262.577C38.0648 264.653 78.0664 270.183 116.448 278.149C129.064 280.769 142.946 285.076 156.066 289.338L157.085 289.669C183.782 298.347 211.392 307.32 238.438 306.788C269.672 306.175 291.244 288.755 309.903 270.02C313.807 266.116 317.641 262.214 321.204 258.581C322.636 257.124 324.059 255.669 325.477 254.222C339.455 239.94 352.659 226.45 368.723 214.991C390.028 199.791 414.415 185.96 439.245 174.99C461.906 164.979 484.206 158.081 505.521 154.489C529.876 150.387 553.776 150.451 576.557 154.682C610.393 160.967 642.672 176.93 672.495 202.128C685.084 212.788 697.436 224.063 709.383 234.97C712.415 237.738 715.551 240.6 718.639 243.405C753.355 274.949 785.085 302.758 821.888 323.659C834.715 330.951 848.2 337.847 861.966 344.16C879.168 352.002 896.124 358.716 912.366 364.113C937.826 372.575 969.512 383.102 1000.76 375.036C1017.42 370.733 1030.41 361.913 1040.47 348.068C1059.42 321.984 1064.91 282.669 1069.31 251.077C1071.03 238.772 1072.65 227.15 1074.85 217.69C1075.54 214.708 1076.24 211.636 1076.91 208.663C1080.42 193.224 1084.05 177.256 1089.5 161.817C1097.91 137.789 1113.88 105.646 1142.22 88.9658C1150.05 84.3603 1158.12 80.9693 1166.91 78.6004C1189.88 72.3133 1217.25 74.3476 1248.22 84.6429C1272.72 92.7857 1296.28 106.408 1316.34 124.038C1338.77 143.711 1358 168.518 1373.48 197.777C1380.58 211.197 1386.85 225.53 1392.13 240.379C1397.17 254.562 1401.33 269.291 1404.49 284.156L1403.76 284.312C1389.83 218.812 1358.6 162.093 1315.84 124.602C1295.85 107.037 1272.39 93.4671 1247.99 85.3543C1217.15 75.1051 1189.94 73.0769 1167.1 79.3239C1158.38 81.6747 1150.37 85.0397 1142.6 89.6111C1114.45 106.175 1098.57 138.154 1090.21 162.063C1084.78 177.463 1081.15 193.408 1077.65 208.828C1076.97 211.8 1076.27 214.874 1075.58 217.859C1073.39 227.286 1071.77 238.892 1070.06 251.179C1067.84 267.076 1065.33 285.094 1061.03 302.099C1056.1 321.639 1049.57 336.821 1041.08 348.509C1036.23 355.177 1030.57 360.8 1024.24 365.221C1017.42 369.985 1009.58 373.533 1000.94 375.761C993.362 377.721 985.444 378.699 977.05 378.699Z" fill="#A1A1A1"/>
<path d="M988.599 382.447C980.197 382.447 971.336 381.359 961.872 379.177C946.536 375.643 931.782 369.779 918.764 364.604C902.376 358.091 885.402 350.277 868.313 341.376C854.618 334.212 841.203 326.48 828.442 318.393C793.327 296.157 763.209 267.498 731.323 237.159C729.745 235.658 728.167 234.154 726.584 232.651C711.756 218.558 696.424 203.984 680.441 190.516C650.201 165.086 617.065 150.151 581.954 146.126C537.852 141.07 490.271 152.616 440.53 180.439C415.649 194.356 390.675 211.898 370.206 229.834C354.75 243.376 342.354 258.613 329.23 274.747C327.676 276.656 326.118 278.572 324.548 280.492C321.411 284.334 317.68 288.89 313.774 293.549C306.539 302.201 296.681 313.196 284.558 321.467C271.426 330.428 257.691 334.995 242.565 335.426C230.133 335.737 216.414 333.819 200.621 329.56C187.062 325.904 173.946 321.126 159.432 315.715C146.184 310.715 132.202 305.55 119.657 302.139C82.499 292.034 43.2494 283.186 3.00116 275.835L3.14553 275.047C43.4178 282.4 82.6895 291.257 119.868 301.366C132.446 304.787 146.449 309.959 159.713 314.964C184.04 324.036 214.316 335.332 242.543 334.624C274.815 333.703 295.555 314.09 313.158 293.032C317.062 288.377 320.792 283.823 323.926 279.983C325.496 278.063 327.054 276.147 328.606 274.239C341.752 258.08 354.17 242.816 369.676 229.23C390.188 211.259 415.21 193.683 440.139 179.74C490.03 151.832 537.776 140.256 582.046 145.331C599.02 147.277 615.693 151.796 631.599 158.763C648.665 166.236 665.272 176.716 680.958 189.905C696.96 203.387 712.302 217.969 727.138 232.072C728.72 233.577 730.3 235.078 731.878 236.58C763.735 266.892 793.827 295.523 828.873 317.717C841.616 325.792 855.011 333.514 868.686 340.667C885.75 349.553 902.698 357.357 919.063 363.861C944.781 374.082 976.79 386.802 1008.44 379.425C1025.58 375.429 1038.66 366.554 1048.41 352.297C1067.19 325.065 1070.54 283.465 1073.23 250.039C1074.19 238.085 1075.1 226.793 1076.6 217.662C1076.91 215.778 1077.22 213.885 1077.53 211.981C1080.35 194.783 1083.25 176.998 1088.31 159.642C1095.52 134.679 1109.97 100.829 1137.8 81.3323C1145.56 75.893 1153.66 71.7084 1162.57 68.5378C1174.94 64.0906 1188.73 62.0003 1203.55 62.3209C1217.08 62.6135 1231.53 64.9123 1246.49 69.1511C1271.87 76.34 1296.14 89.401 1316.67 106.921C1339.67 126.498 1359.04 151.546 1374.26 181.365C1381.24 195.048 1387.28 209.676 1392.23 224.843C1396.96 239.369 1400.7 254.428 1403.33 269.602L1402.54 269.738C1391.06 203.619 1359.57 144.497 1316.15 107.53C1295.71 90.0864 1271.54 77.0795 1246.27 69.9187C1215.11 61.0884 1186.25 60.8719 1162.83 69.2894C1154 72.4359 1145.96 76.5885 1138.25 81.9856C1110.61 101.348 1096.26 135.023 1089.08 159.863C1084.04 177.173 1081.13 194.931 1078.33 212.107C1078.01 214.011 1077.7 215.907 1077.39 217.791C1075.89 226.887 1074.98 238.165 1074.02 250.102C1071.33 283.623 1067.97 325.343 1049.07 352.75C1044.37 359.622 1038.75 365.374 1032.37 369.841C1025.5 374.647 1017.51 378.134 1008.62 380.207C1002.21 381.698 995.561 382.447 988.599 382.447Z" fill="#A1A1A1"/>
<path d="M999.451 386.349C989.879 386.349 979.737 384.802 968.806 381.696C953.342 377.301 938.496 370.436 925.4 364.382C908.849 356.73 891.883 347.822 874.973 337.909C861.376 329.913 848.052 321.353 835.367 312.473C804.132 290.611 777.437 263.83 749.174 235.475C744.554 230.84 739.775 226.048 735.035 221.336C718.372 204.782 704.143 191.132 688.869 178.327C658.09 152.56 623.981 138.597 587.489 136.825C541.634 134.599 492.517 150.872 441.505 185.193C416.163 202.244 391.211 223.148 371.245 244.055C356.204 259.806 344.446 276.951 331.998 295.103C330.456 297.351 328.908 299.608 327.349 301.867C324.574 305.897 320.901 311.208 317.109 316.533C301.152 338.995 280.304 362.121 246.675 363.304C245.626 363.338 244.573 363.354 243.522 363.354C217.262 363.354 190.453 352.966 163.026 341.368L161.314 340.639C147.728 334.843 134.895 329.37 123.016 325.385C78.2506 310.37 34.9565 297.696 2.23981 288.333L2.47442 287.513C35.1991 296.88 78.5052 309.557 123.287 324.578C135.198 328.572 148.045 334.053 161.648 339.855L163.359 340.585C191.791 352.608 219.556 363.332 246.645 362.454C279.901 361.284 300.574 338.336 316.413 316.042C320.203 310.721 323.872 305.414 326.648 301.386C328.206 299.125 329.752 296.87 331.294 294.622C343.762 276.442 355.538 259.268 370.628 243.468C390.633 222.516 415.636 201.571 441.028 184.486C464.595 168.629 488.17 156.454 511.097 148.295C537.403 138.933 563.12 134.789 587.529 135.973C624.21 137.753 658.491 151.784 689.415 177.672C704.71 190.496 718.953 204.16 735.633 220.729C740.375 225.44 745.153 230.234 749.775 234.87C778.01 263.197 804.679 289.952 835.854 311.769C848.521 320.639 861.825 329.185 875.402 337.17C892.288 347.07 909.228 355.965 925.755 363.604C951.698 375.599 983.986 390.526 1016.12 383.806C1033.69 380.133 1046.84 371.206 1056.34 356.518C1074.89 328.045 1076.01 284.104 1076.9 248.797C1077.19 237.277 1077.47 226.394 1078.36 217.626L1078.38 217.426C1080.36 197.791 1082.41 177.489 1087.11 157.458C1091.19 139.986 1096.86 124.277 1103.97 110.765C1111.99 95.5317 1121.88 83.0579 1133.37 73.6885C1141.05 67.4195 1149.18 62.4392 1158.22 58.465C1182.63 47.6646 1212.56 45.9972 1244.75 53.647C1257.7 56.7254 1270.48 61.389 1282.73 67.5057C1295.05 73.6584 1306.59 81.1599 1317.01 89.7978C1340.56 109.28 1360.09 134.564 1375.04 164.949C1388.48 192.26 1397.86 223.414 1402.17 255.042L1401.33 255.156C1392.1 187.464 1361.17 127.432 1316.47 90.4532C1295.57 73.1333 1270.7 60.6916 1244.55 54.4807C1212.54 46.875 1182.81 48.5244 1158.56 59.2506C1149.6 63.1948 1141.53 68.135 1133.91 74.3539C1112.46 91.8481 1096.57 120.654 1087.94 157.656C1083.25 177.636 1081.21 197.91 1079.23 217.516L1079.21 217.717C1078.32 226.453 1078.05 237.319 1077.75 248.823C1076.85 284.238 1075.74 328.311 1057.06 356.985C1052.48 364.067 1046.9 369.943 1040.48 374.449C1033.55 379.307 1025.42 382.736 1016.3 384.646C1010.86 385.78 1005.26 386.349 999.451 386.349Z" fill="#A1A1A1"/>
<path d="M247.299 391.258C235.556 391.258 222.769 388.971 208.338 384.301C193.999 379.662 179.818 373.256 166.628 367.028C164.24 365.893 161.869 364.761 159.515 363.637C147.797 358.039 136.728 352.752 126.384 348.633C85.1348 332.218 45.817 317.463 7.79257 303.197L1.49225 300.833L1.80906 299.989L8.10938 302.354C46.1358 316.623 85.4596 331.378 126.716 347.798C137.089 351.926 148.172 357.219 159.904 362.825C162.256 363.949 164.627 365.082 167.013 366.214C194.089 379 222.855 391.392 250.756 390.288C285.052 388.861 305.606 362.157 319.678 339.056C323.283 333.147 326.756 327.259 329.379 322.79C330.827 320.327 332.265 317.866 333.698 315.411C345.589 295.059 356.82 275.835 371.59 257.709C391.087 233.788 416.066 209.47 441.928 189.238C465.923 170.467 490.135 155.636 513.897 145.158C541.151 133.14 567.772 126.903 593.02 126.62C631.01 126.055 666.295 139.118 697.881 165.442C715.39 180.053 731.089 195.857 744.139 209.391C751.239 216.757 758.34 224.306 765.207 231.607C789.516 257.455 814.653 284.18 842.844 305.827C855.437 315.499 868.655 324.87 882.128 333.679C898.801 344.555 915.733 354.54 932.456 363.354C958.596 377.13 991.126 394.276 1023.81 388.191C1041.8 384.842 1055.04 375.864 1064.29 360.743C1082.59 330.979 1081.35 284.631 1080.36 247.39C1080.06 236.377 1079.79 225.974 1080.12 217.598C1080.87 198.717 1082.01 176.774 1085.93 155.281C1089.24 137.07 1094.23 120.594 1100.77 106.312C1108.17 90.1566 1117.65 76.6126 1128.95 66.0548C1136.43 59.0583 1144.82 53.12 1153.88 48.4022C1166.8 41.6483 1181.31 37.4015 1196.99 35.7821C1211.68 34.265 1227.16 35.0626 1243.01 38.151C1256.38 40.7564 1269.56 45.0413 1282.18 50.8894C1294.87 56.7736 1306.71 64.1047 1317.36 72.6785C1329.63 82.5509 1340.92 94.209 1350.91 107.33C1360.37 119.762 1368.75 133.627 1375.83 148.537C1389.06 176.433 1397.77 208.231 1401.02 240.488L1400.12 240.578C1393.16 171.309 1362.79 110.368 1316.79 73.3819C1295.73 56.4228 1269.47 44.2256 1242.84 39.0369C1209.92 32.6216 1179.3 36.1369 1154.3 49.2019C1145.31 53.8816 1136.99 59.7738 1129.56 66.7141C1108.28 86.6073 1093.89 116.459 1086.82 155.444C1082.9 176.878 1081.77 198.783 1081.02 217.634C1080.69 225.98 1080.96 236.367 1081.26 247.366C1081.75 265.738 1082.3 286.563 1080.44 306.695C1078.28 330.055 1073.25 347.888 1065.06 361.214C1060.6 368.505 1055.06 374.507 1048.6 379.052C1041.62 383.963 1033.34 387.336 1023.98 389.077C1019.25 389.957 1014.53 390.356 1009.84 390.356C981.758 390.356 954.542 376.01 932.037 364.15C915.29 355.321 898.332 345.323 881.637 334.43C868.144 325.61 854.908 316.224 842.297 306.538C814.048 284.848 788.885 258.094 764.552 232.223C757.686 224.924 750.588 217.376 743.491 210.015C730.459 196.497 714.783 180.714 697.306 166.132C665.89 139.948 630.811 126.961 593.034 127.518C533.706 128.183 478.419 161.831 442.486 189.943C416.675 210.135 391.747 234.401 372.292 258.275C357.566 276.346 346.351 295.54 334.478 315.86C333.045 318.315 331.605 320.776 330.157 323.241C327.532 327.712 324.057 333.604 320.45 339.519C314.543 349.217 305.269 363.334 292.985 373.916C287.019 379.054 280.671 383.093 274.116 385.921C266.807 389.073 258.959 390.845 250.794 391.184C249.637 391.234 248.472 391.258 247.299 391.258Z" fill="#A1A1A1"/>
<path d="M251.068 419.159C239.312 419.159 226.551 416.696 212.196 411.669C197.333 406.467 182.639 399.152 170.227 392.68C166.413 390.688 162.607 388.668 158.926 386.714C148.635 381.252 138.914 376.092 129.748 371.879C96.8329 356.748 64.1322 341.975 32.5063 327.688C22.0452 322.962 11.2292 318.076 0.746094 313.33L1.1391 312.462C11.6222 317.208 22.4383 322.094 32.8993 326.82C64.5252 341.107 97.2299 355.882 130.147 371.015C139.337 375.24 149.07 380.405 159.373 385.874C163.052 387.828 166.858 389.846 170.668 391.838C196.411 405.254 226.27 419.456 254.862 418.119C289.967 416.439 309.684 387.281 322.942 362.067C326.341 355.607 329.628 349.122 332.11 344.194C333.385 341.665 334.653 339.137 335.918 336.616C347.291 313.939 358.033 292.521 372.555 271.952C391.442 245.201 416.4 217.514 442.829 193.991C479.634 161.374 536.519 121.587 598.508 117.272C637.93 114.454 674.214 126.547 706.347 153.219C720.784 165.207 735.061 179.036 752.643 198.061C761.528 207.675 770.345 217.64 778.871 227.274C801.054 252.34 823.99 278.259 849.834 299.894C862.355 310.378 875.483 320.573 888.853 330.197C905.043 341.839 921.969 352.914 939.158 363.115C965.56 378.689 998.419 398.075 1031.49 392.588C1049.63 389.642 1063.33 380.353 1072.23 364.981C1090.28 333.87 1086.4 282.973 1083.57 245.81C1082.78 235.381 1082.03 225.53 1081.88 217.584C1081.55 199.923 1081.58 176.637 1084.74 153.118C1090.2 112.364 1103.59 80.5062 1124.53 58.4346C1131.87 50.6585 1140.28 43.9025 1149.54 38.353C1162.71 30.4487 1177.57 25.1317 1193.71 22.5523C1208.92 20.1233 1224.92 20.1614 1241.28 22.6666C1255.08 24.827 1268.65 28.7431 1281.61 34.3026C1294.71 39.9183 1306.85 47.073 1317.7 55.5686C1330.25 65.3849 1341.72 77.0831 1351.78 90.3406C1361.31 102.905 1369.67 116.966 1376.61 132.137C1389.65 160.62 1397.68 193.059 1399.86 225.947L1398.91 226.009C1394.23 155.159 1364.41 93.3087 1317.12 56.3202C1295.67 39.5395 1268.69 27.9214 1241.13 23.6085C1207.16 18.4077 1175.66 23.7889 1150.04 39.1707C1140.85 44.6741 1132.5 51.376 1125.22 59.0899C1104.42 81.0153 1091.12 112.693 1085.69 153.247C1082.54 176.701 1082.51 199.941 1082.84 217.568C1082.99 225.486 1083.73 235.325 1084.53 245.74C1085.99 264.95 1087.64 286.725 1086.7 307.983C1085.59 332.736 1081.13 351.537 1073.05 365.46C1068.71 372.969 1063.21 379.102 1056.72 383.688C1049.68 388.66 1041.25 391.971 1031.65 393.53C1016.77 395.997 1000.76 393.78 982.696 386.752C966.994 380.641 951.949 371.767 938.676 363.939C921.462 353.724 904.514 342.633 888.3 330.974C874.909 321.337 861.763 311.127 849.225 300.63C823.326 278.951 800.364 253.003 778.159 227.911C769.637 218.279 760.822 208.321 751.945 198.715C734.394 179.724 720.143 165.921 705.739 153.96C673.797 127.441 637.743 115.42 598.572 118.22C536.85 122.519 480.153 162.183 443.458 194.702C417.082 218.177 392.176 245.806 373.329 272.501C358.847 293.012 348.121 314.4 336.766 337.043C335.501 339.566 334.234 342.093 332.958 344.623C330.474 349.555 327.185 356.046 323.782 362.512C310.408 387.95 290.492 417.369 254.904 419.071C253.639 419.129 252.358 419.159 251.068 419.159Z" fill="#A1A1A1"/>
<path d="M254.914 447.063C222.791 447.063 189.086 427.344 159.206 409.862C150.024 404.491 141.352 399.416 133.111 395.126L0 325.828L0.463211 324.94L133.574 394.238C141.837 398.539 150.52 403.619 159.713 408.998C190.748 427.156 225.925 447.736 258.968 445.953C294.847 444.019 313.748 412.405 326.207 385.083C330.281 376.146 334.215 367.053 338.021 358.259C348.43 334.21 359.192 309.34 373.515 286.194C384.888 267.816 399.017 248.542 414.373 230.459C431.218 210.62 449.255 192.418 467.978 176.361C488.621 158.658 509.611 144.014 530.363 132.837C553.316 120.475 575.929 112.405 597.577 108.847C640.943 101.722 680.385 112.535 714.805 140.988C743.409 164.631 767.72 193.867 791.23 222.142C811.695 246.753 832.856 272.199 856.818 293.952C884.496 319.076 914.451 342.262 945.855 362.863C972.313 380.221 1005.24 401.825 1039.18 396.969C1067.84 392.869 1084.42 373.701 1089.84 338.368C1094.46 308.314 1090.07 272.662 1086.54 244.017C1085.34 234.255 1084.2 225.034 1083.64 217.556C1080.57 176.335 1082.53 142.306 1089.64 113.529C1094.07 95.5737 1100.62 79.5686 1109.09 65.9585C1118.55 50.755 1130.7 38.0808 1145.2 28.2885C1157.74 19.817 1171.88 13.6643 1187.21 10.0007C1201.81 6.51348 1217.19 5.34506 1232.9 6.52751C1263.81 8.85232 1294.05 20.1878 1318.04 38.4435C1330.86 48.2017 1342.51 59.942 1352.65 73.3357C1362.25 86.03 1370.58 100.29 1377.39 115.721C1390.22 144.792 1397.58 177.874 1398.69 211.389L1397.69 211.423C1395.33 140.052 1365.32 75.6846 1317.43 39.2432C1266.57 0.543123 1194.37 -3.71568 1145.76 29.1203C1097.6 61.6476 1077.61 123.261 1084.64 217.482C1085.2 224.935 1086.33 234.144 1087.53 243.895C1091.07 272.602 1095.47 308.33 1090.83 338.52C1088.3 354.964 1083.23 368.18 1075.74 377.802C1071.53 383.211 1066.45 387.632 1060.65 390.939C1054.48 394.458 1047.3 396.821 1039.32 397.963C1036.06 398.43 1032.74 398.665 1029.36 398.665C1017.07 398.665 1003.97 395.556 989.614 389.259C973.444 382.165 957.84 371.928 945.301 363.703C913.856 343.072 883.858 319.856 856.14 294.696C832.124 272.897 810.941 247.42 790.454 222.783C766.974 194.545 742.693 165.344 714.161 141.761C679.972 113.503 640.801 102.761 597.733 109.837C510.616 124.151 420.876 211.564 374.361 286.723C360.076 309.805 349.328 334.64 338.933 358.658C335.126 367.456 331.189 376.555 327.111 385.5C318.839 403.639 310.67 416.628 301.402 426.372C295.617 432.453 289.341 437.247 282.748 440.62C275.417 444.369 267.432 446.502 259.015 446.957C257.655 447.027 256.285 447.063 254.914 447.063Z" fill="#A1A1A1"/>
</g>
</svg>
