<svg width="1452" height="512" viewBox="0 0 1452 512" fill="none" xmlns="http://www.w3.org/2000/svg">
<g opacity="0.3">
<path d="M555.295 511.995C550.112 511.995 545.067 511.577 540.218 510.743C530.05 508.994 520.656 505.401 512.296 500.065C503.311 494.332 495.43 486.52 488.871 476.847C475.689 457.403 469.094 434.119 462.716 411.6C461.462 407.178 460.167 402.606 458.852 398.169C449.876 367.933 438.499 341.447 424.072 317.199C395.291 268.828 354.816 227.547 307.021 197.819C251.746 163.441 192.316 146.315 139.677 149.599C108.739 151.53 67.8615 169.89 49.5922 201.247C38.7501 219.856 37.8758 240.508 47.0656 260.966L46.8832 261.053C42.0647 250.324 39.9652 239.567 40.645 229.083C41.2686 219.465 44.2203 210.064 49.4197 201.14C57.6891 186.946 71.3264 174.366 88.8578 164.758C105.058 155.882 123.1 150.424 139.665 149.391C167.213 147.674 196.511 151.485 226.745 160.719C254.152 169.092 281.196 181.513 307.125 197.64C354.949 227.385 395.448 268.688 424.244 317.088C438.679 341.352 450.063 367.853 459.044 398.106C460.362 402.542 461.657 407.116 462.908 411.538C469.281 434.04 475.872 457.309 489.036 476.723C501.767 495.502 518.999 506.877 540.252 510.533C569.685 515.597 605.425 505.006 635.856 482.199C679.709 449.334 710.144 401.496 739.578 355.235C744.738 347.127 750.072 338.742 755.353 330.646C769.065 309.621 787.635 282.378 809.704 258.107C832.262 233.299 855.186 215.072 879.785 202.383C894.842 194.616 910.8 189.383 927.214 186.83C942.375 184.471 958.423 184.325 974.912 186.392C1003.19 189.939 1033.67 199.958 1068.07 217.02C1135.8 250.618 1203.47 291.399 1269.18 338.231C1331.63 382.744 1392.89 433.114 1451.24 487.936L1451.1 488.089C1330.14 374.444 1201.24 283.306 1067.98 217.205C992.688 179.86 932.917 175.208 879.876 202.566C825.914 230.398 788.218 280.626 755.52 330.759C750.24 338.853 744.906 347.238 739.747 355.347C710.305 401.624 679.86 449.476 635.976 482.364C621.795 492.992 605.842 501.282 589.843 506.336C581.391 509.006 572.989 510.752 564.868 511.526C561.632 511.84 558.438 511.995 555.295 511.995Z" fill="#A1A1A1"/>
<path d="M560.363 500.465C547.145 500.465 534.901 497.881 523.958 492.782C511.757 487.097 501.228 478.286 492.661 466.597C491.904 465.562 491.152 464.491 490.426 463.412C477.384 444.053 470.496 421.071 463.837 398.845C462.489 394.353 461.098 389.707 459.686 385.198C451.278 358.354 441.154 334.695 428.732 312.872C427.202 310.185 425.618 307.493 424.02 304.87C394.816 256.915 354.013 216.157 306.02 187.002C250.346 153.21 190.748 136.793 138.204 140.776C107.49 143.129 66.8009 161.79 48.4534 192.906C37.467 211.538 36.2237 232.231 44.8541 252.749L44.6696 252.831C40.1459 242.077 38.2871 231.3 39.1473 220.804C39.9374 211.163 43.0093 201.741 48.281 192.799C56.6346 178.629 70.2318 166.035 87.5988 156.378C103.65 147.452 121.615 141.838 138.186 140.57C165.699 138.485 195.029 141.931 225.359 150.812C252.833 158.857 280.005 170.973 306.121 186.825C354.141 215.997 394.967 256.78 424.188 304.761C425.786 307.386 427.372 310.081 428.902 312.769C441.333 334.607 451.463 358.278 459.875 385.137C461.288 389.645 462.68 394.291 464.027 398.785C470.685 420.997 477.566 443.963 490.59 463.295C491.314 464.37 492.066 465.44 492.822 466.474C510.524 490.635 534.847 500.465 560.425 500.465C560.565 500.465 560.704 500.465 560.844 500.465C560.684 500.463 560.523 500.465 560.363 500.465ZM565.819 500.321C589.598 499.067 614.136 489.686 635.186 475.731C680.594 445.505 713.229 398.82 744.79 353.673C746.09 351.812 747.389 349.955 748.688 348.099C751.542 344.023 754.924 339.197 758.377 334.333C773.867 312.518 792.614 287.135 814.204 264.289C837.175 239.979 860.125 221.94 884.362 209.138C899.254 201.28 914.993 195.744 931.141 192.685C946.101 189.851 961.912 189.05 978.128 190.304C1006.14 192.471 1036.26 200.689 1070.22 215.429C1103.32 229.777 1130.53 243.283 1155.85 257.934C1191.72 278.71 1225.88 302.647 1254.58 323.321C1321.28 371.525 1386.73 426.261 1449.11 486.01L1448.97 486.16C1386.6 426.42 1321.16 371.688 1254.46 323.49C1225.77 302.818 1191.61 278.885 1155.75 258.116C1130.44 243.469 1103.24 229.966 1070.14 215.622C996.179 183.512 937.174 181.509 884.454 209.323C829.736 238.221 790.769 289.066 758.54 334.456C755.085 339.321 751.704 344.144 748.851 348.222C747.551 350.077 746.252 351.936 744.953 353.797C713.381 398.958 680.734 445.659 635.295 475.908C624.028 483.377 612.039 489.31 599.658 493.54C588.135 497.474 576.775 499.749 565.819 500.321Z" fill="#A1A1A1"/>
<path d="M565.95 489.199C564.36 489.199 562.78 489.164 561.212 489.092C548.006 488.493 535.784 485.382 524.888 479.842C512.971 473.784 502.646 464.811 494.202 453.169C493.453 452.132 492.705 451.059 491.983 449.981C479.087 430.716 471.913 408.041 464.977 386.115C463.531 381.545 462.035 376.818 460.519 372.232C451.696 345.478 441.306 322.008 428.749 300.48C427.195 297.818 425.587 295.148 423.965 292.546C394.338 245.009 353.205 204.774 305.017 176.19C248.946 142.985 189.179 127.274 136.727 131.957C107.195 134.636 66.6235 152.232 47.3336 184.536C36.1887 203.199 34.5665 223.947 42.6414 244.537L42.4549 244.614C38.224 233.827 36.6098 223.025 37.6525 212.51C38.611 202.839 41.8113 193.392 47.1631 184.429C55.605 170.292 69.1581 157.694 86.3586 147.992C102.26 139.022 120.142 133.256 136.709 131.754C164.19 129.302 193.552 132.381 223.977 140.908C251.518 148.628 278.817 160.438 305.117 176.013C353.334 204.615 394.488 244.873 424.133 292.437C425.755 295.041 427.365 297.711 428.919 300.377C441.482 321.918 451.879 345.402 460.706 372.17C462.222 376.759 463.718 381.485 465.163 386.055C472.097 407.969 479.266 430.628 492.145 449.869C492.867 450.948 493.611 452.019 494.361 453.052C528.672 500.354 589.477 495.276 634.516 469.261C681.818 441.699 716.971 395.889 750.967 351.588L751.316 351.133C754.609 346.839 758.013 342.401 761.402 338.018C797.161 291.782 836.465 244.266 888.94 215.888C903.673 207.938 919.195 202.1 935.072 198.536C949.84 195.222 965.41 193.767 981.35 194.211C1009.14 194.985 1038.91 201.404 1072.37 213.834C1107.53 226.85 1133.99 238.815 1158.17 252.63C1192.61 272.353 1225.98 297.276 1255.41 319.266C1320.95 368.489 1385.41 423.939 1446.98 484.073L1446.84 484.221C1385.27 424.094 1320.83 368.65 1255.29 319.431C1225.86 297.445 1192.5 272.526 1158.07 252.809C1133.91 238.998 1107.45 227.037 1072.3 214.025C999.777 187.082 941.543 187.731 889.033 216.067C836.591 244.426 797.303 291.922 761.559 338.142C758.17 342.524 754.765 346.965 751.473 351.257L751.124 351.712C734.182 373.788 716.664 396.616 697.747 417.006C676.488 439.92 655.837 457.07 634.612 469.436C612.406 482.261 588.218 489.199 565.95 489.199Z" fill="#A1A1A1"/>
<path d="M1444.72 482.28C1383.95 421.765 1320.5 365.609 1256.13 315.371C1253.41 313.259 1250.68 311.137 1247.94 309.008C1220.05 287.348 1191.23 264.95 1160.4 247.502C1130.49 230.621 1100.18 220.299 1074.47 212.429C1003.52 190.571 946.05 193.871 893.62 222.811C839.799 252.607 798.095 302.077 764.586 341.828C762.575 344.214 760.567 346.604 758.556 348.996C757.072 350.763 755.587 352.529 754.101 354.293C735.021 376.95 717.666 397.206 698.491 415.69C676.584 436.805 655.469 452.27 633.936 462.968C613.755 472.995 592.198 478.3 572.146 478.302C568.492 478.302 564.893 478.127 561.356 477.771C548.442 476.472 536.487 472.822 525.824 466.923C514.188 460.485 504.067 451.341 495.74 439.743C494.996 438.703 494.254 437.629 493.536 436.548C480.793 417.385 473.34 395.028 466.133 373.409C464.581 368.753 462.975 363.935 461.351 359.26C452.107 332.591 441.447 309.309 428.766 288.081C427.188 285.439 425.554 282.794 423.91 280.215C393.858 233.096 352.399 193.383 304.015 165.37C247.547 132.752 187.614 117.751 135.255 123.128C99.4599 126.877 62.8571 148.669 46.2421 176.12C34.9228 194.822 32.9156 215.637 40.4331 236.313L40.2446 236.385C36.3084 225.559 34.9368 214.725 36.168 204.183C37.3009 194.477 40.6336 184.999 46.0717 176.011C54.6017 161.916 68.1107 149.317 85.1388 139.58C100.888 130.574 118.678 124.657 135.234 122.924C162.684 120.104 192.076 122.819 222.595 130.992C250.202 138.386 277.631 149.892 304.116 165.189C352.529 193.219 394.01 232.954 424.08 280.101C425.727 282.683 427.361 285.33 428.939 287.971C441.628 309.212 452.291 332.507 461.541 359.188C463.165 363.865 464.772 368.68 466.324 373.339C473.526 394.946 480.976 417.288 493.703 436.429C494.42 437.507 495.16 438.58 495.902 439.617C531.721 489.505 592.601 483.274 633.849 462.781C683.063 438.329 720.722 393.612 753.95 354.157C755.436 352.391 756.92 350.625 758.406 348.86C760.415 346.468 762.424 344.078 764.435 341.692C783.563 319.003 802.452 296.953 823.218 276.635C847.097 253.268 870.097 235.603 893.528 222.63C908.105 214.583 923.407 208.442 939.009 204.38C953.591 200.582 968.923 198.474 984.579 198.112C1012.19 197.474 1041.62 202.093 1074.53 212.232C1100.25 220.106 1130.57 230.432 1160.5 247.323C1191.34 264.777 1220.17 287.181 1248.06 308.846C1250.8 310.974 1253.53 313.097 1256.26 315.209C1320.63 365.451 1384.09 421.613 1444.86 482.133L1444.72 482.28Z" fill="#A1A1A1"/>
<path d="M1442.59 480.34C1381.48 418.282 1319.03 361.412 1256.97 311.312C1253.26 308.314 1249.46 305.225 1245.79 302.237C1219.47 280.845 1192.27 258.723 1162.72 242.195C1133.22 225.749 1102.65 217.111 1076.64 210.832C1007.41 193.958 950.709 199.907 898.203 229.555C848.122 257.937 808.886 300.615 770.942 341.888L766.775 346.419C763.484 349.999 760.082 353.698 756.727 357.327C718.745 398.363 680.722 436.824 633.257 456.496C621.739 461.27 609.913 464.578 598.102 466.334C585.419 468.217 573.1 468.244 561.483 466.412C548.867 464.421 537.183 460.24 526.756 453.984C515.408 447.177 505.491 437.866 497.281 426.313C496.541 425.267 495.805 424.19 495.094 423.112C482.507 404.061 474.785 382.035 467.318 360.732C465.651 355.979 463.927 351.063 462.186 346.289C452.513 319.703 441.589 296.607 428.788 275.684C427.188 273.069 425.53 270.445 423.859 267.886C393.384 221.185 351.598 181.995 303.016 154.552C246.149 122.525 186.047 108.23 133.778 114.305C98.3103 118.515 61.874 140.459 45.1748 167.672C33.667 186.421 31.2628 207.316 38.2208 228.097L38.0303 228.165C34.3889 217.292 33.264 206.416 34.6856 195.843C35.997 186.096 39.468 176.581 45.0023 167.565C53.6247 153.517 67.0855 140.931 83.9331 131.165C99.5255 122.125 117.219 116.067 133.754 114.103C161.171 110.916 190.593 113.265 221.209 121.084C248.884 128.153 276.44 139.352 303.111 154.373C351.72 181.831 393.531 221.045 424.024 267.773C425.694 270.333 427.354 272.96 428.954 275.575C441.764 296.508 452.694 319.616 462.371 346.217C464.111 350.991 465.836 355.909 467.502 360.662C474.965 381.952 482.683 403.969 495.256 422.996C495.966 424.071 496.702 425.146 497.44 426.191C532.396 475.385 590.479 474.004 633.179 456.306C680.606 436.651 718.612 398.205 756.579 357.187C759.933 353.558 763.336 349.859 766.627 346.279L770.793 341.748C789.42 321.489 808.677 300.539 829.594 281.05C853.283 258.978 875.693 242.075 898.103 229.374C912.532 221.226 927.617 214.782 942.937 210.225C957.34 205.939 972.433 203.176 987.797 202.013C1015.29 199.932 1044.36 202.752 1076.69 210.63C1102.71 216.913 1133.29 225.553 1162.81 242.013C1192.38 258.548 1219.59 280.676 1245.91 302.075C1249.58 305.062 1253.38 308.15 1257.09 311.149C1319.16 361.253 1381.61 418.128 1442.73 480.192L1442.59 480.34Z" fill="#A1A1A1"/>
<path d="M1440.47 478.401C1379.88 415.653 1318.42 358.07 1257.81 307.254C1253.25 303.435 1248.58 299.464 1244.06 295.625C1219.17 274.463 1193.44 252.58 1165.04 236.892C1135.68 220.728 1104.97 213.842 1078.81 209.239C1011.5 197.214 955.564 205.815 902.785 236.303C856.726 263.021 818.91 300.887 782.337 337.505C778.489 341.359 774.509 345.342 770.631 349.202C766.077 353.735 762.598 357.179 759.352 360.366C741.965 377.423 721.263 397.064 699.539 413.401C676.517 430.712 654.615 442.693 632.578 450.03C620.99 453.887 609.213 456.321 597.573 457.259C585.075 458.268 572.973 457.527 561.608 455.055C549.294 452.376 537.883 447.664 527.686 441.05C516.63 433.878 506.918 424.4 498.821 412.884C498.092 411.841 497.36 410.762 496.65 409.679C484.23 390.757 476.249 369.069 468.529 348.097C466.738 343.232 464.888 338.203 463.021 333.318C452.913 306.805 441.722 283.899 428.806 263.287C427.182 260.695 425.5 258.095 423.805 255.557C392.907 209.274 350.792 170.607 302.014 143.734C244.752 112.295 184.482 98.7108 132.305 105.479C102.616 109.416 63.8393 127.548 44.1363 159.18C32.422 177.987 29.6107 198.976 36.0092 219.877L35.8187 219.939C32.4721 209.01 31.5978 198.087 33.218 187.473C34.7139 177.676 38.3292 168.12 43.9678 159.069C52.6824 145.078 66.0931 132.513 82.7542 122.726C98.1902 113.66 115.778 107.464 132.28 105.276C159.665 101.723 189.12 103.705 219.827 111.169C247.569 117.913 275.253 128.807 302.108 143.553C350.914 170.44 393.054 209.129 423.97 255.439C425.664 257.978 427.348 260.582 428.973 263.176C441.894 283.799 453.091 306.717 463.205 333.242C465.074 338.129 466.925 343.158 468.715 348.022C476.429 368.985 484.408 390.66 496.814 409.562C497.524 410.643 498.254 411.719 498.984 412.761C528.065 454.126 577.984 467.985 632.516 449.83C681.899 433.39 722.184 396.543 759.214 360.213C762.46 357.027 765.937 353.583 770.491 349.05C774.369 345.19 778.349 341.206 782.197 337.353C800.202 319.326 818.818 300.685 838.675 283.23C861.129 263.491 882.07 248.08 902.689 236.12C916.98 227.865 931.844 221.119 946.873 216.071C961.108 211.289 975.963 207.874 991.024 205.916C1018.45 202.355 1047.17 203.374 1078.84 209.031C1105.02 213.638 1135.75 220.526 1165.14 236.704C1193.55 252.403 1219.29 274.292 1244.19 295.46C1248.71 299.3 1253.38 303.271 1257.93 307.089C1318.55 357.912 1380.01 415.499 1440.61 478.251L1440.47 478.401Z" fill="#A1A1A1"/>
<path d="M1438.34 476.462C1378.28 413.021 1317.82 354.723 1258.64 303.195C1253.61 298.812 1248.44 294.211 1243.43 289.763C1219.61 268.571 1194.98 246.66 1167.37 231.585C1137.98 215.614 1107.2 210.519 1080.98 207.641C1016.72 200.401 959.927 211.983 907.367 243.047C865.516 267.894 829.642 301.134 794.948 333.281C787.94 339.774 780.695 346.489 773.651 352.889C769.341 356.807 765.524 360.247 761.974 363.404C745.47 378.074 723.515 396.883 700.054 412.255C676.481 427.698 654.185 437.94 631.894 443.562C607.581 449.694 583.316 449.74 561.724 443.696C549.719 440.334 538.578 435.093 528.61 428.116C517.848 420.584 508.344 410.941 500.357 399.461C499.633 398.415 498.907 397.334 498.201 396.251C485.958 377.473 477.728 356.142 469.772 335.515C467.847 330.525 465.858 325.366 463.851 320.353C453.299 293.911 441.842 271.19 428.822 250.896C427.174 248.327 425.467 245.75 423.749 243.234C392.428 197.369 349.986 159.223 301.011 132.925C243.354 102.077 182.915 89.2005 130.828 96.6628C95.529 101.83 60.2837 123.527 43.1273 150.651C31.1884 169.527 27.9621 190.625 33.7972 211.666L33.6047 211.721C30.5548 200.727 29.9332 189.746 31.7559 179.087C33.4402 169.234 37.21 159.629 42.9589 150.538C51.7657 136.614 65.1243 124.077 81.5909 114.282C96.8644 105.198 114.342 98.8655 130.8 96.457C158.153 92.5374 187.639 94.1555 218.441 101.264C246.251 107.682 274.063 118.272 301.103 132.74C350.106 159.055 392.572 197.221 423.913 243.115C425.632 245.631 427.338 248.21 428.988 250.781C442.014 271.087 453.478 293.818 464.035 320.273C466.042 325.286 468.031 330.446 469.956 335.436C477.909 356.053 486.134 377.374 498.366 396.134C499.072 397.217 499.796 398.293 500.519 399.339C529.101 440.437 578.195 456.893 631.845 443.362C680.756 431.025 723.23 397.567 761.842 363.25C765.389 360.092 769.209 356.654 773.516 352.737C780.558 346.337 787.805 339.624 794.811 333.131C829.513 300.978 865.394 267.73 907.265 242.872C921.429 234.5 936.077 227.453 950.801 221.924C964.884 216.637 979.499 212.568 994.242 209.828C1021.66 204.733 1050.04 203.952 1080.99 207.44C1107.24 210.32 1138.04 215.417 1167.46 231.406C1195.1 246.491 1219.74 268.411 1243.57 289.61C1248.57 294.059 1253.74 298.658 1258.77 303.04C1317.95 354.573 1378.42 412.874 1438.49 476.32L1438.34 476.462Z" fill="#A1A1A1"/>
<path d="M1436.22 474.523C1376.69 410.381 1317.22 351.374 1259.48 299.137C1254.17 294.336 1248.71 289.254 1243.43 284.338C1220.48 262.968 1196.75 240.869 1169.69 226.279C1140.18 210.445 1109.38 207.165 1083.14 206.046C1021.31 203.213 965.311 217.522 911.949 249.793C874.526 272.532 841.166 301.311 808.902 329.141C797.809 338.711 787.33 347.751 776.672 356.576C772.337 360.168 768.389 363.396 764.599 366.441C740.146 386.069 719.801 400.261 700.572 411.102C676.447 424.703 653.76 433.205 631.214 437.091C622.467 438.598 613.753 439.35 605.197 439.35C590.029 439.35 575.353 436.995 561.842 432.33C537.391 423.888 517.223 408.31 501.897 386.03C501.175 384.974 500.455 383.893 499.758 382.815C487.7 364.199 479.24 343.246 471.059 322.982C468.986 317.848 466.844 312.541 464.685 307.38C453.682 280.999 441.956 258.468 428.842 238.497C427.17 235.951 425.439 233.396 423.697 230.903C391.952 185.456 349.182 147.833 300.01 122.105C241.958 91.8495 181.353 79.6791 129.357 87.8353C93.9108 93.5108 59.6822 114.797 42.1588 142.065C29.9773 161.018 26.3238 182.242 31.5895 203.444L31.395 203.495C28.6459 192.424 28.2809 181.378 30.3122 170.663C32.193 160.744 36.1212 151.085 41.9924 141.951C50.8915 128.103 64.1919 115.608 80.458 105.813C95.5671 96.7139 112.922 90.2582 129.327 87.6315C156.647 83.3455 186.166 84.5971 217.06 91.3513C244.938 97.4468 272.876 107.732 300.103 121.919C349.302 147.664 392.097 185.307 423.861 230.782C425.604 233.277 427.334 235.831 429.008 238.38C442.13 258.361 453.863 280.904 464.869 307.295C467.029 312.456 469.172 317.765 471.244 322.899C479.421 343.154 487.877 364.098 499.924 382.697C500.622 383.774 501.34 384.855 502.062 385.909C530.68 427.517 577.742 446.098 631.18 436.885C682.05 428.116 727.106 396.272 764.475 366.276C768.263 363.231 772.211 360.005 776.546 356.413C787.202 347.588 797.681 338.551 808.774 328.98C841.041 301.144 874.41 272.361 911.846 249.614C925.905 241.112 940.334 233.762 954.735 227.768C968.684 221.963 983.061 217.238 997.466 213.728C1024.94 207.036 1052.97 204.454 1083.15 205.838C1109.41 206.958 1140.23 210.241 1169.78 226.094C1196.86 240.694 1220.61 262.803 1243.57 284.181C1248.84 289.097 1254.3 294.18 1259.61 298.979C1317.36 351.219 1376.82 410.233 1436.36 474.379L1436.22 474.523Z" fill="#A1A1A1"/>
<path d="M1434.09 472.584C1374.27 406.824 1317.42 348.762 1260.31 295.078C1254.86 289.956 1249.5 284.725 1243.82 279.188C1221.61 257.54 1198.66 235.156 1172.01 220.975C1142.13 205.146 1109.98 203.829 1085.31 204.451C1026.29 205.743 971.084 222.782 916.531 256.541C883.8 276.894 853.58 301.336 824.354 324.975C808.994 337.398 794.487 349.13 779.693 360.265C775.301 363.573 771.221 366.587 767.222 369.479C742.436 387.381 721.422 400.239 701.085 409.947C676.401 421.73 653.323 428.493 630.532 430.621C618.822 431.715 607.192 431.509 595.965 430.01C584.078 428.423 572.637 425.378 561.959 420.963C538.292 411.174 518.603 394.905 503.437 372.604C502.722 371.546 502.008 370.463 501.314 369.385C489.459 350.96 480.787 330.407 472.399 310.532C470.161 305.229 467.847 299.745 465.519 294.413C454.056 268.09 442.065 245.746 428.86 226.105C427.162 223.581 425.407 221.049 423.645 218.579C391.478 173.549 348.38 136.449 299.012 111.291C253.446 88.167 206.457 76.1017 163.367 76.1017C151.185 76.1017 139.325 77.0651 127.885 79.0146C92.8665 85.0998 58.8524 106.462 41.2268 133.437C28.7866 152.479 24.69 173.848 29.3801 195.23L29.1836 195.275C26.7353 184.118 26.633 172.995 28.8788 162.219C30.9602 152.228 35.0588 142.506 41.0583 133.322C50.0496 119.561 63.2879 107.116 79.3455 97.3319C94.5027 88.095 111.276 81.6907 127.849 78.8128C155.138 74.1604 184.688 75.0477 215.676 81.4458C243.621 87.2139 271.689 97.1919 299.1 111.104C348.496 136.276 391.62 173.397 423.807 218.453C425.572 220.923 427.328 223.457 429.027 225.983C442.237 245.635 454.234 267.989 465.704 294.324C468.032 299.656 470.348 305.14 472.586 310.445C480.969 330.313 489.638 350.857 501.482 369.267C502.176 370.344 502.89 371.427 503.604 372.483C531.963 414.184 578.219 435.297 630.516 430.414C683.435 425.471 731.311 395.16 767.11 369.306C771.108 366.414 775.187 363.4 779.578 360.094C794.371 348.963 808.876 337.23 824.234 324.808C853.464 301.167 883.688 276.719 916.431 256.36C944.517 238.979 972.079 226.313 1000.69 217.634C1028.29 209.264 1055.97 204.883 1085.31 204.241C1102.05 203.819 1115.71 204.551 1128.29 206.544C1144.54 209.117 1158.87 213.776 1172.11 220.788C1198.78 234.981 1221.75 257.377 1243.96 279.035C1249.64 284.573 1255.01 289.802 1260.45 294.923C1317.56 348.609 1374.41 406.676 1434.24 472.44L1434.09 472.584Z" fill="#A1A1A1"/>
<path d="M1431.96 470.644C1372.69 404.164 1316.81 345.41 1261.15 291.018C1255.64 285.637 1250.21 280.093 1244.46 274.224C1222.92 252.234 1200.65 229.493 1174.33 215.667C1144.2 199.913 1112.09 200.543 1087.48 202.851C1031.78 207.892 977.364 227.661 921.113 263.283C893.397 280.918 867.009 301.101 841.489 320.62C821.314 336.05 802.261 350.624 782.714 363.945C778.297 366.959 773.966 369.841 769.845 372.509C745.011 388.574 722.687 400.438 701.598 408.78C676.347 418.768 652.878 423.795 629.851 424.145C618.134 424.322 606.55 423.235 595.428 420.911C583.767 418.473 572.546 414.663 562.075 409.582C539.22 398.493 520.008 381.532 504.975 359.17C504.27 358.113 503.56 357.029 502.868 355.944C491.236 337.744 482.375 317.625 473.805 298.169C471.38 292.665 468.872 286.971 466.351 281.435C454.419 255.161 442.161 233.007 428.878 213.701C427.156 211.2 425.377 208.691 423.591 206.243C391 161.631 347.574 125.054 298.01 100.467C239.169 71.3994 178.226 60.6453 126.409 70.1848C91.8439 76.6591 58.0565 98.0766 40.3326 124.746C27.6116 143.888 23.0599 165.417 27.1665 187.008L26.97 187.047C24.8284 175.792 24.9929 164.583 27.4613 153.733C29.7532 143.66 34.0263 133.867 40.1661 124.628C49.2457 110.965 62.4177 98.583 78.2588 88.8192C93.2415 79.5843 109.879 73.0709 126.373 69.981C153.632 64.9642 183.212 65.483 214.293 71.527C242.305 76.974 270.5 86.6473 298.096 100.279C347.69 124.879 391.141 161.479 423.749 206.118C425.538 208.565 427.318 211.077 429.041 213.58C442.331 232.896 454.593 255.061 466.532 281.345C469.054 286.88 471.561 292.574 473.987 298.081C482.553 317.528 491.41 337.639 503.034 355.826C503.726 356.909 504.436 357.994 505.14 359.048C533.798 401.677 578.087 424.725 629.847 423.935C671.845 423.297 716.297 406.898 769.737 372.33C773.856 369.662 778.185 366.782 782.602 363.768C802.143 350.449 821.196 335.879 841.366 320.45C866.89 300.928 893.283 280.741 921.006 263.101C949.368 245.14 976.486 231.545 1003.91 221.534C1031.7 211.394 1059.02 205.212 1087.46 202.639C1112.1 200.327 1144.25 199.699 1174.42 215.478C1200.77 229.32 1223.05 252.071 1244.6 274.072C1250.35 279.941 1255.78 285.482 1261.29 290.861C1316.95 345.256 1372.83 404.014 1432.11 470.498L1431.96 470.644Z" fill="#A1A1A1"/>
<path d="M1429.84 468.705C1371.11 401.502 1316.21 342.052 1261.99 286.96C1256.48 281.367 1251.04 275.556 1245.29 269.403C1224.36 247.02 1202.72 223.875 1176.66 210.362C1146.25 194.666 1114.18 197.249 1089.65 201.253C1037.25 209.642 985.15 231.496 925.697 270.029C903.399 284.546 881.608 300.471 860.536 315.871C834.942 334.576 810.767 352.244 785.736 367.632C781.227 370.407 776.763 373.071 772.47 375.546C747.19 390.108 724.177 400.599 702.114 407.614C689.756 411.544 677.556 414.391 665.854 416.077C653.372 417.874 641.03 418.412 629.171 417.675C605.111 416.178 582.576 409.628 562.195 398.207C540.184 385.871 521.452 368.221 506.519 345.741C505.817 344.677 505.114 343.59 504.426 342.511C493.042 324.579 484.023 304.938 475.302 285.946C472.662 280.196 469.933 274.251 467.187 268.466C454.773 242.236 442.249 220.268 428.898 201.307C427.152 198.826 425.347 196.339 423.538 193.916C390.525 149.72 346.772 113.666 297.011 89.6529C237.778 61.1806 176.667 51.1346 124.937 61.3638C69.548 72.4863 15.5743 120.544 24.9586 178.792L24.7601 178.825C22.412 164.254 23.7876 149.9 28.8467 136.156C33.4666 123.605 41.0482 111.793 51.381 101.051C60.9879 91.063 72.5137 82.4396 85.6357 75.4198C98.116 68.7438 111.693 63.8114 124.897 61.16C152.124 55.7768 181.736 55.9312 212.911 61.6211C240.992 66.7449 269.315 76.1136 297.095 89.4676C346.884 113.498 390.663 149.572 423.697 193.793C425.508 196.218 427.312 198.705 429.061 201.187C442.417 220.157 454.948 242.137 467.368 268.378C470.113 274.162 472.842 280.107 475.483 285.859C484.202 304.845 493.217 324.478 504.594 342.4C505.28 343.479 505.982 344.566 506.684 345.628C535.384 388.83 578.889 414.342 629.183 417.471C671.761 420.116 718.598 406.346 772.372 375.369C776.663 372.894 781.124 370.232 785.634 367.457C810.659 352.074 834.829 334.407 860.42 315.705C881.494 300.302 903.286 284.375 925.588 269.856C985.066 231.306 1037.19 209.444 1089.61 201.049C1106.1 198.359 1119.75 197.498 1132.57 198.344C1148.97 199.425 1163.41 203.295 1176.75 210.177C1202.84 223.704 1224.49 246.863 1245.43 269.259C1251.19 275.41 1256.62 281.221 1262.12 286.812C1316.35 341.908 1371.26 401.36 1429.98 468.567L1429.84 468.705Z" fill="#A1A1A1"/>
<path d="M1427.71 466.766C1369.55 398.831 1315.61 338.689 1262.82 282.901C1257.36 277.129 1251.96 271.083 1246.25 264.679C1225.88 241.867 1204.83 218.278 1178.98 205.056C1147.91 189.227 1114.35 194.392 1091.81 199.654C1030.65 213.759 975.833 246.553 930.281 276.775C913.908 287.681 897.578 299.234 881.783 310.406C850.099 332.818 820.174 353.986 788.76 371.32C784.14 373.87 779.544 376.314 775.097 378.584C749.324 391.716 725.621 400.832 702.633 406.447C676.574 412.815 651.631 414.416 628.493 411.205C604.724 407.905 582.458 399.703 562.318 386.827C541.193 373.323 522.94 354.983 508.061 332.316C507.368 331.251 506.668 330.162 505.984 329.079C494.883 311.476 485.752 292.375 476.919 273.901C474.025 267.847 471.032 261.589 468.024 255.497C454.94 228.937 442.514 207.781 428.921 188.912C427.15 186.454 425.323 183.992 423.489 181.59C390.048 137.814 345.966 102.283 296.008 78.8373C236.382 50.962 175.103 41.6221 123.462 52.5409C67.8739 64.4498 15.003 111.855 22.747 170.576L22.5485 170.603C20.6275 156.034 22.2898 141.694 27.4873 127.982C32.2516 115.418 39.8774 103.594 50.156 92.8398C59.7408 82.8104 71.2065 74.1231 84.2362 67.0148C96.6423 60.2462 110.193 55.1718 123.422 52.3371C150.618 46.5875 180.261 46.3775 211.528 51.7113C239.677 56.5119 268.128 65.5759 296.093 78.65C346.08 102.108 390.186 137.659 423.643 181.462C425.478 183.867 427.306 186.331 429.079 188.789C442.68 207.666 455.11 228.834 468.2 255.405C471.208 261.496 474.202 267.756 477.095 273.81C485.926 292.278 495.056 311.374 506.149 328.968C506.832 330.051 507.53 331.138 508.224 332.202C537.147 376.264 579.867 404.249 628.517 411.001C672.15 417.057 720.066 406.392 775.007 378.399C779.452 376.131 784.048 373.689 788.664 371.138C820.069 353.809 849.991 332.645 881.669 310.235C897.464 299.063 913.796 287.508 930.17 276.6C960.802 256.279 986.284 241.266 1010.36 229.353C1038.7 215.33 1065.33 205.55 1091.77 199.452C1107.89 195.689 1121.93 193.985 1134.72 194.244C1151.18 194.577 1165.68 198.052 1179.07 204.87C1204.95 218.109 1226.02 241.713 1246.39 264.539C1252.11 270.941 1257.5 276.987 1262.96 282.755C1315.75 338.545 1369.69 398.691 1427.86 466.628L1427.71 466.766Z" fill="#A1A1A1"/>
<path d="M1425.59 464.824C1367.98 396.154 1315.01 335.319 1263.66 278.839C1258.27 272.917 1252.94 266.661 1247.3 260.036C1227.47 236.766 1206.97 212.703 1181.3 199.748C1149.89 183.957 1116.42 191.217 1093.98 198.054C1038.56 214.792 989.133 246.663 934.864 283.518C925.077 290.19 915.178 297.076 905.603 303.738C868.779 329.355 830.705 355.843 791.782 375.004C787.054 377.334 782.322 379.56 777.72 381.618C751.772 393.212 726.683 401.171 703.149 405.274C676.488 409.922 651.142 409.739 627.81 404.732C604.373 399.703 582.378 389.849 562.434 375.443C542.252 360.864 524.474 341.836 509.595 318.889C508.908 317.823 508.214 316.732 507.534 315.649C496.768 298.458 487.578 279.978 478.691 262.107C475.489 255.668 472.179 249.01 468.852 242.532C455.257 215.999 442.572 195.024 428.933 176.521C427.142 174.092 425.289 171.65 423.428 169.267C389.571 125.902 345.164 90.8941 295.006 68.0212C234.989 40.7428 173.543 32.1111 121.986 43.7174C68.1626 55.9661 14.3152 101.708 20.5333 162.358L20.3348 162.379C18.8409 147.81 20.79 133.486 26.1258 119.805C31.0325 107.227 38.7043 95.3921 48.9268 84.6257C67.7876 64.7645 94.4006 49.78 121.942 43.5137C149.106 37.3996 178.781 36.8232 210.142 41.8009C238.359 46.2804 266.937 55.0376 295.086 67.8318C345.272 90.7171 389.705 125.748 423.585 169.133C425.448 171.519 427.3 173.96 429.093 176.391C442.738 194.904 455.429 215.888 469.028 242.431C472.355 248.911 475.668 255.569 478.87 262.008C487.755 279.875 496.943 298.35 507.703 315.534C508.38 316.616 509.074 317.705 509.762 318.772C539.529 364.682 580.363 394.336 627.848 404.528C671.817 413.965 722.212 406.194 777.635 381.429C782.235 379.37 786.964 377.147 791.69 374.819C830.599 355.664 868.669 329.18 905.484 303.567C915.059 296.905 924.959 290.019 934.748 283.347C958.504 267.214 986.145 248.71 1013.58 233.26C1042.27 217.1 1068.55 205.52 1093.92 197.858C1109.89 192.994 1123.94 190.47 1136.86 190.145C1153.16 189.733 1168.13 192.903 1181.39 199.565C1192.89 205.368 1204.46 214.029 1216.77 226.043C1227.64 236.65 1237.71 248.471 1247.45 259.9C1253.09 266.523 1258.42 272.779 1263.8 278.699C1315.16 335.181 1368.13 396.018 1425.74 464.691L1425.59 464.824Z" fill="#A1A1A1"/>
<path d="M1423.46 462.885C1366.42 393.474 1314.42 331.945 1264.49 274.782C1259.2 268.73 1253.97 262.284 1248.42 255.462C1229.11 231.708 1209.15 207.145 1183.63 194.445C1159.77 182.615 1131.16 183.273 1096.15 196.459C1047.2 214.79 1003.44 245.453 957.114 277.919C951.345 281.962 945.382 286.141 939.447 290.269C937.122 291.889 934.797 293.513 932.472 295.135C888.33 325.95 842.686 357.815 794.804 378.693C789.964 380.805 785.099 382.812 780.345 384.657C753.828 394.935 728.031 401.478 703.672 404.1C676.396 407.036 650.643 405.072 627.134 398.262C604.062 391.578 582.338 380.07 562.565 364.059C543.399 348.539 526.098 328.826 511.142 305.463C510.46 304.395 509.772 303.301 509.096 302.217C498.74 285.565 489.58 267.83 480.719 250.68C477.132 243.734 473.42 236.552 469.692 229.561C455.572 203.046 442.63 182.252 428.959 164.124C427.142 161.716 425.267 159.299 423.383 156.938C389.096 113.994 344.36 79.5061 294.006 57.2054C233.599 30.5261 171.984 22.6005 120.512 34.8944C67.6776 47.6186 13.9064 93.7351 18.3238 154.142L18.1233 154.159C17.0586 139.588 19.2923 125.281 24.7665 111.635C29.8176 99.0421 37.5336 87.1929 47.7019 76.4182C66.4825 56.5158 93.0032 41.309 120.466 34.6948C147.601 28.2143 177.305 27.2715 208.759 31.8951C237.044 36.0493 265.752 44.5019 294.086 57.016C344.468 79.3311 389.232 113.837 423.533 156.804C425.418 159.165 427.297 161.586 429.113 163.995C442.791 182.133 455.74 202.933 469.865 229.458C473.594 236.449 477.304 243.633 480.893 250.579C489.75 267.725 498.91 285.456 509.263 302.101C509.939 303.186 510.624 304.277 511.306 305.346C541.719 352.85 581.789 384.908 627.186 398.058C672 411.04 723.506 406.464 780.273 384.459C785.023 382.615 789.885 380.61 794.724 378.5C842.59 357.63 888.226 325.771 932.358 294.96C934.684 293.336 937.008 291.714 939.332 290.094C945.268 285.966 951.231 281.787 957 277.746C1003.34 245.274 1047.11 214.603 1096.08 196.263C1111.9 190.306 1125.94 186.964 1139.01 186.044C1155.36 184.894 1170.4 187.658 1183.71 194.258C1195.14 199.946 1206.57 208.646 1218.66 220.855C1229.31 231.628 1239.11 243.677 1248.58 255.328C1254.12 262.148 1259.36 268.592 1264.64 274.642C1314.57 331.807 1366.57 393.338 1423.61 462.752L1423.46 462.885Z" fill="#A1A1A1"/>
<path d="M1419.52 481.415C1367.46 416.734 1314.97 352.732 1263.51 291.191C1258.27 284.962 1253.08 278.269 1247.59 271.185C1229.71 248.142 1209.45 222.024 1184.13 209.609C1160 197.799 1131.34 199.67 1096.5 215.328C1055.08 233.884 1018.42 261.168 979.61 290.054C967.456 299.1 954.888 308.456 942.211 317.481C920.084 333.268 896.148 349.974 871.057 365.189C844.185 381.485 819.636 393.801 796.004 402.847C791.04 404.747 786.043 406.536 781.148 408.16C754.07 417.141 727.571 422.253 702.388 423.352C674.51 424.567 648.35 420.837 624.633 412.256C580.835 396.216 542.556 362.655 510.86 312.503C510.184 311.433 509.503 310.338 508.831 309.253C498.999 293.336 490 276.544 481.298 260.304C477.201 252.66 472.966 244.755 468.705 237.062C454.047 210.554 440.845 189.943 427.157 172.2C425.315 169.812 423.416 167.418 421.509 165.082C386.805 122.551 341.74 88.5886 291.189 66.8581C230.392 40.7758 168.61 33.5604 117.223 46.5399C64.0674 60.0421 11.6437 105.547 14.2965 166.395L14.096 166.403C13.4604 151.828 15.9829 137.538 21.5914 123.926C26.7889 111.317 34.549 99.4559 44.6591 88.673C54.1838 78.5139 65.473 69.631 78.212 62.2695C90.58 55.1242 103.688 49.7636 117.173 46.3381C144.277 39.4933 174.014 38.184 205.56 42.4515C233.913 46.2866 262.748 54.4325 291.266 66.6667C341.847 88.4095 386.937 122.393 421.661 164.944C423.568 167.282 425.471 169.678 427.314 172.066C441.007 189.82 454.215 210.439 468.879 236.955C473.14 244.65 477.375 252.555 481.472 260.201C490.175 276.439 499.172 293.229 508.999 309.14C509.669 310.227 510.353 311.32 511.027 312.39C542.699 362.502 580.944 396.037 624.699 412.061C669.77 428.365 723.848 426.949 781.086 407.962C785.976 406.338 790.973 404.551 795.934 402.653C848.769 382.432 897.11 349.406 942.095 317.31C954.771 308.285 967.338 298.931 979.491 289.886C1018.31 260.993 1054.97 233.703 1096.42 215.138C1131.31 199.456 1160.03 197.585 1184.22 209.422C1195.55 214.982 1206.81 223.698 1218.63 236.064C1229.06 246.968 1238.55 259.215 1247.74 271.056C1253.24 278.139 1258.43 284.83 1263.67 291.055C1315.12 352.598 1367.61 416.6 1419.67 481.283L1419.52 481.415Z" fill="#A1A1A1"/>
<path d="M1419.21 459.007C1367.94 393.968 1316.45 329.254 1266.16 266.663C1261.09 260.365 1256.05 253.556 1250.72 246.346C1233.29 222.765 1213.52 196.037 1188.27 183.831C1163.85 172.042 1135.14 175.125 1100.48 193.255C1064.17 212.223 1030.82 239.006 998.556 264.909C982.38 277.896 965.652 291.327 948.608 303.754C921.707 323.389 899.072 338.367 877.374 350.894C850.619 366.34 825.584 377.843 800.842 386.061C795.763 387.749 790.629 389.318 785.586 390.724C759.31 398.046 733.507 401.751 708.823 401.753C707.452 401.753 706.088 401.741 704.725 401.718C676.187 401.241 649.622 395.72 625.768 385.311C614.255 380.26 602.979 373.847 592.258 366.251C582.18 359.112 572.276 350.703 562.822 341.258C545.812 324.266 529.91 303.771 514.214 278.605C513.54 277.522 512.868 276.437 512.2 275.348C503.093 260.499 494.477 244.977 486.145 229.966C481.335 221.302 476.362 212.341 471.353 203.618C455.931 176.746 442.867 156.917 428.989 139.331C427.122 136.965 425.199 134.594 423.268 132.28C388.143 90.1716 342.752 56.7319 292.004 35.5716C230.818 10.0884 168.868 3.58118 117.565 17.2461C65.4058 31.1786 13.0502 77.0296 13.9024 137.706L13.7019 137.709C13.3049 109.446 24.2151 82.5713 45.2516 59.9906C54.7602 49.7841 65.9893 40.8375 78.63 33.3937C90.9299 26.1515 104.012 20.651 117.515 17.0443C144.587 9.83311 174.356 8.15948 205.994 12.0708C234.415 15.5848 263.378 23.426 292.079 35.3781C342.858 56.5528 388.276 90.0131 423.423 132.146C425.354 134.462 427.281 136.836 429.147 139.201C443.031 156.798 456.101 176.632 471.527 203.515C476.536 212.24 481.511 221.201 486.319 229.865C494.651 244.875 503.265 260.394 512.371 275.239C513.039 276.328 513.708 277.413 514.382 278.493C547.736 331.971 584.197 366.85 625.847 385.122C683.534 410.294 744.526 401.955 785.534 390.526C790.573 389.12 795.702 387.553 800.78 385.865C857.685 366.963 909.611 331.965 948.492 303.588C965.534 291.164 982.259 277.734 998.433 264.748C1030.7 238.841 1064.07 212.05 1100.39 193.074C1115.9 184.961 1129.93 179.98 1143.29 177.847C1159.77 175.216 1174.93 177.168 1188.35 183.648C1199.66 189.114 1210.81 197.9 1222.44 210.506C1232.68 221.615 1241.94 234.125 1250.88 246.225C1256.21 253.432 1261.25 260.24 1266.32 266.533C1316.61 329.124 1368.1 393.838 1419.37 458.877L1419.21 459.007Z" fill="#A1A1A1"/>
<path d="M1417.08 457.068L1267 262.605C1262.1 256.255 1257.23 249.344 1252.08 242.03C1235.07 217.891 1215.8 190.532 1190.6 178.529C1166.22 166.922 1136.64 171.34 1102.65 191.66C1069.98 211.194 1040.18 237.172 1011.36 262.295C992.575 278.671 973.15 295.603 953.193 310.505C893.207 355.295 840.784 381.75 788.214 393.762C766.405 398.744 744.891 401.251 724.027 401.251C717.703 401.251 711.443 401.021 705.249 400.56C676.037 398.386 649.067 391.078 625.091 378.842C602.87 367.499 582.541 351.487 562.95 329.888C547.306 312.641 532.309 292.08 515.756 265.181C507.02 250.985 498.56 236.235 490.378 221.971C471.862 189.692 452.717 156.314 429.014 126.938C392.655 81.8819 344.932 46.5483 291.002 24.756C229.429 -0.126135 167.31 -5.92724 116.091 8.42319C66.503 22.3166 12.6816 66.1275 11.6911 129.491L11.4905 129.487C11.9337 101.165 23.1848 74.2939 44.0268 51.7791C62.8716 31.4217 88.4458 15.9535 116.039 8.2235C143.081 0.647896 172.882 -1.39217 204.611 2.16302C233.1 5.35383 262.192 12.8924 291.076 24.5646C317.762 35.3475 343.105 49.5414 366.405 66.7533C389.9 84.1093 411.017 104.312 429.166 126.802C452.879 156.189 472.031 189.575 490.551 221.862C498.732 236.124 507.192 250.871 515.927 265.065C540.077 304.314 574.322 352.693 625.181 378.652C683.508 408.421 746.008 403.189 788.169 393.556C840.713 381.553 893.113 355.108 953.074 310.334C973.024 295.438 992.446 278.506 1011.23 262.134C1040.05 237.007 1069.86 211.023 1102.55 191.479C1136.59 171.124 1166.25 166.702 1190.68 178.339C1201.96 183.714 1213.01 192.576 1224.45 205.436C1234.52 216.757 1243.53 229.542 1252.24 241.906C1257.39 249.22 1262.26 256.127 1267.16 262.476L1417.24 456.938L1417.08 457.068Z" fill="#A1A1A1"/>
<path d="M1415.87 442.119C1377.66 387.974 1344.87 344.037 1312.68 303.851C1297.06 284.33 1281.1 265.115 1265.26 246.74C1260.47 241.182 1255.72 235.27 1250.69 229.009C1238.06 213.276 1225 197.007 1209.96 184.933C1201.89 178.438 1194.12 173.788 1186.21 170.716C1161.92 161.195 1133.42 167.491 1101.51 189.429C1084.99 200.766 1069.95 213.667 1057.42 224.791C1044.15 236.569 1031.07 249.556 1018.41 262.116C1000.21 280.169 981.401 298.837 961.176 314.869C948.87 324.654 936.396 333.396 924.098 340.857C899.495 355.781 873.086 368.079 845.607 377.409C828.629 383.109 811.569 387.418 794.904 390.213C780.541 392.614 766.151 393.999 752.133 394.331C731.153 394.829 710.712 392.929 691.378 388.678C670.821 384.157 651.366 376.942 633.556 367.229C617.675 358.569 602.674 347.664 587.697 333.89C559.789 308.245 537.529 278.591 521.255 255.621C513.261 244.284 505.454 232.723 497.905 221.543C476.167 189.345 455.633 158.933 429.939 131.844C408.983 109.895 385.073 90.9543 358.867 75.5437C338.729 63.7006 316.826 54.015 293.768 46.7543C288.276 45.0272 282.68 43.4174 277.139 41.9743C253.286 35.7718 226.432 31.7328 197.327 29.9686C167.983 28.1488 142.595 29.7236 119.718 34.7878C106.784 37.6286 94.2538 42.0855 82.4693 48.0327C40.8656 69.0303 14.1504 104.28 11.0063 142.326L10.7556 142.304C11.5938 132.161 14.0542 122.171 18.0666 112.607C21.8784 103.522 27.114 94.7606 33.6268 86.5654C45.9327 71.0848 62.7843 57.6793 82.359 47.8001C94.1616 41.8425 106.712 37.3795 119.666 34.5345C142.567 29.4663 167.975 27.8894 197.343 29.7113C226.464 31.4755 253.332 35.5186 277.201 41.7252C282.748 43.1703 288.346 44.7801 293.843 46.5094C316.918 53.7741 338.839 63.468 358.993 75.3214C385.217 90.7423 409.147 109.7 430.113 131.663C455.824 158.768 476.361 189.188 498.107 221.395C505.655 232.575 513.461 244.134 521.454 255.468C537.72 278.428 559.97 308.067 587.862 333.697C602.823 347.457 617.807 358.351 633.67 367.001C668.527 386.008 708.38 395.117 752.125 394.073C766.131 393.742 780.511 392.356 794.862 389.958C811.515 387.163 828.563 382.858 845.527 377.162C872.99 367.839 899.382 355.549 923.97 340.632C936.26 333.178 948.726 324.439 961.022 314.663C981.234 298.639 1000.04 279.976 1018.23 261.928C1030.89 249.367 1043.98 236.375 1057.26 224.594C1069.79 213.463 1084.84 200.558 1101.37 189.213C1115.58 179.445 1129.34 172.697 1142.26 169.154C1158.14 164.802 1172.96 165.247 1186.3 170.476C1194.23 173.557 1202.03 178.22 1210.12 184.729C1225.17 196.821 1238.24 213.101 1250.89 228.845C1255.91 235.103 1260.66 241.015 1265.45 246.569C1281.3 264.946 1297.25 284.163 1312.88 303.689C1345.06 343.879 1377.86 387.819 1416.08 441.968L1415.87 442.119Z" fill="#A1A1A1"/>
<path d="M1414.66 427.165C1379.23 372.104 1345.97 326.029 1313 286.308C1296.91 266.906 1280.27 248.255 1263.52 230.874C1259.08 226.263 1254.69 221.471 1250.05 216.398C1236.14 201.208 1221.76 185.501 1205.65 174.634C1197.52 169.123 1189.73 165.286 1181.82 162.902C1151.57 153.77 1120.83 171.07 1100.37 187.191C1085.88 198.579 1072.64 211.456 1059.23 224.748C1047.49 236.383 1036.45 248.899 1024.76 262.148C1007.41 281.816 989.466 302.153 969.161 319.229C957.112 329.417 944.537 338.226 931.786 345.41C908.035 358.795 882.025 369.189 852.272 377.189C835.621 381.664 818.569 384.853 801.589 386.662C787.262 388.171 772.961 388.711 759.081 388.26C738.432 387.597 718.247 384.616 699.086 379.402C678.962 373.924 659.76 365.92 642.016 355.613C626.47 346.584 611.459 335.381 596.125 321.366C568.277 295.948 544.421 267.77 526.752 246.061C520.211 238.024 513.774 229.938 507.548 222.115C482.754 190.965 459.335 161.539 430.865 136.75C409.588 118.222 385.701 102.556 359.87 90.1883C340.325 80.83 319.609 73.8184 296.542 68.7522C291.218 67.585 285.802 66.5331 280.446 65.6252C256.921 61.6583 231.814 60.1576 201.437 58.6055C179.541 57.43 150.877 56.656 123.339 61.1478C110.297 63.2352 97.6908 66.8604 85.8662 71.9184C44.2344 89.7313 15.9933 120.849 10.3186 155.162L10.0219 155.11C11.5257 146.011 14.5736 137.087 19.0753 128.583C23.3664 120.48 29.005 112.711 35.8327 105.486C48.8083 91.759 66.069 80.0518 85.7499 71.6322C97.5966 66.564 110.227 62.9326 123.291 60.8411C150.854 56.3431 179.541 57.1192 201.451 58.2946C231.838 59.8468 256.953 61.3475 280.494 65.3165C285.854 66.2264 291.274 67.2783 296.604 68.4455C319.694 73.5179 340.429 80.5356 359.996 89.9042C385.853 102.285 409.761 117.963 431.06 136.509C459.55 161.317 482.978 190.75 507.781 221.913C514.005 229.734 520.441 237.82 526.982 245.855C544.648 267.556 568.494 295.724 596.326 321.129C611.641 335.13 626.636 346.32 642.164 355.339C677.055 375.606 716.397 386.576 759.091 387.947C772.959 388.396 787.246 387.858 801.559 386.349C818.523 384.542 835.561 381.357 852.196 376.884C881.925 368.892 907.912 358.507 931.644 345.134C944.379 337.958 956.937 329.162 968.973 318.984C989.259 301.922 1007.19 281.594 1024.54 261.936C1036.23 248.681 1047.28 236.163 1059.02 224.522C1072.44 211.221 1085.68 198.34 1100.19 186.94C1113.45 176.489 1126.53 168.971 1139.07 164.59C1154.28 159.279 1168.69 158.61 1181.91 162.599C1189.84 164.993 1197.66 168.843 1205.82 174.37C1221.96 185.258 1236.35 200.98 1250.27 216.182C1254.91 221.253 1259.3 226.043 1263.74 230.652C1280.49 248.039 1297.14 266.696 1313.23 286.104C1346.21 325.835 1379.48 371.919 1414.92 426.992L1414.66 427.165Z" fill="#A1A1A1"/>
<path d="M1413.45 412.211C1380.29 355.487 1347.53 308.565 1313.31 268.767C1296.76 249.484 1279.42 231.399 1261.78 215.011C1258.01 211.507 1254.13 207.789 1250.38 204.195C1234.88 189.344 1218.85 173.989 1201.34 164.336C1193.13 159.775 1185.31 156.748 1177.44 155.087C1147.25 148.708 1118.25 167.807 1099.23 184.951C1086.35 196.524 1074.57 209.642 1063.17 222.329L1061.04 224.704C1050.69 236.214 1040.99 248.837 1030.72 262.204C1014.36 283.488 997.441 305.494 977.146 323.589C965.337 334.195 952.663 343.069 939.472 349.966C916.475 361.99 890.881 370.57 858.932 376.968C842.411 380.276 825.367 382.343 808.271 383.109C793.98 383.724 779.767 383.416 766.023 382.187C724.416 378.483 685.539 365.633 650.472 343.996C635.313 334.641 620.292 323.144 604.553 308.841C577.919 284.688 554.229 259.861 532.25 236.502C529.303 233.371 526.387 230.261 523.494 227.175C493.474 195.166 465.12 164.931 431.798 141.661C410.044 126.469 386.18 114.08 360.873 104.837C342.292 98.0518 322.156 93.4447 299.317 90.7521C294.17 90.1489 288.934 89.6528 283.755 89.2781C270.725 88.3518 256.905 88.2015 242.274 88.043C230.521 87.9153 218.37 87.7836 205.546 87.2463C180.78 86.1202 152.712 84.846 126.957 87.5139C113.669 88.8911 100.986 91.6826 89.2594 95.8121C47.6436 110.469 17.8745 137.459 9.6272 168.011L9.28833 167.914C11.462 159.859 15.0954 152.001 20.0863 144.559C24.8586 137.443 30.8983 130.662 38.0368 124.406C51.6901 112.441 69.3639 102.437 89.1431 95.4704C100.895 91.3305 113.604 88.5329 126.919 87.1537C152.7 84.4837 180.782 85.76 205.558 86.886C218.374 87.4213 230.525 87.5551 242.274 87.6827C256.911 87.8412 270.735 87.9915 283.777 88.9199C288.96 89.2967 294.202 89.7928 299.353 90.3959C322.22 93.0906 342.381 97.7039 360.987 104.499C386.324 113.753 410.214 126.156 431.993 141.365C465.345 164.655 493.712 194.904 523.744 226.928C526.638 230.014 529.555 233.122 532.501 236.255C554.476 259.61 578.157 284.43 604.784 308.576C620.507 322.862 635.512 334.349 650.653 343.691C685.673 365.302 724.5 378.133 766.054 381.832C779.781 383.059 793.98 383.368 808.255 382.753C825.333 381.987 842.361 379.922 858.864 376.618C890.78 370.226 916.345 361.656 939.312 349.649C952.474 342.767 965.125 333.909 976.913 323.321C997.182 305.249 1014.09 283.255 1030.44 261.983C1040.72 248.611 1050.43 235.981 1060.78 224.464L1062.91 222.088C1074.31 209.395 1086.1 196.269 1099 184.683C1118.07 167.484 1147.18 148.329 1177.51 154.737C1185.42 156.407 1193.26 159.443 1201.51 164.023C1219.05 173.697 1235.1 189.068 1250.61 203.935C1254.37 207.53 1258.25 211.247 1262.02 214.749C1279.67 231.146 1297.01 249.241 1313.57 268.534C1347.81 308.349 1380.58 355.287 1413.75 412.03L1413.45 412.211Z" fill="#A1A1A1"/>
<path d="M1412.24 397.255C1381.8 339.675 1348.62 290.542 1313.62 251.227C1296.61 232.066 1278.59 214.545 1260.05 199.151C1257.37 196.928 1254.63 194.62 1251.98 192.389C1234.46 177.647 1216.34 162.401 1197.05 154.043C1188.76 150.418 1180.92 148.205 1173.07 147.275C1142.96 143.709 1115.68 164.577 1098.1 182.711C1087.18 193.914 1077.33 206.373 1067.8 218.422C1066.15 220.507 1064.5 222.588 1062.85 224.661C1053.78 236.049 1045.31 248.771 1036.34 262.239C1021.08 285.134 1005.3 308.808 985.133 327.953C973.286 339.195 960.866 347.886 947.158 354.527C918.488 368.417 889.836 373.557 865.591 376.756C849.193 378.918 832.157 379.864 814.952 379.564C800.705 379.286 786.579 378.127 772.967 376.122C732.609 370.191 694.242 355.476 658.932 332.385C644.24 322.78 629.211 310.984 612.983 296.325C596.591 281.552 581.315 267.338 566.541 253.591C556.501 244.247 547.016 235.422 537.754 226.955C502.744 194.948 470.675 166.807 432.738 146.579C410.517 134.732 386.677 125.616 361.881 119.488C344.109 115.095 325.112 112.956 302.098 112.752C297.133 112.715 292.076 112.775 287.069 112.931C279.464 113.185 271.595 113.714 263.268 114.276C247.286 115.352 229.169 116.573 209.655 115.89C202.224 115.628 194.642 115.26 187.309 114.901C168.448 113.981 148.946 113.03 130.572 113.88C117.079 114.506 104.318 116.466 92.648 119.706C51.1024 131.245 19.8074 154.109 8.93126 180.869L8.5603 180.71C11.4077 173.703 15.6266 166.914 21.0988 160.53C26.3544 154.4 32.795 148.609 40.2383 143.32C54.5814 133.13 72.6663 124.828 92.5397 119.309C104.238 116.06 117.027 114.094 130.55 113.469C148.944 112.616 168.454 113.57 187.325 114.49C194.656 114.848 202.238 115.216 209.667 115.478C229.163 116.161 247.266 114.943 263.24 113.866C271.571 113.304 279.442 112.775 287.055 112.522C292.068 112.365 297.129 112.306 302.1 112.343C325.146 112.544 344.171 114.689 361.973 119.089C386.8 125.225 410.671 134.351 432.921 146.215C450.057 155.351 467.422 166.926 486.008 181.6C502.648 194.736 518.833 209.109 538.019 226.648C547.281 235.117 556.766 243.942 566.808 253.286C581.58 267.031 596.855 281.246 613.244 296.016C629.456 310.661 644.469 322.444 659.143 332.039C694.404 355.1 732.717 369.794 773.019 375.716C786.615 377.719 800.723 378.876 814.954 379.154C832.139 379.455 849.157 378.51 865.535 376.348C889.75 373.156 918.364 368.021 946.984 354.157C960.653 347.534 973.041 338.866 984.856 327.652C1004.99 308.541 1020.76 284.885 1036 262.008C1044.98 248.533 1053.46 235.804 1062.54 224.404C1064.19 222.331 1065.83 220.25 1067.48 218.166C1077.02 206.109 1086.88 193.642 1097.81 182.425C1109.25 170.627 1120.99 161.551 1132.69 155.449C1146.56 148.222 1160.16 145.336 1173.11 146.871C1181 147.806 1188.88 150.029 1197.2 153.669C1216.54 162.049 1234.68 177.314 1252.22 192.074C1254.88 194.305 1257.62 196.613 1260.29 198.834C1278.84 214.241 1296.88 231.778 1313.91 250.954C1332.49 271.83 1350.69 295.615 1367.99 321.648C1383.29 344.656 1398.29 370.031 1412.58 397.062L1412.24 397.255Z" fill="#A1A1A1"/>
<path d="M1411.03 382.296C1382.85 323.064 1350.19 273.065 1313.94 233.686C1296.46 214.646 1277.75 197.692 1258.32 183.29C1257.4 182.604 1256.47 181.919 1255.55 181.231C1235.34 166.237 1214.45 150.731 1192.76 143.751C1184.35 141.046 1176.48 139.644 1168.71 139.463C1138.72 138.767 1113.15 161.378 1096.97 180.468C1087.46 191.636 1079.01 203.876 1070.84 215.713C1068.82 218.64 1066.73 221.666 1064.67 224.614C1056.82 235.842 1049.52 248.607 1041.79 262.124C1027.73 286.709 1013.19 312.131 993.126 332.313C981.516 343.99 968.995 352.747 954.849 359.087C926.979 371.577 898.679 374.856 872.251 376.54C855.955 377.578 838.925 377.401 821.634 376.015C807.433 374.842 793.397 372.835 779.912 370.051C740.927 362.023 703.069 345.443 667.395 320.771C653.108 310.892 638.498 299.145 621.42 283.805C588.961 254.729 564.859 234.25 543.271 217.405C500.334 183.901 467.563 164.19 433.697 151.497C411.025 142.999 387.209 137.159 362.908 134.137C346.049 132.041 328.156 132.229 304.896 134.751C300.13 135.273 295.253 135.889 290.401 136.583C285.817 137.248 281.161 138.009 276.23 138.814C258.025 141.789 237.389 145.161 213.772 144.531C201.324 144.199 188.609 143.292 176.313 142.415C162.339 141.418 147.89 140.387 134.19 140.247C120.454 140.107 107.615 141.235 96.0393 143.602C54.6321 152.065 21.8071 170.809 8.23394 193.739L7.84894 193.499C11.3741 187.541 16.1785 181.82 22.1279 176.495C27.8708 171.352 34.7085 166.554 42.4525 162.229C57.4955 153.825 75.9954 147.226 95.951 143.148C107.559 140.776 120.426 139.644 134.194 139.784C147.906 139.924 162.363 140.955 176.343 141.954C188.635 142.831 201.344 143.738 213.782 144.07C237.357 144.698 257.971 141.33 276.156 138.359C281.088 137.552 285.748 136.793 290.334 136.126C295.193 135.432 300.074 134.816 304.844 134.291C328.14 131.768 346.063 131.578 362.958 133.68C387.293 136.706 411.143 142.555 433.848 151.065C467.76 163.775 500.565 183.506 543.54 217.039C565.136 233.89 589.246 254.375 621.712 283.459C638.779 298.787 653.372 310.521 667.643 320.39C703.269 345.027 741.071 361.584 779.998 369.601C793.465 372.38 807.485 374.383 821.666 375.556C838.937 376.939 855.945 377.116 872.221 376.081C898.609 374.399 926.86 371.128 954.666 358.667C968.761 352.352 981.237 343.623 992.807 331.988C1012.83 311.849 1027.35 286.454 1041.39 261.895C1049.13 248.37 1056.43 235.595 1064.3 224.351C1066.36 221.405 1068.45 218.379 1070.47 215.451C1078.65 203.604 1087.1 191.356 1096.63 180.169C1107.19 167.711 1118.25 157.856 1129.52 150.878C1142.72 142.703 1155.91 138.711 1168.72 139.006C1176.54 139.187 1184.44 140.597 1192.89 143.314C1214.66 150.32 1235.58 165.846 1255.81 180.863C1256.73 181.551 1257.66 182.238 1258.58 182.922C1278.03 197.34 1296.77 214.315 1314.27 233.375C1350.54 272.789 1383.24 322.827 1411.43 382.1L1411.03 382.296Z" fill="#A1A1A1"/>
<path d="M882.228 376.326C881.103 376.326 879.994 376.324 878.903 376.318C862.691 376.248 845.667 374.951 828.308 372.46C814.16 370.391 800.212 367.536 786.851 363.976C767.762 358.9 748.604 351.604 729.906 342.293C711.849 333.301 693.664 322.152 675.854 309.152C658.403 296.416 642.102 282.224 629.851 271.282C601.184 245.752 573.91 224.412 548.785 207.855C508.091 181.04 471.827 164.693 434.657 156.411C412.233 151.415 388.175 148.78 365.011 148.78C364.652 148.78 364.295 148.78 363.936 148.782C344.037 148.852 325.144 152.648 307.695 156.74C303.153 157.813 298.455 158.984 293.73 160.225C291.142 160.913 288.549 161.621 285.806 162.371C266.458 167.663 244.527 173.66 217.884 173.168C201.658 172.867 185.085 171.142 169.058 169.473C158.709 168.394 148.009 167.28 137.803 166.607C123.772 165.683 110.861 165.979 99.4234 167.492C58.2368 172.935 23.8819 187.559 7.52151 206.614L7.14453 206.274C15.5363 196.502 28.159 188.041 44.6617 181.124C60.4225 174.52 79.3374 169.629 99.3593 166.984C110.827 165.469 123.772 165.168 137.835 166.097C148.051 166.77 158.757 167.885 169.11 168.964C185.127 170.634 201.69 172.359 217.894 172.657C244.469 173.149 266.362 167.161 285.678 161.879C288.423 161.127 291.015 160.419 293.606 159.731C298.334 158.49 303.037 157.317 307.582 156.244C325.062 152.146 343.987 148.343 363.934 148.271C387.467 148.187 411.957 150.83 434.764 155.913C453.947 160.188 472.545 166.482 491.617 175.152C509.984 183.504 528.773 194.06 549.053 207.427C574.198 223.996 601.493 245.352 630.177 270.899C642.419 281.835 658.707 296.016 676.14 308.738C712.28 335.117 749.57 353.535 786.975 363.484C800.318 367.04 814.248 369.891 828.377 371.958C845.713 374.444 862.713 375.741 878.903 375.809C904.237 375.916 933.653 375.039 962.343 363.171C976.865 357.165 989.427 348.381 1000.75 336.319C1020.64 315.136 1033.82 287.949 1046.57 261.654C1053.13 248.129 1059.32 235.354 1066.06 224.295C1068.22 220.752 1070.39 217.102 1072.5 213.572C1079.61 201.644 1086.97 189.313 1095.44 177.915C1105.13 164.802 1115.52 154.165 1126.33 146.301C1138.86 137.184 1151.64 132.083 1164.31 131.14C1172.13 130.557 1180.06 131.152 1188.57 132.959C1211.31 137.789 1233.85 151.82 1256.86 167.006C1276.92 180.247 1296.89 197.117 1314.61 215.795C1334.29 236.482 1352.78 260.751 1369.56 287.926C1384.52 312.137 1398.21 338.788 1410.28 367.138L1409.82 367.344C1383.91 306.459 1351.76 255.592 1314.25 216.155C1296.56 197.504 1276.62 180.659 1256.59 167.441C1233.62 152.281 1211.12 138.277 1188.46 133.464C1180 131.667 1172.11 131.076 1164.34 131.654C1141.07 133.39 1116.74 149.928 1095.84 178.228C1087.38 189.606 1080.03 201.926 1072.93 213.841C1070.82 217.374 1068.64 221.026 1066.48 224.569C1059.76 235.607 1053.57 248.372 1047.02 261.885C1040.76 274.786 1034.29 288.128 1026.87 300.953C1018.45 315.492 1010.03 327.177 1001.11 336.677C989.74 348.792 977.122 357.615 962.532 363.651C949.665 368.975 935.835 372.493 920.252 374.411C907.056 376.027 893.802 376.326 882.228 376.326Z" fill="#A1A1A1"/>
<path d="M914.384 377.357C904.159 377.357 894.338 376.731 885.551 376.097C869.395 374.932 852.379 372.513 834.978 368.907C820.89 365.944 807.03 362.243 793.784 357.902C757.512 346.038 721.701 326.29 684.306 297.533C667.998 284.995 652.624 271.503 638.279 258.76C609.958 233.676 581.705 213.337 554.3 198.305C513.995 176.198 476.286 164.446 435.624 161.321C412.456 159.54 388.025 160.267 364.969 163.42C345.671 166.06 327.478 172.429 310.494 178.724C306.245 180.307 301.726 182.036 297.064 183.862C295.899 184.321 294.724 184.789 293.532 185.26C273.972 193.025 251.839 201.811 223.433 201.811C222.954 201.811 222.477 201.809 221.993 201.803C202.776 201.603 183.155 198.787 164.178 196.061C156.654 194.981 148.874 193.865 141.409 192.961C126.827 191.199 114.198 190.678 102.799 191.374C61.3373 193.906 26.3407 204.15 6.78611 219.484L6.45123 219.033C16.1183 211.454 30.0965 204.872 46.8699 200.002C63.3686 195.211 82.6966 192.033 102.765 190.808C114.196 190.11 126.857 190.631 141.471 192.397C148.944 193.301 156.726 194.419 164.252 195.497C183.211 198.219 202.814 201.033 221.995 201.233C250.992 201.537 273.487 192.605 293.33 184.727C294.519 184.255 295.696 183.788 296.861 183.327C301.527 181.499 306.049 179.77 310.302 178.187C327.314 171.879 345.541 165.502 364.891 162.854C387.983 159.697 412.454 158.968 435.66 160.75C455.811 162.299 475.022 165.955 494.393 171.925C514.342 178.074 534.021 186.536 554.554 197.801C581.993 212.853 610.283 233.217 638.634 258.326C652.973 271.064 668.337 284.548 684.631 297.074C721.976 325.792 757.732 345.511 793.946 357.356C807.172 361.689 821.014 365.387 835.082 368.345C852.459 371.947 869.452 374.364 885.583 375.525C912.73 377.481 941.608 378.485 970.018 367.663C984.967 361.967 997.617 353.128 1008.69 340.638C1028.42 318.391 1040.69 288.045 1051.53 261.271C1056.98 247.8 1062.13 235.076 1067.81 224.229C1069.86 220.316 1071.92 216.271 1073.92 212.359C1080.16 200.121 1086.61 187.467 1094.25 175.648C1103.08 161.881 1112.81 150.462 1123.14 141.709C1135.01 131.656 1147.38 125.448 1159.89 123.259C1167.71 121.891 1175.68 121.672 1184.24 122.586C1208.15 125.145 1232.44 137.789 1255.13 151.073C1276.08 163.338 1296.77 179.634 1314.95 198.198C1335.18 218.788 1353.81 243.3 1370.34 271.048C1385.12 295.862 1398.16 323.151 1409.11 352.16L1408.6 352.364C1385.33 290.701 1352.81 237.53 1314.56 198.598C1296.42 180.068 1275.77 163.803 1254.86 151.563C1232.22 138.31 1207.99 125.697 1184.18 123.148C1175.67 122.238 1167.76 122.457 1159.99 123.815C1136.88 127.856 1113.7 146.373 1094.71 175.957C1087.09 187.751 1080.64 200.393 1074.41 212.619C1072.41 216.532 1070.35 220.577 1068.3 224.495C1062.63 235.317 1057.49 248.029 1052.04 261.486C1041.19 288.301 1028.89 318.696 1009.1 341.017C997.964 353.574 985.243 362.463 970.21 368.192C957.165 373.162 943.092 376.04 927.185 376.985C922.884 377.252 918.601 377.357 914.384 377.357Z" fill="#A1A1A1"/>
<path d="M934.566 379.587C934.419 379.587 934.275 379.587 934.129 379.587C919.679 379.55 905.492 377.734 892.198 375.877C876.066 373.625 859.06 370.082 841.649 365.351C827.625 361.5 813.853 356.948 800.719 351.827C765.897 338.267 731.594 317.325 692.764 285.917C678.78 274.609 665.018 262.432 651.708 250.659C650.043 249.185 648.377 247.713 646.711 246.241C618.243 221.164 589.009 201.823 559.824 188.759C519.858 170.872 479.552 163.503 436.601 166.23C413.05 167.727 388.64 171.817 366.012 178.059C348.158 182.985 332.248 190.888 313.303 200.708C309.464 202.706 305.363 204.864 300.402 207.499L300.125 207.647C290.555 212.765 279.706 218.564 267.539 222.973C253.565 228.037 240.008 230.475 226.106 230.446C204.428 230.39 182.304 226.248 160.911 222.24C155.669 221.258 150.247 220.244 145.014 219.325C130.005 216.697 117.3 215.369 106.173 215.268C65.2031 214.897 28.7046 221.131 6.03797 232.367L5.77728 231.811C16.88 226.306 31.8568 221.839 49.0874 218.891C66.3501 215.937 86.0932 214.471 106.179 214.652C117.338 214.753 130.075 216.083 145.116 218.718C150.354 219.636 155.776 220.651 161.019 221.633C182.387 225.635 204.482 229.773 226.108 229.828C226.204 229.828 226.302 229.828 226.398 229.828C257.333 229.828 280.9 217.23 299.849 207.099L300.127 206.951C305.09 204.314 309.191 202.157 313.033 200.158C332.01 190.322 347.947 182.405 365.857 177.464C388.524 171.21 412.973 167.113 436.565 165.615C457.583 164.281 477.408 165.298 497.177 168.727C518.481 172.423 539.052 178.79 560.064 188.195C589.306 201.284 618.59 220.655 647.104 245.774C648.77 247.246 650.436 248.72 652.101 250.194C665.405 261.963 679.163 274.135 693.135 285.435C731.915 316.804 766.168 337.717 800.932 351.254C814.048 356.37 827.799 360.913 841.804 364.761C859.191 369.485 876.173 373.022 892.278 375.27C921.127 379.3 949.37 382.096 977.703 372.182C993.079 366.801 1005.82 357.906 1016.64 344.986C1036.19 321.648 1046.87 289.309 1056.29 260.775C1060.7 247.417 1064.87 234.798 1069.57 224.194C1071.38 220.114 1073.19 215.894 1074.95 211.812C1080.44 199.048 1086.11 185.853 1093.06 173.411C1101.07 158.982 1110.12 146.779 1119.96 137.14C1131.17 126.156 1143.12 118.844 1155.48 115.41C1163.14 113.281 1170.96 112.244 1179.36 112.244C1179.54 112.244 1179.73 112.244 1179.91 112.246C1206.03 112.386 1232.91 124.569 1253.41 135.166C1275.25 146.458 1296.65 162.177 1315.3 180.626C1336.08 201.121 1354.86 225.874 1371.13 254.198C1385.72 279.615 1398.12 307.544 1407.96 337.213L1407.39 337.412C1392.74 293.268 1364.8 230.312 1314.88 181.073C1296.28 162.665 1274.93 146.982 1253.14 135.718C1232.7 125.149 1205.9 113.001 1179.91 112.863C1171.35 112.812 1163.41 113.845 1155.64 116.007C1132.74 122.37 1110.71 142.865 1093.59 173.717C1086.65 186.131 1080.98 199.312 1075.5 212.061C1073.74 216.145 1071.93 220.367 1070.12 224.449C1065.43 235.026 1061.27 247.629 1056.86 260.973C1047.42 289.558 1036.72 321.958 1017.1 345.387C1006.2 358.393 993.378 367.348 977.898 372.764C964.778 377.353 950.597 379.587 934.566 379.587Z" fill="#A1A1A1"/>
<path d="M950.613 382.486C947.501 382.486 944.321 382.383 941.065 382.177C926.812 381.277 912.96 378.578 898.843 375.655C882.479 372.267 865.952 367.734 848.318 361.797C834.366 357.058 820.685 351.66 807.653 345.75C774.594 330.78 741.769 308.743 701.222 274.298C691.152 265.745 681.086 256.774 671.35 248.097C666.051 243.374 660.572 238.489 655.144 233.72C626.338 208.473 596.128 190.135 565.352 179.212C524.689 164.779 482.896 162.136 437.583 171.132C413.643 175.886 389.256 183.34 367.06 192.688C349.23 200.197 333.698 210.744 317.254 221.909L316.117 222.681C313.548 224.431 310.951 226.206 308.322 228.001C306.809 229.036 305.285 230.078 303.747 231.128C294.158 237.709 283.801 244.575 271.924 249.859C258.134 255.994 244.495 259.011 230.222 259.086C206.461 259.205 182.224 253.536 158.787 248.047C155.443 247.263 151.982 246.454 148.623 245.686C132.876 242.084 120.462 240.011 109.55 239.158C69.2815 236.015 31.2791 238.23 5.28382 245.237L5.11737 244.591C31.1809 237.565 69.2615 235.342 109.6 238.491C120.542 239.346 132.988 241.425 148.765 245.034C152.126 245.803 155.587 246.613 158.934 247.397C182.084 252.817 206.014 258.419 229.46 258.419C229.713 258.419 229.966 258.419 230.22 258.416C260.547 258.26 282.135 245.155 303.388 230.572C304.926 229.522 306.45 228.48 307.963 227.445C310.592 225.648 313.187 223.875 315.758 222.124L316.895 221.352C333.367 210.167 348.926 199.603 366.814 192.068C389.049 182.702 413.479 175.235 437.461 170.474C482.888 161.455 524.793 164.106 565.566 178.578C596.418 189.53 626.699 207.909 655.569 233.211C660.997 237.983 666.478 242.866 671.777 247.59C681.509 256.265 691.573 265.235 701.637 273.782C742.136 308.187 774.914 330.193 807.916 345.139C820.93 351.039 834.591 356.43 848.523 361.161C866.131 367.089 882.633 371.616 898.974 374.998C923.778 380.135 954.648 386.529 985.389 376.68C1001.19 371.618 1014.02 362.668 1024.58 349.316C1043.95 324.859 1052.92 290.463 1060.85 260.117C1064.29 246.934 1067.54 234.481 1071.33 224.147C1072.81 220.121 1074.29 215.956 1075.72 211.927C1080.53 198.417 1085.5 184.447 1091.88 171.161C1099.07 156.061 1107.45 143.074 1116.77 132.558C1127.33 120.643 1138.87 112.23 1151.06 107.551C1158.89 104.547 1166.91 102.697 1175.58 101.892C1187.19 100.813 1199.56 101.966 1213.37 105.408C1225.06 108.323 1237.59 112.847 1251.69 119.243C1274.41 129.559 1296.53 144.704 1315.65 163.04C1336.98 183.439 1355.91 208.436 1371.91 237.334C1386.32 263.357 1398.06 291.926 1406.81 322.251L1406.18 322.441C1387.72 258.419 1355.41 201.982 1315.2 163.53C1296.14 145.243 1274.08 130.142 1251.42 119.857C1221.06 106.077 1196.98 100.578 1175.64 102.559C1167.02 103.357 1159.06 105.196 1151.29 108.176C1122.29 119.307 1103.29 148.733 1092.46 171.455C1086.1 184.709 1081.13 198.662 1076.33 212.156C1074.9 216.187 1073.42 220.353 1071.94 224.382C1068.16 234.685 1064.91 247.123 1061.48 260.29C1053.54 290.701 1044.54 325.17 1025.09 349.738C1014.44 363.195 1001.51 372.217 985.582 377.321C974.784 380.779 963.268 382.486 950.613 382.486Z" fill="#A1A1A1"/>
<path d="M964.518 385.808C943.313 385.808 922.926 380.215 905.485 375.43C889.076 370.93 872.558 365.306 854.984 358.239C841.11 352.619 827.517 346.373 814.583 339.673C775.813 319.61 741.25 290.812 709.676 262.679C703.229 256.936 696.716 251.016 690.42 245.291C681.677 237.34 672.636 229.12 663.576 221.199C634.339 195.703 603.152 178.364 570.885 169.662C529.143 158.408 485.86 160.489 438.566 176.027C414.215 184.027 389.852 194.845 368.11 207.312C351.34 216.925 337.151 229.063 322.131 241.912C321.066 242.822 319.999 243.736 318.926 244.65L318.345 245.149C314.693 248.276 310.918 251.508 307.09 254.752C297.918 262.56 287.818 270.636 276.135 276.805C262.574 283.967 248.903 287.539 234.335 287.724C208.765 288.052 182.704 280.672 157.502 273.534C155.736 273.034 153.977 272.536 152.227 272.044C135.608 267.363 123.484 264.588 112.921 263.044C73.6632 257.309 34.1529 255.505 4.52022 258.097L4.46008 257.379C34.1409 254.781 73.7094 256.586 113.019 262.33C123.613 263.878 135.762 266.659 152.411 271.348C154.162 271.84 155.92 272.338 157.689 272.841C182.842 279.963 208.853 287.325 234.325 287.004C265.961 286.6 288.241 269.858 306.64 254.196C310.468 250.952 314.244 247.72 317.896 244.595L318.477 244.097C319.55 243.181 320.617 242.269 321.681 241.359C336.728 228.486 350.941 216.328 367.767 206.682C389.549 194.192 413.958 183.356 438.351 175.342C460.773 167.976 481.834 163.723 502.734 162.34C526.048 160.798 549.036 163.027 571.061 168.966C603.431 177.695 634.71 195.084 664.03 220.649C673.095 228.575 682.139 236.797 690.883 244.749C697.18 250.474 703.688 256.393 710.133 262.134C741.675 290.236 776.196 319.002 814.896 339.028C827.812 345.719 841.385 351.956 855.239 357.568C872.786 364.625 889.279 370.241 905.663 374.735C930.82 381.635 962.13 390.223 993.066 381.186C1009.3 376.443 1022.21 367.437 1032.52 353.653C1051.68 328.046 1058.85 291.533 1065.18 259.316C1067.72 246.371 1070.12 234.145 1073.08 224.106C1074.18 220.392 1075.28 216.555 1076.34 212.843C1080.5 198.326 1084.8 183.313 1090.68 168.917C1097.08 153.134 1104.78 139.358 1113.57 127.976C1123.49 115.132 1134.61 105.617 1146.64 99.6948C1154.45 95.8494 1162.49 93.1835 1171.24 91.5428C1183.02 89.334 1196.09 89.4081 1210.1 91.7631C1222.36 93.8258 1235.77 97.7145 1249.95 103.324C1273.56 112.664 1296.4 127.233 1315.99 145.455C1337.87 165.759 1356.95 190.997 1372.69 220.472C1386.91 247.1 1398 276.311 1405.64 307.293L1404.96 307.47C1388.76 241.822 1357 184.474 1315.52 145.99C1295.99 127.827 1273.23 113.306 1249.7 103.997C1219.19 91.9319 1193.57 88.0885 1171.36 92.253C1162.68 93.8814 1154.69 96.5287 1146.94 100.345C1118.33 114.436 1100.91 145.562 1091.33 169.195C1085.46 183.553 1081.17 198.546 1077.01 213.045C1075.95 216.756 1074.85 220.596 1073.75 224.314C1070.8 234.32 1068.41 246.53 1065.87 259.458C1062.82 274.957 1059.38 292.523 1054.37 308.992C1048.63 327.861 1041.67 342.612 1033.08 354.091C1028.11 360.728 1022.41 366.377 1016.12 370.881C1009.35 375.725 1001.66 379.426 993.258 381.88C983.645 384.69 973.998 385.808 964.518 385.808Z" fill="#A1A1A1"/>
<path d="M977.05 389.453C970.04 389.453 962.695 388.753 954.937 387.356C939.657 384.603 925.031 379.609 912.126 375.206C895.86 369.654 878.876 362.747 861.649 354.68C847.863 348.187 834.358 341.093 821.513 333.592C784.644 312.085 752.879 283.49 718.13 251.059C715.042 248.177 711.905 245.237 708.873 242.392C696.933 231.195 684.587 219.618 672.008 208.678C642.285 182.884 610.124 166.545 576.417 160.114C533.899 152.001 487.847 159.001 439.548 180.92C414.764 192.169 390.423 206.348 369.158 221.93C353.147 233.661 339.966 247.493 326.012 262.138C324.595 263.626 323.171 265.119 321.739 266.617C318.176 270.352 314.338 274.36 310.434 278.372C302.247 286.814 292.269 296.434 280.348 303.748C267.004 311.937 253.298 316.065 238.452 316.363C211.273 316.913 183.608 307.674 156.852 298.74L155.834 298.4C142.734 294.027 128.876 289.61 116.295 286.927C77.9481 278.753 37.9826 273.077 3.76404 270.947L3.81015 270.177C38.0648 272.309 78.0664 277.989 116.448 286.172C129.064 288.863 142.946 293.286 156.066 297.665L157.085 298.005C183.782 306.918 211.392 316.135 238.438 315.589C269.672 314.959 291.244 297.066 309.903 277.822C313.807 273.812 317.641 269.804 321.204 266.072C322.636 264.575 324.059 263.081 325.477 261.594C339.455 246.925 352.659 233.069 368.723 221.298C390.028 205.685 414.415 191.479 439.245 180.21C461.906 169.928 484.206 162.842 505.521 159.153C529.876 154.939 553.776 155.005 576.557 159.351C610.393 165.806 642.672 182.203 672.495 208.086C685.084 219.035 697.436 230.617 709.383 241.82C712.415 244.663 715.551 247.602 718.639 250.484C753.355 282.884 785.085 311.449 821.888 332.918C834.715 340.408 848.2 347.491 861.966 353.976C879.168 362.031 896.124 368.927 912.366 374.471C937.826 383.162 969.512 393.976 1000.76 385.69C1017.42 381.27 1030.41 372.211 1040.47 357.99C1059.42 331.197 1064.91 290.814 1069.31 258.365C1071.03 245.725 1072.65 233.787 1074.85 224.07C1075.54 221.007 1076.24 217.851 1076.91 214.799C1080.42 198.939 1084.05 182.538 1089.5 166.679C1097.91 141.999 1113.88 108.983 1142.22 91.8494C1150.05 87.1187 1158.12 83.6356 1166.91 81.2024C1189.88 74.7446 1217.25 76.834 1248.22 87.409C1272.72 95.773 1296.28 109.765 1316.34 127.875C1338.77 148.082 1358 173.563 1373.48 203.616C1380.58 217.401 1386.85 232.124 1392.13 247.376C1397.17 261.944 1401.33 277.073 1404.49 292.342L1403.76 292.502C1389.83 225.223 1358.6 166.963 1315.84 128.453C1295.85 110.412 1272.39 96.473 1247.99 88.1398C1217.15 77.6122 1189.94 75.5289 1167.1 81.9455C1158.38 84.3602 1150.37 87.8166 1142.6 92.5122C1114.45 109.526 1098.57 142.373 1090.21 166.932C1084.78 182.75 1081.15 199.129 1077.65 214.967C1076.97 218.02 1076.27 221.178 1075.58 224.243C1073.39 233.927 1071.77 245.848 1070.06 258.47C1067.84 274.798 1065.33 293.305 1061.03 310.772C1056.1 330.843 1049.57 346.437 1041.08 358.443C1036.23 365.292 1030.57 371.068 1024.24 375.609C1017.42 380.503 1009.58 384.146 1000.94 386.436C993.362 388.449 985.444 389.453 977.05 389.453Z" fill="#A1A1A1"/>
<path d="M988.599 393.303C980.197 393.303 971.336 392.185 961.872 389.944C946.536 386.314 931.782 380.291 918.764 374.976C902.376 368.285 885.402 360.259 868.313 351.117C854.618 343.757 841.203 335.815 828.442 327.509C793.327 304.669 763.209 275.231 731.323 244.068C729.745 242.526 728.167 240.982 726.584 239.438C711.756 224.962 696.424 209.992 680.441 196.158C650.201 170.037 617.065 154.696 581.954 150.563C537.852 145.369 490.271 157.228 440.53 185.808C415.649 200.103 390.675 218.121 370.206 236.544C354.75 250.454 342.354 266.105 329.23 282.677C327.676 284.639 326.118 286.607 324.548 288.579C321.411 292.525 317.68 297.204 313.774 301.99C306.539 310.877 296.681 322.171 284.558 330.667C271.426 339.871 257.691 344.562 242.565 345.005C230.133 345.324 216.414 343.354 200.621 338.979C187.062 335.224 173.946 330.317 159.432 324.758C146.184 319.622 132.202 314.317 119.657 310.814C82.499 300.434 43.2494 291.345 3.00116 283.795L3.14553 282.986C43.4178 290.539 82.6895 299.635 119.868 310.019C132.446 313.533 146.449 318.846 159.713 323.986C184.04 333.306 214.316 344.908 242.543 344.181C274.815 343.234 295.555 323.089 313.158 301.459C317.062 296.677 320.792 292 323.926 288.056C325.496 286.084 327.054 284.116 328.606 282.156C341.752 265.558 354.17 249.879 369.676 235.924C390.188 217.465 415.21 199.411 440.139 185.089C490.03 156.424 537.776 144.533 582.046 149.745C599.02 151.744 615.693 156.386 631.599 163.542C648.665 171.219 665.272 181.983 680.958 195.531C696.96 209.379 712.302 224.357 727.138 238.843C728.72 240.389 730.3 241.931 731.878 243.473C763.735 274.609 793.827 304.018 828.873 326.815C841.616 335.109 855.011 343.041 868.686 350.388C885.75 359.516 902.698 367.532 919.063 374.212C944.781 384.711 976.79 397.777 1008.44 390.199C1025.58 386.094 1038.66 376.979 1048.41 362.334C1067.19 334.362 1070.54 291.632 1073.23 257.298C1074.19 245.019 1075.1 233.421 1076.6 224.042C1076.91 222.107 1077.22 220.162 1077.53 218.206C1080.35 200.541 1083.25 182.273 1088.31 164.446C1095.52 138.804 1109.97 104.034 1137.8 84.0085C1145.56 78.4215 1153.66 74.1232 1162.57 70.8665C1174.94 66.2985 1188.73 64.1514 1203.55 64.4807C1217.08 64.7813 1231.53 67.1425 1246.49 71.4964C1271.87 78.8806 1296.14 92.2964 1316.67 110.293C1339.67 130.401 1359.04 156.129 1374.26 186.759C1381.24 200.813 1387.28 215.838 1392.23 231.418C1396.96 246.339 1400.7 261.807 1403.33 277.392L1402.54 277.532C1391.06 209.617 1359.57 148.889 1316.15 110.918C1295.71 93.0004 1271.54 79.6402 1246.27 72.2849C1215.11 63.2147 1186.25 62.9924 1162.83 71.6385C1154 74.8704 1145.96 79.1358 1138.25 84.6796C1110.61 104.568 1096.26 139.158 1089.08 164.672C1084.04 182.452 1081.13 200.693 1078.33 218.336C1078.01 220.291 1077.7 222.239 1077.39 224.174C1075.89 233.518 1074.98 245.101 1074.02 257.362C1071.33 291.794 1067.97 334.648 1049.07 362.799C1044.37 369.858 1038.75 375.766 1032.37 380.355C1025.5 385.291 1017.51 388.873 1008.62 391.002C1002.21 392.533 995.561 393.303 988.599 393.303Z" fill="#A1A1A1"/>
<path d="M999.451 397.311C989.879 397.311 979.737 395.722 968.806 392.531C953.342 388.017 938.496 380.966 925.4 374.747C908.849 366.888 891.883 357.737 874.973 347.555C861.376 339.342 848.052 330.549 835.367 321.428C804.132 298.973 777.437 271.464 749.174 242.339C744.554 237.577 739.775 232.655 735.035 227.815C718.372 210.811 704.143 196.79 688.869 183.638C658.09 157.171 623.981 142.829 587.489 141.009C541.634 138.722 492.517 155.437 441.505 190.691C416.163 208.205 391.211 229.676 371.245 251.152C356.204 267.33 344.446 284.941 331.998 303.586C330.456 305.896 328.908 308.214 327.349 310.534C324.574 314.673 320.901 320.129 317.109 325.598C301.152 348.671 280.304 372.425 246.675 373.64C245.626 373.675 244.573 373.691 243.522 373.691C217.262 373.691 190.453 363.022 163.026 351.108L161.314 350.359C147.728 344.406 134.895 338.784 123.016 334.691C78.2506 319.268 34.9565 306.25 2.23981 296.632L2.47442 295.79C35.1991 305.412 78.5052 318.432 123.287 333.862C135.198 337.964 148.045 343.595 161.648 349.554L163.359 350.304C191.791 362.653 219.556 373.669 246.645 372.767C279.901 371.565 300.574 347.994 316.413 325.094C320.203 319.629 323.872 314.177 326.648 310.04C328.206 307.717 329.752 305.402 331.294 303.092C343.762 284.418 355.538 266.778 370.628 250.548C390.633 229.028 415.636 207.514 441.028 189.964C464.595 173.677 488.17 161.171 511.097 152.79C537.403 143.174 563.12 138.917 587.529 140.134C624.21 141.962 658.491 156.374 689.415 182.965C704.71 196.138 718.953 210.173 735.633 227.192C740.375 232.031 745.153 236.956 749.775 241.717C778.01 270.813 804.679 298.295 835.854 320.705C848.521 329.816 861.825 338.594 875.402 346.796C892.288 356.965 909.228 366.101 925.755 373.949C951.698 386.269 983.986 401.602 1016.12 394.699C1033.69 390.926 1046.84 381.757 1056.34 366.669C1074.89 337.423 1076.01 292.288 1076.9 256.022C1077.19 244.189 1077.47 233.011 1078.36 224.005L1078.38 223.799C1080.36 203.631 1082.41 182.778 1087.11 162.202C1091.19 144.255 1096.86 128.12 1103.97 114.241C1111.99 98.5937 1121.88 85.781 1133.37 76.1571C1141.05 69.7178 1149.18 64.6022 1158.22 60.5201C1182.63 49.4263 1212.56 47.7136 1244.75 55.5712C1257.7 58.7332 1270.48 63.5235 1282.73 69.8064C1295.05 76.1262 1306.59 83.8315 1317.01 92.7041C1340.56 112.716 1360.09 138.687 1375.04 169.897C1388.48 197.949 1397.86 229.95 1402.17 262.437L1401.33 262.554C1392.1 193.023 1361.17 131.36 1316.47 93.3772C1295.57 75.5869 1270.7 62.8072 1244.55 56.4276C1212.54 48.6152 1182.81 50.3095 1158.56 61.327C1149.6 65.3783 1141.53 70.4528 1133.91 76.8406C1112.46 94.81 1096.57 124.398 1087.94 162.406C1083.25 182.928 1081.21 203.753 1079.23 223.892L1079.21 224.098C1078.32 233.071 1078.05 244.233 1077.75 256.049C1076.85 292.426 1075.74 337.697 1057.06 367.149C1052.48 374.424 1046.9 380.46 1040.48 385.088C1033.55 390.078 1025.42 393.6 1016.3 395.562C1010.86 396.727 1005.26 397.311 999.451 397.311Z" fill="#A1A1A1"/>
<path d="M247.299 402.353C235.556 402.353 222.769 400.004 208.338 395.208C193.999 390.442 179.818 383.863 166.628 377.465C164.24 376.299 161.869 375.136 159.515 373.982C147.797 368.232 136.728 362.801 126.384 358.571C85.1348 341.709 45.817 326.554 7.79257 311.901L1.49225 309.472L1.80906 308.605L8.10938 311.034C46.1358 325.691 85.4596 340.846 126.716 357.712C137.089 361.953 148.172 367.39 159.904 373.148C162.256 374.303 164.627 375.466 167.013 376.629C194.089 389.763 222.855 402.491 250.756 401.357C285.052 399.891 305.606 372.462 319.678 348.733C323.283 342.664 326.756 336.616 329.379 332.025C330.827 329.495 332.265 326.967 333.698 324.446C345.589 303.541 356.82 283.795 371.59 265.177C391.087 240.606 416.066 215.627 441.928 194.845C465.923 175.564 490.135 160.331 513.897 149.569C541.151 137.223 567.772 130.817 593.02 130.527C631.01 129.946 666.295 143.364 697.881 170.404C715.39 185.411 731.089 201.645 744.139 215.546C751.239 223.112 758.34 230.866 765.207 238.366C789.516 264.915 814.653 292.367 842.844 314.602C855.437 324.536 868.655 334.162 882.128 343.21C898.801 354.382 915.733 364.638 932.456 373.691C958.596 387.842 991.126 405.453 1023.81 399.203C1041.8 395.763 1055.04 386.541 1064.29 371.009C1082.59 340.437 1081.35 292.83 1080.36 254.577C1080.06 243.265 1079.79 232.579 1080.12 223.976C1080.87 204.582 1082.01 182.043 1085.93 159.966C1089.24 141.26 1094.23 124.336 1100.77 109.667C1108.17 93.0726 1117.65 79.1607 1128.95 68.316C1136.43 61.1295 1144.82 55.0299 1153.88 50.184C1166.8 43.2465 1181.31 38.8844 1196.99 37.221C1211.68 35.6627 1227.16 36.482 1243.01 39.6543C1256.38 42.3304 1269.56 46.7317 1282.18 52.7387C1294.87 58.7827 1306.71 66.313 1317.36 75.1196C1329.63 85.2603 1340.92 97.2351 1350.91 110.713C1360.37 123.482 1368.75 137.723 1375.83 153.039C1389.06 181.693 1397.77 214.354 1401.02 247.487L1400.12 247.58C1393.16 176.429 1362.79 113.833 1316.79 75.8422C1295.73 58.4224 1269.47 45.8939 1242.84 40.5642C1209.92 33.9746 1179.3 37.5854 1154.3 51.0053C1145.31 55.8122 1136.99 61.8644 1129.56 68.9933C1108.28 89.4268 1093.89 120.09 1086.82 160.133C1082.9 182.15 1081.77 204.65 1081.02 224.013C1080.69 232.585 1080.96 243.255 1081.26 254.552C1081.75 273.424 1082.3 294.814 1080.44 315.493C1078.28 339.488 1073.25 357.805 1065.06 371.493C1060.6 378.982 1055.06 385.147 1048.6 389.816C1041.62 394.86 1033.34 398.324 1023.98 400.113C1019.25 401.017 1014.53 401.427 1009.84 401.427C981.758 401.427 954.542 386.691 932.037 374.509C915.29 365.44 898.332 355.17 881.637 343.982C868.144 334.922 854.908 325.281 842.297 315.332C814.048 293.052 788.885 265.572 764.552 238.998C757.686 231.5 750.588 223.748 743.491 216.187C730.459 202.301 714.783 186.09 697.306 171.112C665.89 144.216 630.811 130.877 593.034 131.449C533.706 132.132 478.419 166.694 442.486 195.57C416.675 216.31 391.747 241.235 372.292 265.757C357.566 284.32 346.351 304.035 334.478 324.907C333.045 327.429 331.605 329.957 330.157 332.489C327.532 337.081 324.057 343.134 320.45 349.208C314.543 359.17 305.269 373.671 292.985 384.54C287.019 389.818 280.671 393.966 274.116 396.871C266.807 400.109 258.959 401.929 250.794 402.277C249.637 402.328 248.472 402.353 247.299 402.353Z" fill="#A1A1A1"/>
<path d="M251.068 431.012C239.312 431.012 226.551 428.482 212.196 423.319C197.333 417.975 182.639 410.461 170.227 403.814C166.413 401.768 162.607 399.693 158.926 397.686C148.635 392.076 138.914 386.775 129.748 382.448C96.8329 366.906 64.1322 351.732 32.5063 337.056C22.0452 332.202 11.2292 327.183 0.746094 322.308L1.1391 321.417C11.6222 326.292 22.4383 331.311 32.8993 336.165C64.5252 350.84 97.2299 366.016 130.147 381.561C139.337 385.9 149.07 391.205 159.373 396.823C163.052 398.83 166.858 400.903 170.668 402.95C196.411 416.73 226.27 431.317 254.862 429.944C289.967 428.219 309.684 398.268 322.942 372.369C326.341 365.734 329.628 359.073 332.11 354.011C333.385 351.413 334.653 348.817 335.918 346.227C347.291 322.934 358.033 300.934 372.555 279.807C391.442 252.329 416.4 223.889 442.829 199.728C479.634 166.224 536.519 125.357 598.508 120.925C637.93 118.031 674.214 130.452 706.347 157.848C720.784 170.162 735.061 184.367 752.643 203.909C761.528 213.784 770.345 224.019 778.871 233.915C801.054 259.661 823.99 286.285 849.834 308.508C862.355 319.276 875.483 329.748 888.853 339.634C905.043 351.592 921.969 362.968 939.158 373.446C965.56 389.443 998.419 409.356 1031.49 403.719C1049.63 400.693 1063.33 391.152 1072.23 375.362C1090.28 343.407 1086.4 291.127 1083.57 252.955C1082.78 242.242 1082.03 232.124 1081.88 223.961C1081.55 205.821 1081.58 181.902 1084.74 157.745C1090.2 115.883 1103.59 83.1601 1124.53 60.4889C1131.87 52.5015 1140.28 45.562 1149.54 39.8618C1162.71 31.7427 1177.57 26.2813 1193.71 23.6319C1208.92 21.1369 1224.92 21.176 1241.28 23.7492C1255.08 25.9684 1268.65 29.9909 1281.61 35.7014C1294.71 41.4696 1306.85 48.8187 1317.7 57.5451C1330.25 67.628 1341.72 79.644 1351.78 93.2616C1361.31 106.167 1369.67 120.61 1376.61 136.193C1389.65 165.45 1397.68 198.77 1399.86 232.552L1398.91 232.616C1394.23 159.84 1364.41 96.3104 1317.12 58.3171C1295.67 41.0805 1268.69 29.1469 1241.13 24.7168C1207.16 19.3747 1175.66 24.902 1150.04 40.7017C1140.85 46.3546 1132.5 53.2385 1125.22 61.162C1104.42 83.683 1091.12 116.221 1085.69 157.877C1082.54 181.968 1082.51 205.84 1082.84 223.945C1082.99 232.078 1083.73 242.184 1084.53 252.883C1085.99 272.614 1087.64 294.981 1086.7 316.816C1085.59 342.242 1081.13 361.553 1073.05 375.854C1068.71 383.568 1063.21 389.867 1056.72 394.577C1049.68 399.685 1041.25 403.085 1031.65 404.687C1016.77 407.221 1000.76 404.944 982.696 397.725C966.994 391.448 951.949 382.333 938.676 374.292C921.462 363.799 904.514 352.407 888.3 340.432C874.909 330.533 861.763 320.046 849.225 309.263C823.326 286.995 800.364 260.343 778.159 234.569C769.637 224.676 760.822 214.447 751.945 204.58C734.394 185.073 720.143 170.895 705.739 158.609C673.797 131.37 637.743 119.023 598.572 121.899C536.85 126.314 480.153 167.056 443.458 200.458C417.082 224.571 392.176 252.95 373.329 280.371C358.847 301.438 348.121 323.408 336.766 346.666C335.501 349.257 334.234 351.853 332.958 354.451C330.474 359.517 327.185 366.185 323.782 372.826C310.408 398.956 290.492 429.174 254.904 430.922C253.639 430.981 252.358 431.012 251.068 431.012Z" fill="#A1A1A1"/>
<path d="M254.914 459.674C222.791 459.674 189.086 439.42 159.206 421.463C150.024 415.946 141.352 410.733 133.111 406.326L0 335.146L0.463211 334.234L133.574 405.414C141.837 409.832 150.52 415.05 159.713 420.576C190.748 439.226 225.925 460.366 258.968 458.534C294.847 456.547 313.748 424.075 326.207 396.01C330.281 386.831 334.215 377.491 338.021 368.458C348.43 343.755 359.192 318.21 373.515 294.435C384.888 275.558 399.017 255.761 414.373 237.186C431.218 216.808 449.255 198.112 467.978 181.619C488.621 163.435 509.611 148.393 530.363 136.912C553.316 124.215 575.929 115.925 597.577 112.271C640.943 104.953 680.385 116.059 714.805 145.285C743.409 169.57 767.72 199.6 791.23 228.643C811.695 253.922 832.856 280.06 856.818 302.404C884.496 328.211 914.451 352.027 945.855 373.187C972.313 391.016 1005.24 413.208 1039.18 408.22C1067.84 404.008 1084.42 384.32 1089.84 348.027C1094.46 317.156 1090.07 280.536 1086.54 251.112C1085.34 241.085 1084.2 231.614 1083.64 223.933C1080.57 181.592 1082.53 146.639 1089.64 117.08C1094.07 98.6369 1100.62 82.197 1109.09 68.2172C1118.55 52.6007 1130.7 39.5822 1145.2 29.5239C1157.74 20.8223 1171.88 14.5024 1187.21 10.7393C1201.81 7.15736 1217.19 5.95721 1232.9 7.17178C1263.81 9.55974 1294.05 21.2031 1318.04 39.9548C1330.86 49.9781 1342.51 62.0373 1352.65 75.7948C1362.25 88.8339 1370.58 103.481 1377.39 119.332C1390.22 149.192 1397.58 183.173 1398.69 217.599L1397.69 217.634C1395.33 144.323 1365.32 78.2075 1317.43 40.7762C1266.57 1.02483 1194.37 -3.34967 1145.76 30.3782C1097.6 63.7891 1077.61 127.076 1084.64 223.857C1085.2 231.513 1086.33 240.972 1087.53 250.987C1091.07 280.474 1095.47 317.173 1090.83 348.183C1088.3 365.074 1083.23 378.648 1075.74 388.531C1071.53 394.088 1066.45 398.629 1060.65 402.026C1054.48 405.64 1047.3 408.068 1039.32 409.241C1036.06 409.721 1032.74 409.961 1029.36 409.961C1017.07 409.961 1003.97 406.769 989.614 400.3C973.444 393.013 957.84 382.498 945.301 374.049C913.856 352.858 883.858 329.012 856.14 303.168C832.124 280.777 810.941 254.608 790.454 229.302C766.974 200.296 742.693 170.303 714.161 146.079C679.972 117.053 640.801 106.019 597.733 113.288C510.616 127.99 420.876 217.778 374.361 294.979C360.076 318.688 349.328 344.198 338.933 368.868C335.126 377.905 331.189 387.251 327.111 396.439C318.839 415.071 310.67 428.413 301.402 438.421C295.617 444.667 289.341 449.591 282.748 453.056C275.417 456.908 267.432 459.098 259.015 459.565C257.655 459.637 256.285 459.674 254.914 459.674Z" fill="#A1A1A1"/>
</g>
</svg>
