<svg width="1462" height="501" viewBox="0 0 1462 501" fill="none" xmlns="http://www.w3.org/2000/svg">
<g opacity="0.3">
<path d="M571.932 370.036C566.783 370.036 561.771 369.73 556.954 369.12C546.852 367.838 537.52 365.207 529.215 361.3C520.288 357.101 512.46 351.38 505.944 344.296C492.848 330.057 486.296 313.004 479.959 296.513C478.714 293.275 477.428 289.926 476.121 286.678C467.204 264.534 455.902 245.138 441.569 227.38C412.977 191.956 372.768 161.725 325.285 139.954C270.372 114.777 211.332 102.236 159.039 104.64C128.304 106.055 87.6939 119.501 69.5444 142.464C58.7734 156.093 57.9049 171.217 67.0344 186.199L66.8532 186.262C62.0663 178.405 59.9806 170.528 60.6559 162.85C61.2754 155.806 64.2077 148.921 69.3731 142.386C77.5883 131.991 91.1362 122.778 108.553 115.742C124.646 109.242 142.571 105.245 159.027 104.488C186.394 103.231 215.5 106.021 245.536 112.784C272.763 118.916 299.63 128.012 325.389 139.823C372.899 161.606 413.132 191.854 441.74 227.299C456.081 245.068 467.39 264.475 476.312 286.631C477.621 289.88 478.908 293.229 480.151 296.468C486.481 312.947 493.029 329.987 506.107 344.205C518.755 357.957 535.874 366.288 556.988 368.966C586.227 372.674 621.733 364.918 651.965 348.215C695.531 324.147 725.766 289.114 755.007 255.235C760.133 249.297 765.431 243.157 770.679 237.227C784.3 221.831 802.748 201.879 824.673 184.105C847.083 165.937 869.857 152.589 894.295 143.296C909.253 137.608 925.106 133.776 941.413 131.906C956.475 130.179 972.417 130.072 988.797 131.585C1016.9 134.183 1047.17 141.52 1081.34 154.015C1148.63 178.62 1215.85 208.485 1281.13 242.783C1343.18 275.381 1404.03 312.269 1462 352.417L1461.86 352.529C1341.7 269.303 1213.65 202.559 1081.25 154.151C1006.46 126.802 947.078 123.395 894.385 143.43C840.777 163.813 803.328 200.596 770.844 237.31C765.599 243.238 760.3 249.379 755.174 255.317C725.925 289.207 695.68 324.251 652.084 348.336C637.996 356.12 622.148 362.191 606.253 365.892C597.857 367.847 589.51 369.126 581.442 369.692C578.227 369.923 575.054 370.036 571.932 370.036Z" fill="#A1A1A1"/>
<path d="M576.966 361.592C563.835 361.592 551.671 359.7 540.801 355.966C528.679 351.802 518.219 345.35 509.709 336.79C508.956 336.031 508.209 335.247 507.488 334.457C494.532 320.28 487.689 303.45 481.073 287.172C479.735 283.883 478.352 280.48 476.95 277.179C468.597 257.52 458.539 240.193 446.199 224.211C444.679 222.244 443.105 220.272 441.517 218.351C412.505 183.232 371.969 153.384 324.291 132.032C268.982 107.285 209.775 95.2619 157.575 98.1791C127.063 99.9023 86.6404 113.568 68.4131 136.356C57.4987 150.001 56.2637 165.155 64.8374 180.181L64.6542 180.241C60.1601 172.366 58.3135 164.473 59.1681 156.786C59.9529 149.726 63.0047 142.826 68.2418 136.277C76.5407 125.9 90.0488 116.677 107.302 109.605C123.248 103.068 141.095 98.957 157.557 98.0284C184.89 96.5012 214.028 99.0249 244.159 105.529C271.452 111.42 298.447 120.294 324.391 131.902C372.096 153.266 412.655 183.133 441.685 218.271C443.272 220.194 444.848 222.167 446.368 224.136C458.717 240.128 468.78 257.464 477.137 277.133C478.541 280.435 479.924 283.837 481.263 287.129C487.876 303.395 494.713 320.214 507.651 334.372C508.37 335.159 509.117 335.942 509.868 336.699C527.454 354.394 551.618 361.592 577.028 361.592C577.168 361.592 577.305 361.592 577.445 361.592C577.285 361.591 577.126 361.592 576.966 361.592ZM582.387 361.487C606.01 360.569 630.387 353.699 651.3 343.479C696.409 321.343 728.83 287.154 760.185 254.091C761.476 252.729 762.767 251.369 764.057 250.009C766.892 247.024 770.253 243.49 773.683 239.928C789.071 223.952 807.695 205.363 829.143 188.632C851.964 170.829 874.763 157.618 898.841 148.243C913.636 142.488 929.272 138.434 945.314 136.194C960.176 134.118 975.884 133.532 991.993 134.45C1019.82 136.037 1049.75 142.056 1083.48 152.85C1116.36 163.358 1143.39 173.249 1168.55 183.978C1204.18 199.193 1238.12 216.723 1266.63 231.864C1332.9 267.165 1397.92 307.25 1459.88 351.006L1459.75 351.116C1397.79 307.366 1332.77 267.284 1266.52 231.987C1238.01 216.848 1204.08 199.321 1168.45 184.111C1143.3 173.385 1116.28 163.496 1083.4 152.992C1009.93 129.476 951.308 128.01 898.933 148.378C844.574 169.542 805.862 206.778 773.844 240.018C770.412 243.581 767.053 247.113 764.219 250.099C762.928 251.458 761.637 252.819 760.346 254.182C728.981 287.255 696.549 321.456 651.407 343.608C640.214 349.078 628.303 353.423 616.005 356.521C604.556 359.402 593.271 361.068 582.387 361.487Z" fill="#A1A1A1"/>
<path d="M582.517 353.342C580.938 353.342 579.368 353.316 577.81 353.263C564.69 352.825 552.549 350.547 541.724 346.49C529.885 342.053 519.628 335.481 511.24 326.956C510.495 326.196 509.752 325.411 509.035 324.621C496.224 310.513 489.096 293.907 482.206 277.85C480.77 274.503 479.283 271.041 477.777 267.683C469.012 248.09 458.69 230.902 446.215 215.136C444.672 213.187 443.074 211.231 441.462 209.326C412.03 174.513 371.167 145.047 323.294 124.114C267.591 99.797 208.216 88.2912 156.108 91.7209C126.769 93.6823 86.4641 106.569 67.3006 130.226C56.2288 143.894 54.6172 159.089 62.6392 174.167L62.454 174.223C58.2508 166.323 56.6471 158.413 57.683 150.712C58.6352 143.63 61.8145 136.712 67.1313 130.148C75.5178 119.795 88.982 110.569 106.07 103.463C121.867 96.8949 139.632 92.6722 156.09 91.5717C183.391 89.7762 212.561 92.0315 242.786 98.2759C270.147 103.929 297.266 112.578 323.394 123.985C371.295 144.931 412.179 174.413 441.63 209.246C443.241 211.153 444.841 213.108 446.385 215.06C458.865 230.836 469.194 248.034 477.963 267.637C479.469 270.998 480.955 274.459 482.391 277.806C489.28 293.854 496.401 310.448 509.196 324.539C509.913 325.329 510.652 326.113 511.397 326.87C545.483 361.511 605.89 357.792 650.633 338.741C697.626 318.556 732.548 285.008 766.321 252.565L766.668 252.231C769.939 249.087 773.321 245.836 776.688 242.627C812.212 208.766 851.258 173.968 903.39 153.186C918.025 147.364 933.446 143.089 949.219 140.479C963.89 138.052 979.359 136.986 995.193 137.312C1022.8 137.878 1052.38 142.579 1085.62 151.682C1120.55 161.214 1146.84 169.976 1170.85 180.094C1205.07 194.538 1238.22 212.79 1267.46 228.894C1332.57 264.942 1396.6 305.55 1457.77 349.588L1457.63 349.696C1396.47 305.663 1332.44 265.059 1267.34 229.015C1238.1 212.914 1204.96 194.664 1170.76 180.225C1146.75 170.111 1120.47 161.351 1085.55 151.822C1013.5 132.091 955.647 132.566 903.482 153.318C851.384 174.086 812.353 208.869 776.843 242.717C773.477 245.927 770.094 249.178 766.823 252.322L766.477 252.655C749.646 268.822 732.243 285.54 713.45 300.472C692.331 317.253 671.815 329.813 650.729 338.869C628.669 348.261 604.639 353.342 582.517 353.342Z" fill="#A1A1A1"/>
<path d="M1455.53 348.275C1395.15 303.958 1332.12 262.832 1268.18 226.042C1265.47 224.495 1262.75 222.94 1260.03 221.382C1232.33 205.519 1203.69 189.116 1173.07 176.338C1143.36 163.976 1113.25 156.417 1087.71 150.654C1017.21 134.646 960.125 137.063 908.039 158.256C854.57 180.077 813.14 216.306 779.851 245.417C777.853 247.164 775.859 248.915 773.861 250.666C772.386 251.96 770.91 253.253 769.434 254.545C750.48 271.138 733.239 285.972 714.189 299.509C692.426 314.972 671.45 326.297 650.057 334.132C630.009 341.475 608.592 345.36 588.672 345.362C585.043 345.362 581.467 345.234 577.953 344.973C565.124 344.022 553.247 341.349 542.654 337.028C531.094 332.314 521.04 325.617 512.767 317.123C512.028 316.362 511.291 315.575 510.578 314.784C497.918 300.75 490.514 284.377 483.355 268.545C481.813 265.135 480.217 261.607 478.604 258.183C469.42 238.652 458.831 221.602 446.233 206.056C444.665 204.121 443.042 202.184 441.408 200.295C411.553 165.788 370.366 136.705 322.3 116.19C266.202 92.3027 206.662 81.3169 154.645 85.2547C119.085 88 82.7224 103.959 66.2164 124.063C54.9713 137.759 52.9772 153.002 60.4454 168.144L60.2581 168.197C56.3478 160.269 54.9852 152.334 56.2083 144.614C57.3338 137.506 60.6446 130.565 66.047 123.983C74.5212 113.661 87.9416 104.434 104.858 97.3033C120.504 90.7076 138.177 86.3748 154.625 85.1055C181.894 83.0401 211.094 85.0286 241.413 91.0137C268.839 96.4289 296.088 104.855 322.399 116.058C370.495 136.585 411.705 165.684 441.577 200.212C443.213 202.103 444.836 204.041 446.404 205.976C459.01 221.531 469.603 238.591 478.793 258.13C480.406 261.556 482.002 265.082 483.544 268.493C490.699 284.317 498.1 300.679 510.743 314.696C511.456 315.486 512.191 316.272 512.928 317.031C548.512 353.566 608.993 349.003 649.971 333.995C698.862 316.088 736.275 283.34 769.285 254.446C770.761 253.152 772.235 251.859 773.711 250.567C775.707 248.815 777.703 247.065 779.701 245.317C798.703 228.701 817.468 212.553 838.098 197.673C861.821 180.561 884.67 167.624 907.947 158.124C922.429 152.23 937.63 147.733 953.131 144.759C967.617 141.977 982.848 140.434 998.402 140.168C1025.83 139.701 1055.07 143.084 1087.77 150.509C1113.31 156.275 1143.44 163.837 1173.17 176.207C1203.81 188.99 1232.45 205.397 1260.15 221.262C1262.88 222.821 1265.59 224.376 1268.3 225.922C1332.25 262.716 1395.29 303.846 1455.67 348.167L1455.53 348.275Z" fill="#A1A1A1"/>
<path d="M1453.41 346.854C1392.7 301.407 1330.66 259.759 1269.01 223.069C1265.32 220.874 1261.54 218.611 1257.9 216.423C1231.76 200.756 1204.73 184.556 1175.38 172.452C1146.06 160.408 1115.7 154.082 1089.86 149.484C1021.08 137.126 964.754 141.483 912.592 163.195C862.839 183.98 823.86 215.235 786.165 245.461L782.025 248.779C778.757 251.4 775.376 254.11 772.043 256.767C734.31 286.82 696.537 314.986 649.383 329.392C637.941 332.888 626.192 335.311 614.459 336.597C601.859 337.976 589.62 337.996 578.08 336.654C565.546 335.196 553.938 332.134 543.58 327.553C532.307 322.567 522.454 315.749 514.299 307.288C513.563 306.522 512.832 305.734 512.125 304.944C499.621 290.993 491.95 274.861 484.531 259.261C482.876 255.78 481.163 252.18 479.434 248.684C469.824 229.213 458.971 212.3 446.254 196.977C444.665 195.062 443.017 193.14 441.358 191.266C411.083 157.065 369.57 128.365 321.307 108.268C264.813 84.813 205.105 74.3444 153.179 78.7932C117.943 81.8762 81.7458 97.947 65.156 117.876C53.7237 131.607 51.3352 146.909 58.2476 162.128L58.0583 162.177C54.4408 154.214 53.3233 146.25 54.7356 138.507C56.0384 131.369 59.4866 124.401 64.9847 117.797C73.5505 107.51 86.9231 98.2923 103.66 91.1403C119.15 84.5205 136.728 80.0837 153.155 78.6455C180.392 76.3117 209.621 78.0319 240.036 83.7577C267.53 88.9347 294.905 97.1359 321.401 108.137C369.692 128.245 411.228 156.963 441.521 191.183C443.181 193.059 444.83 194.982 446.42 196.897C459.145 212.228 470.003 229.15 479.617 248.631C481.346 252.127 483.059 255.729 484.715 259.21C492.129 274.801 499.796 290.925 512.287 304.859C512.992 305.646 513.723 306.433 514.456 307.199C549.183 343.226 606.885 342.214 649.305 329.253C696.421 314.859 734.179 286.703 771.896 256.665C775.229 254.007 778.609 251.298 781.878 248.676L786.018 245.358C804.522 230.522 823.653 215.179 844.432 200.907C867.966 184.743 890.229 172.364 912.492 163.062C926.827 157.095 941.813 152.377 957.033 149.039C971.341 145.9 986.336 143.877 1001.6 143.025C1028.91 141.501 1057.79 143.566 1089.9 149.336C1115.75 153.937 1146.14 160.264 1175.47 172.319C1204.84 184.428 1231.87 200.633 1258.02 216.304C1261.67 218.492 1265.44 220.753 1269.13 222.949C1330.78 259.642 1392.83 301.294 1453.55 346.746L1453.41 346.854Z" fill="#A1A1A1"/>
<path d="M1451.3 345.434C1391.11 299.482 1330.06 257.312 1269.84 220.097C1265.31 217.301 1260.67 214.392 1256.19 211.581C1231.46 196.083 1205.89 180.057 1177.68 168.568C1148.51 156.731 1118.01 151.688 1092.01 148.317C1025.14 139.511 969.577 145.81 917.144 168.137C871.387 187.704 833.819 215.434 797.486 242.251C793.663 245.073 789.709 247.99 785.856 250.817C781.332 254.137 777.876 256.659 774.651 258.993C757.378 271.484 736.812 285.868 715.23 297.832C692.36 310.51 670.601 319.284 648.708 324.657C637.196 327.482 625.497 329.264 613.933 329.951C601.516 330.69 589.494 330.147 578.203 328.337C565.97 326.375 554.634 322.925 544.504 318.081C533.52 312.828 523.872 305.887 515.829 297.454C515.103 296.69 514.376 295.9 513.671 295.107C501.332 281.249 493.404 265.367 485.735 250.007C483.956 246.445 482.117 242.762 480.263 239.185C470.221 219.768 459.103 202.994 446.272 187.898C444.659 186 442.987 184.096 441.304 182.237C410.609 148.342 368.77 120.025 320.311 100.346C263.424 77.3218 203.55 67.3733 151.715 72.3302C122.22 75.2127 83.6981 88.4915 64.1243 111.657C52.4867 125.43 49.6939 140.801 56.0505 156.108L55.8613 156.153C52.5365 148.149 51.668 140.15 53.2776 132.377C54.7636 125.203 58.3553 118.204 63.9569 111.576C72.6144 101.33 85.9372 92.1277 102.489 84.9607C117.824 78.3213 135.296 73.7835 151.691 72.181C178.896 69.5789 208.157 71.0307 238.663 76.4972C266.223 81.436 293.725 89.4141 320.405 100.213C368.891 119.903 410.754 148.237 441.467 182.151C443.151 184.01 444.824 185.917 446.438 187.817C459.274 202.92 470.398 219.704 480.446 239.129C482.302 242.708 484.141 246.391 485.92 249.953C493.583 265.305 501.51 281.178 513.834 295.021C514.54 295.812 515.265 296.601 515.99 297.364C544.881 327.657 594.472 337.806 648.646 324.51C697.706 312.471 737.726 285.487 774.514 258.881C777.739 256.547 781.193 254.025 785.717 250.705C789.569 247.879 793.524 244.962 797.346 242.139C815.233 228.938 833.727 215.286 853.454 202.504C875.761 188.047 896.564 176.762 917.048 168.003C931.246 161.957 946.013 157.017 960.943 153.32C975.085 149.818 989.842 147.317 1004.8 145.883C1032.05 143.275 1060.59 144.022 1092.05 148.164C1118.05 151.538 1148.58 156.583 1177.78 168.431C1206 179.928 1231.58 195.958 1256.31 211.46C1260.8 214.272 1265.44 217.18 1269.96 219.976C1330.18 257.196 1391.24 299.369 1451.44 345.324L1451.3 345.434Z" fill="#A1A1A1"/>
<path d="M1449.19 344.014C1389.52 297.554 1329.46 254.861 1270.67 217.124C1265.66 213.915 1260.53 210.545 1255.56 207.287C1231.89 191.768 1207.43 175.722 1179.99 164.682C1150.79 152.986 1120.22 149.255 1094.17 147.147C1030.33 141.845 973.911 150.327 921.695 173.076C880.119 191.272 844.48 215.615 810.013 239.158C803.051 243.913 795.854 248.83 788.856 253.517C784.575 256.386 780.782 258.905 777.256 261.218C760.86 271.961 739.049 285.736 715.742 296.993C692.323 308.303 670.174 315.803 648.028 319.92C623.875 324.411 599.769 324.444 578.319 320.018C566.392 317.556 555.324 313.718 545.422 308.609C534.731 303.093 525.288 296.031 517.354 287.623C516.635 286.857 515.914 286.066 515.213 285.273C503.049 271.521 494.874 255.899 486.969 240.793C485.057 237.139 483.081 233.361 481.087 229.69C470.605 210.325 459.222 193.686 446.288 178.824C444.65 176.943 442.955 175.055 441.248 173.213C410.132 139.624 367.969 111.689 319.315 92.4295C262.036 69.8385 201.993 60.4086 150.248 65.8735C115.18 69.6576 80.1659 85.5474 63.122 105.411C51.2613 119.234 48.0561 134.685 53.853 150.094L53.6617 150.135C50.6318 142.083 50.0143 134.042 51.8251 126.235C53.4984 119.02 57.2434 111.986 62.9546 105.328C71.7037 95.1311 84.9747 85.95 101.333 78.7769C116.507 72.1239 133.869 67.4866 150.22 65.7228C177.394 62.8523 206.687 64.0373 237.286 69.243C264.914 73.9436 292.544 81.6986 319.407 92.2939C368.088 111.565 410.276 139.516 441.411 173.126C443.119 174.968 444.814 176.857 446.453 178.74C459.394 193.611 470.782 210.257 481.27 229.631C483.264 233.302 485.24 237.082 487.153 240.736C495.053 255.835 503.224 271.449 515.376 285.187C516.077 285.98 516.796 286.769 517.515 287.534C545.91 317.632 594.681 329.683 647.98 319.774C696.57 310.739 738.766 286.236 777.125 261.105C780.649 258.792 784.443 256.275 788.722 253.406C795.718 248.719 802.918 243.803 809.878 239.048C844.352 215.501 879.998 191.152 921.594 172.948C935.666 166.816 950.218 161.656 964.845 157.607C978.835 153.735 993.355 150.755 1008 148.748C1035.24 145.017 1063.43 144.446 1094.18 146.999C1120.26 149.108 1150.86 152.841 1180.08 164.551C1207.54 175.598 1232.02 191.651 1255.69 207.176C1260.66 210.434 1265.79 213.802 1270.8 217.011C1329.59 254.751 1389.66 297.447 1449.33 343.91L1449.19 344.014Z" fill="#A1A1A1"/>
<path d="M1447.08 342.594C1387.94 295.621 1328.86 252.407 1271.5 214.153C1266.23 210.637 1260.8 206.915 1255.56 203.315C1232.76 187.665 1209.18 171.481 1182.3 160.796C1152.98 149.2 1122.38 146.799 1096.32 145.978C1034.89 143.904 979.26 154.383 926.247 178.016C889.07 194.669 855.928 215.745 823.876 236.126C812.856 243.134 802.446 249.754 791.858 256.217C787.551 258.848 783.629 261.212 779.864 263.441C755.571 277.816 735.36 288.209 716.256 296.148C692.29 306.109 669.752 312.335 647.353 315.182C638.664 316.285 630.006 316.835 621.506 316.835C606.438 316.835 591.859 315.111 578.436 311.695C554.145 305.512 534.109 294.104 518.884 277.788C518.167 277.014 517.452 276.223 516.758 275.433C504.78 261.8 496.376 246.456 488.248 231.615C486.189 227.855 484.061 223.969 481.916 220.189C470.985 200.869 459.336 184.369 446.308 169.744C444.646 167.879 442.927 166.008 441.196 164.182C409.66 130.9 367.17 103.347 318.321 84.5054C260.649 62.3485 200.442 53.4357 148.786 59.4087C113.572 63.5651 79.5683 79.1535 62.1598 99.1229C50.0581 113.003 46.4286 128.546 51.6597 144.073L51.4665 144.111C48.7354 136.003 48.3729 127.913 50.3908 120.066C52.2593 112.803 56.1618 105.729 61.9945 99.04C70.8352 88.8985 84.0484 79.7475 100.208 72.5744C115.218 65.9109 132.459 61.1831 148.756 59.2595C175.898 56.1207 205.223 57.0373 235.914 61.9837C263.609 66.4476 291.365 73.9795 318.413 84.3697C367.289 103.223 409.804 130.791 441.36 164.094C443.091 165.921 444.81 167.792 446.473 169.658C459.509 184.291 471.165 200.8 482.099 220.127C484.244 223.907 486.374 227.795 488.432 231.555C496.555 246.388 504.956 261.726 516.924 275.347C517.617 276.135 518.33 276.927 519.047 277.699C547.478 308.17 594.231 321.777 647.319 315.031C697.855 308.609 742.617 285.288 779.74 263.321C783.503 261.091 787.426 258.729 791.732 256.098C802.318 249.635 812.729 243.017 823.749 236.008C855.805 215.623 888.954 194.544 926.146 177.885C940.112 171.659 954.447 166.276 968.754 161.886C982.61 157.635 996.893 154.175 1011.2 151.605C1038.5 146.704 1066.34 144.813 1096.33 145.826C1122.41 146.646 1153.04 149.051 1182.39 160.661C1209.3 171.352 1232.88 187.544 1255.69 203.2C1260.93 206.8 1266.36 210.522 1271.63 214.037C1329 252.294 1388.08 295.512 1447.22 342.488L1447.08 342.594Z" fill="#A1A1A1"/>
<path d="M1444.97 341.174C1385.53 293.016 1329.06 250.495 1272.33 211.18C1266.91 207.429 1261.58 203.598 1255.94 199.543C1233.88 183.689 1211.07 167.297 1184.6 156.912C1154.92 145.32 1122.98 144.355 1098.47 144.81C1039.84 145.757 984.995 158.235 930.8 182.958C898.283 197.864 868.261 215.763 839.227 233.075C823.968 242.173 809.556 250.764 794.858 258.919C790.496 261.342 786.442 263.549 782.47 265.667C757.846 278.777 736.97 288.193 716.766 295.303C692.244 303.932 669.318 308.885 646.676 310.443C635.043 311.244 623.489 311.093 612.335 309.996C600.526 308.833 589.16 306.604 578.552 303.37C555.04 296.201 535.48 284.287 520.414 267.955C519.703 267.18 518.994 266.387 518.305 265.598C506.528 252.105 497.912 237.053 489.579 222.497C487.356 218.614 485.057 214.598 482.745 210.693C471.356 191.416 459.444 175.052 446.326 160.669C444.639 158.82 442.896 156.966 441.145 155.157C409.188 122.18 366.373 95.0105 317.329 76.5863C272.062 59.6517 225.38 50.8158 182.573 50.8158C170.472 50.8158 158.689 51.5213 147.324 52.949C112.535 57.4054 78.744 73.0496 61.2339 92.8049C48.8752 106.75 44.8055 122.399 49.4649 138.058L49.2697 138.091C46.8374 129.92 46.7358 121.774 48.9669 113.882C51.0346 106.566 55.1063 99.4458 61.0665 92.7204C69.9989 82.6423 83.1504 73.529 99.1027 66.3634C114.161 59.5989 130.824 54.9089 147.288 52.8013C174.398 49.3941 203.755 50.0439 234.54 54.7295C262.301 58.9537 290.186 66.2609 317.417 76.4491C366.489 94.8838 409.33 122.068 441.306 155.065C443.059 156.874 444.804 158.73 446.492 160.58C459.615 174.971 471.534 191.342 482.928 210.628C485.241 214.533 487.542 218.549 489.765 222.434C498.093 236.984 506.705 252.029 518.472 265.512C519.161 266.3 519.87 267.093 520.58 267.866C548.753 298.405 594.706 313.867 646.66 310.291C699.232 306.671 746.794 284.474 782.358 265.54C786.331 263.422 790.382 261.215 794.745 258.794C809.44 250.642 823.851 242.049 839.108 232.952C868.146 215.639 898.172 197.735 930.7 182.825C958.603 170.097 985.983 160.821 1014.41 154.465C1041.82 148.335 1069.32 145.127 1098.47 144.657C1115.1 144.347 1128.67 144.884 1141.17 146.344C1157.31 148.228 1171.55 151.64 1184.7 156.774C1211.19 167.169 1234.01 183.57 1256.08 199.431C1261.72 203.487 1267.05 207.316 1272.47 211.067C1329.2 250.383 1385.68 292.907 1445.11 341.068L1444.97 341.174Z" fill="#A1A1A1"/>
<path d="M1442.85 339.754C1383.96 291.068 1328.46 248.04 1273.16 208.207C1267.69 204.266 1262.29 200.206 1256.58 195.908C1235.18 179.804 1213.06 163.15 1186.91 153.025C1156.98 141.487 1125.08 141.949 1100.63 143.639C1045.3 147.331 991.234 161.808 935.351 187.895C907.817 200.811 881.602 215.591 856.249 229.886C836.207 241.185 817.279 251.859 797.86 261.614C793.472 263.821 789.169 265.932 785.075 267.886C760.404 279.651 738.227 288.339 717.276 294.448C692.19 301.763 668.875 305.444 645.999 305.7C634.359 305.83 622.851 305.034 611.801 303.332C600.218 301.547 589.07 298.756 578.668 295.036C555.962 286.914 536.877 274.493 521.942 258.117C521.241 257.343 520.536 256.549 519.849 255.754C508.293 242.426 499.49 227.692 490.976 213.444C488.568 209.413 486.075 205.243 483.571 201.189C471.717 181.948 459.539 165.723 446.344 151.585C444.633 149.753 442.866 147.916 441.091 146.123C408.714 113.452 365.573 86.6657 316.333 68.6591C257.879 47.3721 197.335 39.4965 145.858 46.4826C111.519 51.224 77.9532 66.9088 60.3455 86.4395C47.708 100.459 43.1861 116.225 47.2658 132.036L47.0705 132.065C44.943 123.823 45.1064 115.614 47.5586 107.668C49.8355 100.291 54.0806 93.1196 60.1802 86.3536C69.2002 76.3478 82.2859 67.2797 98.0231 60.1293C112.908 53.3663 129.436 48.5963 145.822 46.3334C172.902 42.6594 202.289 43.0393 233.165 47.4656C260.994 51.4546 289.004 58.5388 316.419 68.5219C365.688 86.5375 408.854 113.341 441.248 146.031C443.025 147.824 444.794 149.663 446.505 151.496C459.709 165.642 471.89 181.874 483.751 201.123C486.257 205.176 488.747 209.346 491.157 213.379C499.667 227.621 508.466 242.349 520.014 255.668C520.701 256.461 521.406 257.256 522.106 258.028C550.576 289.247 594.574 306.125 645.995 305.547C687.718 305.079 731.878 293.07 784.968 267.755C789.06 265.801 793.36 263.692 797.749 261.485C817.161 251.73 836.09 241.06 856.128 229.761C881.484 215.464 907.704 200.681 935.246 187.762C963.421 174.609 990.362 164.653 1017.61 157.321C1045.21 149.895 1072.36 145.368 1100.61 143.483C1125.08 141.79 1157.03 141.33 1187 152.886C1213.18 163.023 1235.31 179.685 1256.72 195.796C1262.43 200.094 1267.83 204.153 1273.29 208.092C1328.6 247.927 1384.11 290.958 1443 339.647L1442.85 339.754Z" fill="#A1A1A1"/>
<path d="M1440.74 338.333C1382.4 289.118 1327.86 245.581 1273.99 205.235C1268.52 201.139 1263.12 196.883 1257.41 192.377C1236.61 175.985 1215.11 159.035 1189.22 149.14C1159.01 137.644 1127.16 139.536 1102.78 142.469C1050.72 148.612 998.969 164.617 939.905 192.835C917.754 203.467 896.106 215.129 875.172 226.408C849.745 240.106 825.729 253.045 800.862 264.314C796.382 266.346 791.948 268.297 787.683 270.109C762.569 280.774 739.706 288.457 717.788 293.594C705.511 296.472 693.391 298.557 681.766 299.792C669.365 301.108 657.104 301.502 645.323 300.962C621.421 299.866 599.034 295.069 578.787 286.705C556.92 277.671 538.311 264.745 523.476 248.283C522.779 247.503 522.079 246.707 521.396 245.917C510.087 232.785 501.127 218.401 492.464 204.492C489.84 200.281 487.129 195.927 484.402 191.691C472.069 172.482 459.627 156.394 446.364 142.508C444.629 140.691 442.836 138.87 441.039 137.096C408.242 104.729 364.776 78.3258 315.341 60.7398C256.496 39.8885 195.786 32.5315 144.396 40.0227C89.3694 48.1681 35.7495 83.3626 45.0723 126.02L44.8751 126.044C42.5424 115.373 43.909 104.861 48.9349 94.796C53.5246 85.6043 61.0565 76.9539 71.3215 69.0873C80.8654 61.7725 92.3157 55.4573 105.352 50.3164C117.75 45.4274 131.238 41.8152 144.356 39.8734C171.404 35.9311 200.822 36.0442 231.793 40.2111C259.689 43.9635 287.827 50.8245 315.425 60.6042C364.887 78.2021 408.38 104.621 441.197 137.005C442.995 138.781 444.788 140.602 446.525 142.42C459.794 156.313 472.242 172.409 484.581 191.626C487.308 195.863 490.02 200.217 492.643 204.429C501.305 218.333 510.261 232.711 521.564 245.836C522.245 246.626 522.942 247.422 523.639 248.2C552.151 279.838 595.371 298.521 645.335 300.813C687.634 302.75 734.165 292.666 787.585 269.98C791.848 268.168 796.281 266.218 800.761 264.186C825.621 252.92 849.634 239.982 875.056 226.286C895.992 215.006 917.642 203.342 939.797 192.709C998.886 164.478 1050.66 148.467 1102.75 142.319C1119.13 140.349 1132.69 139.719 1145.43 140.338C1161.71 141.13 1176.06 143.964 1189.31 149.004C1215.23 158.91 1236.74 175.871 1257.55 192.272C1263.26 196.776 1268.66 201.032 1274.13 205.127C1328 245.476 1382.55 289.014 1440.89 338.232L1440.74 338.333Z" fill="#A1A1A1"/>
<path d="M1438.63 336.913C1380.84 287.162 1327.26 243.118 1274.82 202.263C1269.39 198.035 1264.03 193.608 1258.35 188.917C1238.12 172.212 1217.21 154.937 1191.53 145.253C1160.66 133.662 1127.32 137.444 1104.93 141.298C1044.17 151.627 989.712 175.643 944.459 197.776C928.194 205.763 911.971 214.224 896.28 222.405C864.803 238.818 835.074 254.321 803.867 267.015C799.277 268.882 794.711 270.672 790.293 272.335C764.689 281.952 741.141 288.627 718.304 292.74C692.416 297.403 667.637 298.576 644.65 296.224C621.037 293.807 598.917 287.801 578.909 278.371C557.923 268.481 539.789 255.05 525.008 238.45C524.319 237.671 523.624 236.874 522.944 236.081C511.916 223.189 502.845 209.2 494.07 195.671C491.195 191.238 488.221 186.655 485.233 182.194C472.235 162.743 459.89 147.249 446.386 133.431C444.627 131.631 442.812 129.828 440.99 128.069C407.768 96.0099 363.975 69.989 314.345 52.8192C255.11 32.4051 194.233 25.5652 142.93 33.5614C87.7063 42.2828 35.182 76.9993 42.8753 120.003L42.6781 120.023C40.7697 109.353 42.4211 98.8517 47.5845 88.8097C52.3176 79.6089 59.8933 70.9494 70.1045 63.0738C79.6265 55.7289 91.017 49.3669 103.961 44.1612C116.286 39.2043 129.748 35.4881 142.89 33.4122C169.908 29.2015 199.356 29.0477 230.418 32.9539C258.383 36.4695 286.648 43.1074 314.429 52.682C364.089 69.8609 407.906 95.8968 441.143 127.975C442.966 129.736 444.782 131.54 446.543 133.341C460.055 147.165 472.404 162.667 485.408 182.126C488.396 186.587 491.37 191.171 494.245 195.605C503.018 209.13 512.088 223.114 523.108 235.999C523.787 236.792 524.48 237.588 525.169 238.368C553.903 270.636 596.343 291.13 644.674 296.075C688.021 300.51 735.623 292.699 790.203 272.199C794.62 270.538 799.185 268.75 803.771 266.882C834.97 254.191 864.696 238.692 896.166 222.28C911.857 214.099 928.083 205.636 944.35 197.648C974.78 182.767 1000.1 171.772 1024.01 163.047C1052.17 152.778 1078.62 145.615 1104.89 141.15C1120.9 138.394 1134.86 137.146 1147.56 137.336C1163.91 137.58 1178.32 140.125 1191.62 145.118C1217.33 154.813 1238.26 172.099 1258.5 188.815C1264.18 193.503 1269.54 197.931 1274.96 202.156C1327.41 243.012 1380.99 287.059 1438.78 336.812L1438.63 336.913Z" fill="#A1A1A1"/>
<path d="M1436.52 335.492C1379.29 285.202 1326.67 240.65 1275.65 199.288C1270.3 194.951 1265.01 190.369 1259.4 185.518C1239.7 168.476 1219.34 150.854 1193.84 141.367C1162.63 129.802 1129.38 135.119 1107.09 140.126C1052.03 152.384 1002.93 175.724 949.013 202.715C939.29 207.601 929.455 212.643 919.943 217.522C883.361 236.282 845.536 255.68 806.869 269.713C802.171 271.419 797.47 273.049 792.898 274.557C767.121 283.047 742.197 288.876 718.816 291.88C692.33 295.284 667.15 295.15 643.971 291.484C620.688 287.801 598.837 280.584 579.024 270.034C558.974 259.357 541.313 245.423 526.532 228.618C525.849 227.837 525.159 227.038 524.484 226.245C513.789 213.655 504.659 200.122 495.831 187.034C492.649 182.319 489.36 177.443 486.056 172.699C472.55 153.267 459.948 137.907 446.398 124.357C444.619 122.578 442.778 120.79 440.93 119.044C407.294 87.2868 363.178 61.6489 313.349 44.8982C253.725 24.9213 192.683 18.6 141.464 27.0997C87.9931 36.0698 34.4988 69.5682 40.6761 113.985L40.4789 114C38.9948 103.33 40.9311 92.8407 46.2319 82.8213C51.1064 73.61 58.728 64.943 68.8835 57.0583C87.6206 42.5132 114.059 31.5395 141.42 26.9505C168.406 22.473 197.886 22.0508 229.042 25.6962C257.074 28.9766 285.465 35.3899 313.429 44.7595C363.286 61.5192 407.428 87.1737 441.085 118.946C442.936 120.693 444.776 122.481 446.557 124.262C460.113 137.819 472.721 153.186 486.231 172.625C489.536 177.371 492.827 182.246 496.008 186.962C504.835 200.046 513.962 213.577 524.651 226.16C525.325 226.953 526.014 227.751 526.697 228.532C556.269 262.154 596.835 283.871 644.009 291.335C687.69 298.245 737.755 292.554 792.815 274.418C797.384 272.91 802.082 271.282 806.777 269.577C845.431 255.549 883.252 236.154 919.826 217.397C929.337 212.518 939.172 207.475 948.897 202.589C972.497 190.775 999.958 177.223 1027.21 165.909C1055.72 154.074 1081.83 145.594 1107.03 139.983C1122.89 136.42 1136.85 134.572 1149.68 134.334C1165.87 134.032 1180.75 136.354 1193.92 141.232C1205.34 145.482 1216.84 151.825 1229.07 160.623C1239.87 168.392 1249.87 177.048 1259.54 185.418C1265.15 190.268 1270.44 194.85 1275.79 199.185C1326.81 240.549 1379.44 285.102 1436.67 335.394L1436.52 335.492Z" fill="#A1A1A1"/>
<path d="M1434.4 334.071C1377.74 283.239 1326.08 238.179 1276.48 196.316C1271.23 191.884 1266.02 187.164 1260.52 182.168C1241.33 164.772 1221.5 146.783 1196.14 137.483C1172.45 128.819 1144.02 129.302 1109.24 138.958C1060.61 152.383 1017.14 174.838 971.117 198.614C965.386 201.575 959.461 204.635 953.565 207.658C951.256 208.844 948.945 210.034 946.637 211.222C902.784 233.789 857.439 257.125 809.871 272.414C805.062 273.961 800.229 275.431 795.506 276.782C769.163 284.309 743.536 289.1 719.336 291.021C692.239 293.171 666.655 291.733 643.3 286.745C620.379 281.85 598.798 273.423 579.154 261.697C560.114 250.331 542.927 235.895 528.068 218.785C527.391 218.003 526.708 217.202 526.036 216.408C515.747 204.213 506.648 191.225 497.845 178.666C494.281 173.579 490.594 168.319 486.891 163.199C472.863 143.782 460.006 128.554 446.424 115.278C444.619 113.514 442.757 111.744 440.884 110.015C406.822 78.5655 362.38 53.309 312.355 36.9774C252.345 17.4392 191.134 11.635 140 20.6382C87.5113 29.9566 34.0926 63.7294 38.4811 107.968L38.2819 107.98C37.2241 97.3092 39.4433 86.8315 44.8815 76.8378C49.8995 67.6159 57.5649 58.9383 67.6666 51.0476C86.3241 36.4723 112.671 25.3359 139.954 20.492C166.91 15.7461 196.42 15.0557 227.668 18.4417C255.767 21.484 284.288 27.6741 312.435 36.8387C362.487 53.1808 406.958 78.4509 441.034 109.917C442.906 111.646 444.773 113.419 446.577 115.183C460.165 128.466 473.03 143.699 487.062 163.124C490.767 168.244 494.452 173.505 498.018 178.592C506.817 191.148 515.917 204.133 526.202 216.323C526.873 217.118 527.554 217.917 528.231 218.699C558.445 253.488 598.252 276.966 643.352 286.596C687.872 296.103 739.04 292.752 795.434 276.637C800.154 275.286 804.984 273.818 809.791 272.273C857.343 256.989 902.68 233.658 946.523 211.094C948.834 209.904 951.143 208.716 953.451 207.53C959.348 204.507 965.272 201.447 971.003 198.487C1017.04 174.707 1060.52 152.245 1109.17 138.814C1124.88 134.451 1138.84 132.005 1151.82 131.331C1168.07 130.488 1183.01 132.513 1196.23 137.346C1207.59 141.511 1218.94 147.882 1230.94 156.824C1241.53 164.713 1251.26 173.537 1260.67 182.07C1266.18 187.064 1271.38 191.783 1276.63 196.214C1326.23 238.078 1377.89 283.139 1434.56 333.973L1434.4 334.071Z" fill="#A1A1A1"/>
<path d="M1432.29 332.651C1380.57 285.283 1328.43 238.413 1277.31 193.344C1272.11 188.782 1266.95 183.881 1261.49 178.693C1243.73 161.817 1223.6 142.691 1198.45 133.598C1174.48 124.949 1146 126.32 1111.39 137.786C1070.24 151.376 1033.82 171.357 995.269 192.511C983.195 199.136 970.709 205.988 958.115 212.597C936.133 224.159 912.354 236.393 887.427 247.535C860.732 259.469 836.344 268.489 812.867 275.113C807.935 276.505 802.971 277.815 798.108 279.004C771.208 285.582 744.883 289.325 719.865 290.13C692.169 291.02 666.181 288.288 642.619 282.004C599.109 270.257 561.081 245.679 529.592 208.952C528.921 208.168 528.244 207.366 527.576 206.571C517.809 194.915 508.869 182.617 500.224 170.724C496.154 165.126 491.947 159.337 487.714 153.703C473.152 134.29 460.036 119.196 446.438 106.203C444.608 104.454 442.721 102.7 440.827 100.989C406.35 69.8428 361.581 44.9707 311.362 29.0567C250.963 9.95572 189.586 4.67166 138.536 14.1769C85.7288 24.0652 33.6487 57.3902 36.2842 101.951L36.085 101.957C35.4535 91.2836 37.9595 80.818 43.5313 70.8499C48.6947 61.6159 56.4039 52.9293 66.4478 45.0326C75.91 37.5927 87.1252 31.0875 99.7807 25.6964C112.068 20.4635 125.09 16.5378 138.486 14.0292C165.413 9.0165 194.955 8.05768 226.293 11.1829C254.461 13.9915 283.107 19.957 311.438 28.9165C361.687 44.8396 406.482 69.7267 440.978 100.888C442.873 102.601 444.763 104.356 446.594 106.105C460.197 119.106 473.319 134.206 487.887 153.625C492.12 159.26 496.327 165.049 500.397 170.649C509.042 182.54 517.981 194.836 527.744 206.488C528.409 207.284 529.088 208.085 529.758 208.869C561.222 245.568 599.216 270.126 642.685 281.861C687.46 293.801 741.183 292.764 798.046 278.86C802.905 277.67 807.869 276.362 812.797 274.972C865.286 260.163 913.31 235.976 958 212.472C970.593 205.863 983.078 199.012 995.151 192.388C1033.72 171.229 1070.14 151.243 1111.31 137.648C1145.98 126.163 1174.51 124.793 1198.54 133.461C1209.8 137.533 1220.98 143.916 1232.72 152.972C1243.08 160.958 1252.52 169.926 1261.64 178.598C1267.1 183.786 1272.26 188.685 1277.46 193.244C1328.58 238.315 1380.73 285.185 1432.45 332.555L1432.29 332.651Z" fill="#A1A1A1"/>
<path d="M1430.18 331.231C1379.25 283.601 1328.1 236.208 1278.14 190.37C1273.1 185.759 1268.1 180.772 1262.8 175.492C1245.48 158.223 1225.84 138.648 1200.76 129.71C1176.5 121.076 1147.97 123.334 1113.54 136.612C1077.47 150.503 1044.33 170.116 1012.29 189.086C996.217 198.597 979.599 208.433 962.667 217.534C935.941 231.913 913.455 242.882 891.899 252.056C865.319 263.367 840.449 271.792 815.869 277.81C810.823 279.046 805.723 280.195 800.713 281.225C774.61 286.587 748.976 289.301 724.454 289.302C723.091 289.302 721.737 289.293 720.382 289.277C692.031 288.927 665.641 284.884 641.943 277.261C630.505 273.562 619.304 268.866 608.652 263.303C598.64 258.074 588.802 251.916 579.409 244.999C562.511 232.556 546.714 217.546 531.12 199.116C530.451 198.323 529.783 197.528 529.12 196.731C520.072 185.857 511.512 174.49 503.235 163.496C498.456 157.151 493.516 150.588 488.54 144.201C473.219 124.521 460.241 110 446.454 97.1207C444.599 95.3885 442.689 93.6518 440.771 91.9572C405.876 61.1197 360.782 36.6306 310.367 21.1342C249.582 2.47188 188.038 -2.29357 137.071 7.71373C85.2544 17.917 33.2421 51.4953 34.0887 95.9312L33.8895 95.9327C33.4951 75.2352 44.3338 55.5537 65.2323 39.0171C74.6786 31.5425 85.8341 24.9906 98.3919 19.5392C110.611 14.2355 123.607 10.2073 137.022 7.56599C163.916 2.28494 193.49 1.05928 224.921 3.92368C253.156 6.49712 281.929 12.2395 310.441 20.9925C360.888 36.4994 406.008 61.0036 440.924 91.8592C442.842 93.5553 444.757 95.2935 446.611 97.0257C460.404 109.913 473.388 124.438 488.713 144.125C493.689 150.515 498.632 157.077 503.409 163.423C511.686 174.414 520.243 185.78 529.289 196.651C529.953 197.449 530.618 198.243 531.287 199.035C564.423 238.198 600.644 263.741 642.021 277.123C699.33 295.557 759.922 289.45 800.662 281.08C805.668 280.05 810.763 278.903 815.807 277.667C872.339 263.824 923.925 238.194 962.551 217.412C979.482 208.314 996.097 198.478 1012.16 188.968C1044.22 169.996 1077.37 150.376 1113.45 136.479C1128.86 130.538 1142.8 126.889 1156.08 125.327C1172.45 123.401 1187.51 124.83 1200.84 129.576C1212.07 133.578 1223.15 140.013 1234.7 149.245C1244.88 157.38 1254.07 166.542 1262.96 175.403C1268.25 180.681 1273.25 185.667 1278.29 190.276C1328.25 236.113 1379.41 283.506 1430.34 331.136L1430.18 331.231Z" fill="#A1A1A1"/>
<path d="M1396.38 501L1247.28 358.588C1242.41 353.937 1237.57 348.876 1232.45 343.52C1215.56 325.842 1196.41 305.806 1171.37 297.016C1147.16 288.516 1117.77 291.751 1084.01 306.632C1051.55 320.938 1021.94 339.962 993.314 358.36C974.652 370.353 955.355 382.753 935.528 393.666C875.936 426.468 823.856 445.842 771.631 454.639C749.965 458.287 728.593 460.124 707.865 460.124C701.583 460.124 695.363 459.955 689.21 459.617C660.19 458.025 633.397 452.673 609.578 443.712C587.502 435.405 567.307 423.679 547.844 407.862C532.302 395.231 517.404 380.174 500.96 360.474C492.28 350.078 483.876 339.276 475.748 328.83C457.354 305.191 438.334 280.747 414.786 259.234C378.666 226.238 331.255 200.362 277.679 184.402C216.509 166.18 154.798 161.932 103.915 172.441C54.6518 182.616 1.18328 214.7 0.199205 261.104L0 261.101C0.440242 240.359 11.6176 220.681 32.3229 204.192C51.0442 189.284 76.4507 177.956 103.863 172.295C130.728 166.747 160.334 165.253 191.854 167.857C220.157 170.194 249.058 175.714 277.753 184.262C304.263 192.159 329.441 202.554 352.588 215.159C375.929 227.869 396.907 242.664 414.937 259.135C438.495 280.655 457.521 305.105 475.92 328.75C484.047 339.195 492.452 349.995 501.129 360.39C525.121 389.133 559.141 424.563 609.668 443.573C667.612 465.374 729.702 461.542 771.587 454.488C823.787 445.698 875.843 426.331 935.411 393.541C955.23 382.632 974.525 370.233 993.184 358.243C1021.82 339.841 1051.43 320.813 1083.91 306.5C1117.73 291.593 1147.19 288.355 1171.46 296.877C1182.67 300.813 1193.64 307.303 1205.01 316.721C1215.01 325.011 1223.96 334.375 1232.62 343.429C1237.74 348.786 1242.57 353.844 1247.44 358.493L1396.54 500.905L1396.38 501Z" fill="#A1A1A1"/>
<path d="M1426.87 318.863C1388.9 279.211 1356.33 247.035 1324.35 217.605C1308.83 203.309 1292.98 189.237 1277.24 175.78C1272.48 171.71 1267.76 167.38 1262.77 162.796C1250.22 151.273 1237.24 139.359 1222.31 130.517C1214.29 125.76 1206.57 122.355 1198.71 120.106C1174.58 113.133 1146.27 117.743 1114.57 133.809C1098.16 142.112 1083.22 151.56 1070.77 159.707C1057.59 168.331 1044.58 177.843 1032.01 187.041C1013.93 200.262 995.244 213.933 975.152 225.674C962.927 232.839 950.535 239.242 938.317 244.705C913.875 255.635 887.64 264.642 860.341 271.474C843.474 275.648 826.526 278.804 809.97 280.851C795.701 282.609 781.406 283.624 767.479 283.866C746.637 284.231 726.33 282.84 707.123 279.726C686.7 276.416 667.373 271.132 649.68 264.019C633.903 257.677 619 249.691 604.122 239.604C576.397 220.822 554.283 199.106 538.115 182.284C530.173 173.982 522.418 165.515 514.918 157.328C493.322 133.748 472.924 111.476 447.398 91.6379C426.579 75.5641 402.826 61.6929 376.792 50.4071C356.785 41.734 335.026 34.6409 312.12 29.3237C306.664 28.0588 301.104 26.8799 295.6 25.8231C271.902 21.2807 245.225 18.3228 216.31 17.0309C187.159 15.6982 161.938 16.8514 139.21 20.5601C126.362 22.6406 113.913 25.9045 102.206 30.2599C60.8751 45.6372 34.3351 71.4514 31.2115 99.3145L30.9625 99.2979C31.7952 91.8701 34.2395 84.5538 38.2255 77.5496C42.0124 70.8966 47.2136 64.4804 53.6838 58.4787C65.909 47.1417 82.6501 37.3244 102.096 30.0895C113.822 25.7266 126.29 22.4581 139.158 20.3747C161.91 16.663 187.151 15.5082 216.326 16.8424C245.257 18.1344 271.948 21.0953 295.662 25.6406C301.172 26.699 306.733 27.8779 312.194 29.1442C335.118 34.4645 356.895 41.5637 376.917 50.2443C402.969 61.5376 426.742 75.4209 447.571 91.5053C473.113 111.356 493.516 133.633 515.119 157.219C522.617 165.407 530.372 173.872 538.313 182.173C554.472 198.987 576.576 220.693 604.285 239.462C619.148 249.539 634.034 257.517 649.793 263.852C684.421 277.771 724.013 284.442 767.472 283.678C781.386 283.435 795.671 282.421 809.928 280.664C826.472 278.617 843.408 275.465 860.261 271.293C887.544 264.465 913.763 255.465 938.19 244.541C950.399 239.082 962.784 232.682 974.999 225.523C995.079 213.788 1013.76 200.12 1031.83 186.903C1044.41 177.704 1057.41 168.19 1070.6 159.562C1083.06 151.41 1098.01 141.959 1114.43 133.651C1128.54 126.498 1142.21 121.556 1155.05 118.961C1170.83 115.774 1185.55 116.1 1198.8 119.929C1206.68 122.186 1214.42 125.601 1222.46 130.368C1237.42 139.223 1250.4 151.145 1262.96 162.675C1267.96 167.258 1272.67 171.588 1277.43 175.655C1293.17 189.113 1309.03 203.187 1324.55 217.486C1356.52 246.919 1389.1 279.098 1427.07 318.753L1426.87 318.863Z" fill="#A1A1A1"/>
<path d="M1425.67 307.912C1390.47 267.589 1357.43 233.846 1324.66 204.758C1308.69 190.549 1292.15 176.89 1275.51 164.161C1271.1 160.784 1266.74 157.275 1262.13 153.56C1248.31 142.436 1234.03 130.933 1218.02 122.974C1209.94 118.939 1202.2 116.128 1194.35 114.383C1164.29 107.695 1133.76 120.365 1113.43 132.171C1099.03 140.511 1085.88 149.94 1072.56 159.675C1060.9 168.196 1049.93 177.362 1038.32 187.065C1021.08 201.468 1003.26 216.361 983.085 228.867C971.115 236.328 958.622 242.779 945.955 248.04C922.359 257.842 896.52 265.454 866.962 271.313C850.42 274.59 833.48 276.925 816.611 278.25C802.378 279.356 788.171 279.751 774.382 279.42C753.868 278.935 733.816 276.752 714.78 272.933C694.788 268.922 675.712 263.06 658.084 255.512C642.64 248.899 627.728 240.695 612.494 230.432C584.829 211.818 561.13 191.182 543.576 175.283C537.078 169.397 530.683 163.475 524.498 157.747C499.866 134.934 476.601 113.385 448.318 95.2304C427.18 81.6622 403.449 70.1895 377.788 61.1319C358.371 54.2785 337.791 49.1437 314.875 45.4335C309.586 44.5787 304.206 43.8084 298.885 43.1435C275.514 40.2384 250.572 39.1394 220.394 38.0027C198.641 37.1418 170.165 36.575 142.808 39.8645C129.852 41.3932 117.328 44.0481 105.581 47.7522C64.2218 60.7973 36.1658 83.5858 30.5283 108.714L30.2335 108.676C31.7276 102.013 34.7554 95.4776 39.2276 89.2498C43.4906 83.316 49.0922 77.6264 55.8751 72.3348C68.7657 62.2822 85.9132 53.7086 105.465 47.5426C117.234 43.831 129.782 41.1716 142.76 39.6399C170.143 36.3458 198.641 36.9142 220.408 37.775C250.596 38.9117 275.546 40.0108 298.933 42.9174C304.257 43.5837 309.642 44.3541 314.937 45.2089C337.875 48.9236 358.475 54.0629 377.913 60.9239C403.601 69.9905 427.352 81.4722 448.511 95.054C476.814 113.222 500.089 134.777 524.729 157.599C530.912 163.326 537.307 169.248 543.805 175.132C561.355 191.025 585.044 211.653 612.694 230.258C627.909 240.511 642.805 248.706 658.232 255.311C692.893 270.153 731.977 278.187 774.392 279.191C788.169 279.52 802.362 279.126 816.582 278.021C833.434 276.698 850.361 274.365 866.887 271.089C896.421 265.237 922.238 257.631 945.813 247.838C958.465 242.583 970.941 236.141 982.897 228.687C1003.05 216.192 1020.87 201.305 1038.1 186.909C1049.72 177.202 1060.69 168.034 1072.36 159.509C1085.68 149.769 1098.84 140.336 1113.25 131.987C1126.43 124.333 1139.43 118.827 1151.88 115.619C1166.99 111.729 1181.31 111.239 1194.44 114.161C1202.32 115.914 1210.09 118.734 1218.19 122.781C1234.22 130.755 1248.52 142.268 1262.35 153.402C1266.96 157.115 1271.32 160.623 1275.73 163.999C1292.37 176.732 1308.91 190.395 1324.9 204.608C1357.66 233.705 1390.71 267.453 1425.92 307.785L1425.67 307.912Z" fill="#A1A1A1"/>
<path d="M1424.46 296.961C1391.52 255.42 1358.98 221.057 1324.98 191.911C1308.54 177.79 1291.31 164.546 1273.79 152.544C1270.04 149.978 1266.19 147.255 1262.46 144.623C1247.06 133.747 1231.13 122.502 1213.75 115.433C1205.58 112.092 1197.82 109.876 1190 108.66C1160.01 103.988 1131.19 117.975 1112.3 130.53C1099.5 139.006 1087.8 148.612 1076.48 157.903L1074.36 159.643C1064.08 168.072 1054.44 177.316 1044.24 187.105C1027.98 202.692 1011.18 218.808 991.017 232.06C979.286 239.827 966.694 246.326 953.591 251.376C930.744 260.182 905.318 266.466 873.578 271.151C857.166 273.574 840.233 275.087 823.249 275.648C809.052 276.099 794.932 275.873 781.279 274.973C739.944 272.261 701.322 262.85 666.485 247.004C651.425 240.154 636.503 231.734 620.867 221.259C594.407 203.571 570.873 185.389 549.038 168.283C546.11 165.99 543.213 163.712 540.339 161.452C510.516 138.011 482.349 115.869 449.245 98.8273C427.633 87.7014 403.926 78.6288 378.784 71.8597C360.326 66.8907 340.322 63.5168 317.632 61.5449C312.519 61.1031 307.317 60.7398 302.172 60.4654C289.228 59.787 275.499 59.677 260.963 59.5609C249.287 59.4674 237.215 59.3709 224.476 58.9775C199.872 58.1528 171.988 57.2196 146.402 59.1734C133.201 60.182 120.601 62.2263 108.952 65.2505C67.6087 75.9845 38.0347 95.7503 29.8415 118.124L29.5048 118.053C31.6642 112.154 35.2738 106.4 40.232 100.95C44.973 95.7383 50.9731 90.7723 58.0648 86.1908C71.6286 77.4287 89.1865 70.1019 108.836 65.0002C120.511 61.9685 133.137 59.9197 146.364 58.9096C171.976 56.9543 199.874 57.889 224.488 58.7136C237.219 59.1056 249.291 59.2036 260.963 59.2971C275.504 59.4131 289.238 59.5232 302.194 60.2031C307.343 60.479 312.551 60.8423 317.668 61.2841C340.385 63.2575 360.413 66.636 378.898 71.6125C404.069 78.389 427.802 87.4722 449.438 98.6102C482.572 115.667 510.753 137.819 540.588 161.271C543.462 163.531 546.361 165.808 549.287 168.102C571.118 185.206 594.644 203.382 621.096 221.065C636.716 231.527 651.623 239.94 666.664 246.781C701.456 262.608 740.027 272.004 781.309 274.714C794.946 275.612 809.052 275.838 823.233 275.387C840.199 274.827 857.116 273.315 873.51 270.895C905.218 266.214 930.614 259.938 953.431 251.144C966.507 246.104 979.075 239.617 990.786 231.864C1010.92 218.629 1027.72 202.522 1043.96 186.944C1054.17 177.151 1063.82 167.902 1074.1 159.467L1076.22 157.727C1087.55 148.431 1099.25 138.819 1112.07 130.334C1131.02 117.738 1159.93 103.71 1190.07 108.403C1197.92 109.626 1205.72 111.85 1213.91 115.204C1231.33 122.288 1247.28 133.545 1262.69 144.433C1266.42 147.065 1270.28 149.788 1274.02 152.352C1291.55 164.36 1308.78 177.612 1325.23 191.741C1359.25 220.899 1391.8 255.273 1424.76 296.828L1424.46 296.961Z" fill="#A1A1A1"/>
<path d="M1423.26 286.008C1393.01 243.84 1360.05 207.858 1325.29 179.067C1308.39 165.034 1290.48 152.203 1272.07 140.929C1269.41 139.301 1266.68 137.611 1264.05 135.977C1246.64 125.181 1228.65 114.016 1209.48 107.895C1201.25 105.24 1193.46 103.62 1185.66 102.938C1155.75 100.327 1128.65 115.61 1111.18 128.89C1100.33 137.094 1090.54 146.218 1081.07 155.042C1079.44 156.569 1077.8 158.093 1076.16 159.611C1067.15 167.951 1058.73 177.268 1049.82 187.131C1034.66 203.898 1018.99 221.235 998.951 235.256C987.182 243.489 974.844 249.854 961.226 254.717C932.744 264.889 904.28 268.653 880.194 270.996C863.903 272.579 846.978 273.272 829.887 273.052C815.733 272.849 801.699 272 788.177 270.531C748.083 266.188 709.967 255.412 674.89 238.501C660.294 231.467 645.363 222.829 629.242 212.093C612.957 201.275 597.781 190.865 583.104 180.797C573.13 173.954 563.708 167.491 554.506 161.291C519.725 137.851 487.866 117.242 450.179 102.429C428.103 93.7527 404.42 87.0772 379.786 82.5891C362.13 79.3719 343.258 77.8056 320.395 77.6563C315.463 77.6292 310.439 77.6729 305.465 77.7875C297.909 77.9729 290.092 78.3604 281.819 78.7719C265.943 79.5604 247.944 80.4544 228.558 79.9539C221.175 79.7624 213.643 79.4925 206.358 79.2302C187.621 78.5563 168.247 77.8598 149.994 78.4825C136.589 78.9408 123.912 80.376 112.318 82.7489C71.0448 91.1989 39.9549 107.944 29.1501 127.541L28.7816 127.425C31.6103 122.293 35.8015 117.321 41.2378 112.646C46.459 108.156 52.8574 103.915 60.2519 100.042C74.501 92.5798 92.4672 86.4998 112.21 82.458C123.832 80.079 136.537 78.6393 149.972 78.181C168.245 77.5568 187.627 78.2548 206.374 78.9287C213.657 79.191 221.189 79.4609 228.57 79.6524C247.938 80.1529 265.923 79.2604 281.791 78.4719C290.068 78.0603 297.887 77.6729 305.451 77.4875C310.431 77.3729 315.459 77.3292 320.397 77.3563C343.292 77.504 362.192 79.0749 379.878 82.2966C404.541 86.7907 428.256 93.4738 450.36 102.162C467.384 108.853 484.635 117.33 503.1 128.076C519.63 137.696 535.709 148.222 554.769 161.066C563.97 167.268 573.393 173.731 583.369 180.574C598.044 190.64 613.22 201.05 629.501 211.867C645.606 222.592 660.521 231.221 675.099 238.248C710.129 255.136 748.191 265.897 788.229 270.234C801.735 271.701 815.751 272.549 829.889 272.752C846.96 272.972 863.867 272.28 880.138 270.697C904.194 268.359 932.62 264.599 961.053 254.446C974.633 249.596 986.939 243.247 998.677 235.036C1018.68 221.039 1034.34 203.716 1049.49 186.962C1058.41 177.093 1066.83 167.772 1075.85 159.423C1077.49 157.905 1079.12 156.381 1080.76 154.855C1090.23 146.025 1100.03 136.895 1110.89 128.68C1122.26 120.04 1133.91 113.393 1145.54 108.925C1159.32 103.632 1172.83 101.518 1185.7 102.643C1193.53 103.327 1201.36 104.956 1209.62 107.621C1228.85 113.758 1246.87 124.937 1264.29 135.746C1266.93 137.381 1269.65 139.071 1272.31 140.697C1290.74 151.98 1308.66 164.823 1325.57 178.866C1344.03 194.154 1362.11 211.573 1379.3 230.638C1394.49 247.488 1409.4 266.071 1423.6 285.867L1423.26 286.008Z" fill="#A1A1A1"/>
<path d="M1422.06 275.053C1394.06 231.675 1361.61 195.059 1325.6 166.221C1308.24 152.277 1289.65 139.861 1270.35 129.314C1269.43 128.812 1268.51 128.31 1267.59 127.806C1247.52 116.825 1226.77 105.47 1205.21 100.358C1196.86 98.3766 1189.05 97.3499 1181.33 97.2173C1151.53 96.7077 1126.13 113.267 1110.06 127.247C1100.61 135.425 1092.21 144.389 1084.1 153.058C1082.09 155.202 1080.02 157.418 1077.97 159.577C1070.17 167.799 1062.91 177.148 1055.24 187.046C1041.27 205.051 1026.83 223.668 1006.89 238.449C995.358 247 982.92 253.413 968.866 258.056C941.179 267.203 913.065 269.604 886.81 270.838C870.621 271.597 853.702 271.468 836.525 270.453C822.417 269.594 808.473 268.124 795.076 266.086C756.347 260.206 718.737 248.064 683.296 229.996C669.103 222.761 654.589 214.159 637.623 202.924C605.378 181.631 581.433 166.634 559.987 154.297C517.331 129.761 484.775 115.326 451.132 106.031C428.607 99.8073 404.948 95.5303 380.806 93.3172C364.057 91.7824 346.282 91.9196 323.174 93.7664C318.439 94.1494 313.595 94.6001 308.774 95.1082C304.22 95.5951 299.595 96.1529 294.696 96.7424C276.61 98.9208 256.11 101.39 232.648 100.929C220.281 100.686 207.65 100.021 195.435 99.3791C181.552 98.6495 167.197 97.8942 153.588 97.7917C139.942 97.6891 127.187 98.5153 115.687 100.249C74.5513 106.447 41.9415 120.173 28.4573 136.966L28.0748 136.79C31.5768 132.427 36.3498 128.237 42.2602 124.337C47.9654 120.571 54.7583 117.057 62.4516 113.89C77.3959 107.736 95.7745 102.902 115.599 99.9158C127.131 98.1791 139.914 97.3499 153.592 97.4525C167.213 97.555 181.576 98.3103 195.464 99.0414C207.676 99.6837 220.301 100.349 232.658 100.591C256.078 101.051 276.557 98.5846 294.622 96.4092C299.523 95.8182 304.152 95.2619 308.708 94.7735C313.535 94.2654 318.384 93.8147 323.123 93.4302C346.266 91.5819 364.071 91.4432 380.856 92.9825C405.032 95.1986 428.725 99.4817 451.281 105.714C484.97 115.022 517.56 129.472 560.254 154.029C581.708 166.37 605.661 181.372 637.914 202.671C654.868 213.896 669.366 222.49 683.544 229.717C718.936 247.76 756.49 259.885 795.162 265.756C808.54 267.791 822.469 269.258 836.557 270.117C853.714 271.13 870.611 271.26 886.78 270.501C912.995 269.27 941.061 266.874 968.685 257.749C982.687 253.124 995.082 246.731 1006.58 238.211C1026.47 223.462 1040.89 204.864 1054.84 186.879C1062.53 176.974 1069.79 167.618 1077.6 159.384C1079.65 157.226 1081.72 155.01 1083.73 152.867C1091.85 144.19 1100.25 135.22 1109.72 127.028C1120.2 117.904 1131.2 110.687 1142.39 105.577C1155.5 99.5902 1168.61 96.667 1181.33 96.8826C1189.1 97.0153 1196.96 98.0479 1205.35 100.038C1226.97 105.168 1247.75 116.538 1267.85 127.536C1268.77 128.04 1269.69 128.543 1270.61 129.044C1289.93 139.603 1308.54 152.034 1325.93 165.993C1361.97 194.857 1394.44 231.502 1422.46 274.91L1422.06 275.053Z" fill="#A1A1A1"/>
<path d="M896.722 270.681C895.604 270.681 894.502 270.679 893.419 270.675C877.313 270.623 860.401 269.674 843.155 267.85C829.1 266.334 815.243 264.243 801.97 261.637C783.006 257.919 763.974 252.576 745.398 245.757C727.459 239.172 709.394 231.007 691.7 221.487C674.364 212.16 658.17 201.766 645.999 193.754C617.521 175.057 590.425 159.429 565.464 147.303C525.038 127.666 489.012 115.694 452.085 109.629C429.808 105.97 405.908 104.04 382.895 104.04C382.539 104.04 382.184 104.04 381.828 104.042C362.059 104.093 343.29 106.873 325.955 109.87C321.443 110.656 316.775 111.514 312.082 112.423C309.51 112.926 306.935 113.445 304.21 113.994C284.988 117.87 263.201 122.261 236.733 121.901C220.613 121.681 204.149 120.417 188.227 119.195C177.946 118.405 167.316 117.589 157.177 117.096C143.238 116.419 130.412 116.636 119.049 117.744C78.1325 121.73 44.0027 132.44 27.7496 146.394L27.3751 146.146C35.7118 138.989 48.2518 132.793 64.6463 127.728C80.3038 122.891 99.0947 119.309 118.985 117.372C130.378 116.262 143.238 116.042 157.209 116.722C167.358 117.215 177.994 118.032 188.279 118.822C204.191 120.045 220.645 121.308 236.743 121.527C263.144 121.887 284.893 117.502 304.082 113.633C306.809 113.083 309.385 112.564 311.959 112.061C316.656 111.152 321.327 110.292 325.843 109.507C343.208 106.505 362.009 103.721 381.826 103.668C405.204 103.606 429.533 105.542 452.191 109.264C471.249 112.395 489.725 117.004 508.671 123.354C526.918 129.47 545.584 137.201 565.731 146.99C590.712 159.124 617.827 174.764 646.323 193.473C658.485 201.481 674.666 211.867 691.985 221.184C727.888 240.502 764.934 253.99 802.093 261.276C815.349 263.88 829.187 265.968 843.223 267.482C860.446 269.303 877.335 270.253 893.419 270.302C918.586 270.381 947.81 269.739 976.312 261.047C990.738 256.648 1003.22 250.215 1014.47 241.382C1034.22 225.869 1047.32 205.959 1059.99 186.703C1066.5 176.798 1072.66 167.442 1079.35 159.343C1081.49 156.748 1083.65 154.076 1085.74 151.49C1092.81 142.755 1100.12 133.725 1108.54 125.377C1118.16 115.774 1128.48 107.984 1139.22 102.225C1151.68 95.5483 1164.37 91.8125 1176.95 91.122C1184.72 90.6954 1192.6 91.1311 1201.05 92.4547C1223.64 95.9915 1246.04 106.267 1268.9 117.389C1288.83 127.085 1308.67 139.44 1326.27 153.118C1345.82 168.268 1364.18 186.041 1380.86 205.942C1395.72 223.673 1409.32 243.19 1421.31 263.952L1420.85 264.103C1395.12 219.515 1363.18 182.263 1325.91 153.382C1308.34 139.723 1288.53 127.387 1268.63 117.707C1245.81 106.605 1223.46 96.3488 1200.95 92.8241C1192.55 91.508 1184.71 91.0753 1176.99 91.4989C1153.87 92.7698 1129.7 104.882 1108.93 125.606C1100.53 133.939 1093.23 142.962 1086.17 151.688C1084.08 154.275 1081.91 156.949 1079.77 159.544C1073.09 167.627 1066.94 176.976 1060.43 186.871C1054.22 196.319 1047.79 206.09 1040.42 215.482C1032.06 226.13 1023.69 234.687 1014.83 241.645C1003.53 250.517 990.993 256.978 976.499 261.399C963.716 265.297 949.977 267.874 934.497 269.279C921.387 270.462 908.22 270.681 896.722 270.681Z" fill="#A1A1A1"/>
<path d="M928.667 271.436C918.509 271.436 908.752 270.978 900.023 270.513C883.973 269.66 867.069 267.889 849.782 265.247C835.785 263.078 822.016 260.367 808.857 257.188C772.823 248.5 737.247 234.038 700.097 212.978C683.896 203.796 668.623 193.915 654.372 184.583C626.236 166.213 598.168 151.318 570.943 140.31C530.903 124.12 493.44 115.513 453.046 113.225C430.03 111.921 405.759 112.453 382.854 114.762C363.683 116.695 345.609 121.36 328.736 125.97C324.515 127.129 320.025 128.395 315.393 129.733C314.236 130.069 313.069 130.411 311.885 130.756C292.453 136.443 270.465 142.877 242.246 142.877C241.769 142.877 241.295 142.876 240.815 142.871C221.724 142.725 202.231 140.663 183.379 138.667C175.904 137.875 168.175 137.058 160.759 136.396C146.273 135.106 133.727 134.724 122.402 135.234C81.2126 137.088 46.4454 144.59 27.019 155.82L26.6863 155.49C36.29 149.939 50.1766 145.119 66.84 141.552C83.2306 138.044 102.432 135.716 122.368 134.819C133.725 134.308 146.303 134.69 160.821 135.983C168.245 136.645 175.976 137.464 183.452 138.254C202.287 140.247 221.761 142.307 240.817 142.454C269.624 142.677 291.971 136.135 311.684 130.366C312.866 130.021 314.035 129.678 315.192 129.341C319.828 128.002 324.32 126.736 328.545 125.576C345.445 120.957 363.553 116.287 382.776 114.348C405.717 112.035 430.028 111.502 453.082 112.807C473.1 113.941 492.186 116.618 511.429 120.99C531.248 125.493 550.797 131.691 571.196 139.941C598.455 150.964 626.559 165.877 654.724 184.265C668.97 193.594 684.233 203.468 700.42 212.642C737.52 233.673 773.042 248.114 809.018 256.788C822.158 259.962 835.909 262.669 849.885 264.836C867.148 267.474 884.029 269.244 900.055 270.094C927.023 271.527 955.713 272.262 983.936 264.337C998.787 260.165 1011.35 253.692 1022.35 244.545C1041.95 228.253 1054.15 206.03 1064.91 186.422C1070.33 176.557 1075.44 167.238 1081.09 159.295C1083.12 156.429 1085.17 153.467 1087.15 150.602C1093.35 141.64 1099.76 132.372 1107.35 123.717C1116.13 113.635 1125.79 105.272 1136.05 98.862C1147.85 91.5005 1160.13 86.9537 1172.56 85.3511C1180.34 84.3486 1188.25 84.1888 1196.75 84.8581C1220.51 86.732 1244.64 95.9916 1267.18 105.72C1288 114.702 1308.54 126.636 1326.61 140.231C1346.7 155.31 1365.22 173.261 1381.63 193.582C1396.32 211.754 1409.28 231.739 1420.15 252.983L1419.64 253.133C1396.52 207.975 1364.22 169.035 1326.22 140.524C1308.2 126.954 1287.68 115.043 1266.91 106.079C1244.42 96.373 1220.35 87.1361 1196.7 85.2697C1188.24 84.6033 1180.38 84.7631 1172.66 85.7581C1149.7 88.7175 1126.67 102.278 1107.81 123.944C1100.24 132.581 1093.84 141.839 1087.64 150.792C1085.66 153.658 1083.61 156.62 1081.57 159.489C1075.94 167.415 1070.83 176.724 1065.42 186.579C1054.64 206.217 1042.42 228.476 1022.76 244.823C1011.7 254.019 999.062 260.529 984.127 264.724C971.167 268.364 957.187 270.471 941.384 271.163C937.111 271.359 932.856 271.436 928.667 271.436Z" fill="#A1A1A1"/>
<path d="M948.716 273.069C948.571 273.069 948.427 273.069 948.282 273.069C933.927 273.042 919.834 271.712 906.626 270.352C890.6 268.703 873.706 266.108 856.409 262.644C842.477 259.823 828.795 256.49 815.747 252.739C781.153 242.809 747.075 227.472 708.5 204.471C694.607 196.19 680.936 187.272 667.712 178.651C666.059 177.571 664.404 176.493 662.748 175.415C634.467 157.05 605.425 142.886 576.431 133.319C536.727 120.22 496.685 114.823 454.016 116.82C430.619 117.916 406.37 120.912 383.89 125.483C366.153 129.09 350.348 134.878 331.527 142.069C327.712 143.533 323.638 145.113 318.71 147.043L318.435 147.151C308.927 150.899 298.15 155.146 286.062 158.375C272.18 162.084 258.712 163.869 244.901 163.848C223.365 163.807 201.386 160.774 180.133 157.838C174.926 157.119 169.54 156.376 164.34 155.704C149.43 153.779 136.808 152.806 125.755 152.732C85.053 152.461 48.7938 157.026 26.2758 165.254L26.0168 164.847C37.0467 160.816 51.9253 157.544 69.043 155.386C86.1925 153.222 105.806 152.149 125.76 152.282C136.846 152.355 149.5 153.329 164.442 155.259C169.645 155.931 175.032 156.675 180.241 157.394C201.468 160.324 223.419 163.355 244.903 163.395C244.998 163.395 245.096 163.395 245.192 163.395C275.923 163.395 299.335 154.169 318.16 146.75L318.437 146.642C323.367 144.71 327.441 143.131 331.258 141.667C350.111 134.463 365.943 128.665 383.736 125.047C406.254 120.467 430.543 117.467 453.98 116.369C474.86 115.393 494.556 116.137 514.195 118.649C535.359 121.355 555.795 126.018 576.67 132.906C605.72 142.491 634.812 156.678 663.139 175.073C664.794 176.151 666.449 177.23 668.103 178.31C681.32 186.929 694.987 195.843 708.868 204.118C747.394 227.091 781.422 242.406 815.958 252.32C828.988 256.066 842.65 259.394 856.562 262.211C873.835 265.671 890.706 268.261 906.706 269.907C935.366 272.859 963.423 274.906 991.571 267.646C1006.85 263.705 1019.5 257.191 1030.25 247.729C1049.67 230.638 1060.28 206.955 1069.65 186.059C1074.03 176.276 1078.17 167.035 1082.84 159.269C1084.63 156.281 1086.44 153.191 1088.18 150.201C1093.63 140.854 1099.27 131.19 1106.18 122.079C1114.13 111.512 1123.12 102.575 1132.89 95.5167C1144.03 87.4722 1155.91 82.1173 1168.18 79.6027C1175.79 78.0438 1183.56 77.284 1191.91 77.284C1192.09 77.284 1192.27 77.284 1192.45 77.2855C1218.4 77.388 1245.1 86.3099 1265.47 94.0709C1287.17 102.34 1308.43 113.852 1326.96 127.363C1347.6 142.372 1366.26 160.499 1382.42 181.242C1396.92 199.856 1409.23 220.31 1419.01 242.037L1418.44 242.183C1403.89 209.854 1376.13 163.75 1326.54 127.69C1308.06 114.209 1286.85 102.724 1265.2 94.4749C1244.9 86.735 1218.27 77.8388 1192.45 77.7378C1183.95 77.7001 1176.06 78.4569 1168.34 80.0398C1145.6 84.6998 1123.7 99.7092 1106.69 122.303C1099.8 131.394 1094.17 141.047 1088.73 150.383C1086.98 153.375 1085.18 156.467 1083.38 159.456C1078.72 167.202 1074.59 176.431 1070.21 186.204C1060.83 207.138 1050.2 230.866 1030.7 248.023C1019.88 257.548 1007.14 264.106 991.764 268.073C978.73 271.433 964.643 273.069 948.716 273.069Z" fill="#A1A1A1"/>
<path d="M964.659 275.192C961.567 275.192 958.407 275.116 955.172 274.966C941.013 274.307 927.252 272.33 913.228 270.19C896.971 267.708 880.552 264.388 863.034 260.041C849.174 256.57 835.582 252.617 822.636 248.289C789.793 237.326 757.183 221.187 716.902 195.962C706.898 189.698 696.898 183.128 687.226 176.774C681.961 173.316 676.519 169.738 671.127 166.245C642.509 147.756 612.497 134.327 581.923 126.327C541.526 115.758 500.008 113.822 454.992 120.41C431.209 123.891 406.981 129.35 384.931 136.196C367.218 141.696 351.788 149.419 335.451 157.596L334.321 158.161C331.77 159.443 329.19 160.742 326.578 162.057C325.074 162.815 323.56 163.578 322.033 164.347C312.507 169.167 302.218 174.195 290.419 178.065C276.72 182.557 263.17 184.767 248.99 184.821C225.384 184.909 201.307 180.757 178.024 176.738C174.701 176.163 171.263 175.571 167.926 175.009C152.282 172.37 139.95 170.852 129.109 170.228C89.1047 167.926 51.3514 169.548 25.5266 174.68L25.3612 174.207C51.2538 169.061 89.0848 167.433 129.159 169.74C140.029 170.365 152.394 171.888 168.067 174.531C171.406 175.095 174.844 175.687 178.169 176.261C201.167 180.231 224.94 184.333 248.233 184.333C248.484 184.333 248.735 184.333 248.988 184.332C279.116 184.217 300.562 174.62 321.676 163.94C323.204 163.171 324.718 162.408 326.222 161.65C328.833 160.334 331.411 159.036 333.965 157.753L335.094 157.188C351.459 148.997 366.915 141.26 384.686 135.742C406.776 128.883 431.045 123.415 454.87 119.928C500 113.323 541.63 115.265 582.136 125.863C612.786 133.883 642.867 147.343 671.549 165.873C676.941 169.367 682.386 172.943 687.651 176.403C697.318 182.756 707.316 189.325 717.314 195.584C757.547 220.78 790.111 236.896 822.897 247.841C835.825 252.162 849.397 256.11 863.237 259.575C880.73 263.917 897.124 267.232 913.357 269.709C937.999 273.47 968.666 278.153 999.206 270.94C1014.91 267.233 1027.64 260.678 1038.15 250.9C1057.38 232.99 1066.3 207.8 1074.17 185.577C1077.59 175.922 1080.82 166.803 1084.59 159.235C1086.05 156.286 1087.53 153.236 1088.95 150.286C1093.72 140.392 1098.66 130.161 1105 120.431C1112.15 109.373 1120.47 99.8619 1129.73 92.1611C1140.22 83.4353 1151.68 77.2738 1163.8 73.8471C1171.57 71.6475 1179.53 70.2922 1188.15 69.7027C1199.69 68.9128 1211.97 69.757 1225.69 72.2777C1237.31 74.4124 1249.76 77.7261 1263.76 82.4101C1286.34 89.9646 1308.31 101.056 1327.3 114.484C1348.49 129.422 1367.3 147.729 1383.2 168.892C1397.51 187.95 1409.18 208.872 1417.86 231.08L1417.24 231.219C1398.9 184.333 1366.8 143.003 1326.86 114.843C1307.92 101.451 1286.01 90.3912 1263.5 82.8594C1233.33 72.7676 1209.41 68.7409 1188.21 70.1912C1179.65 70.7761 1171.74 72.1224 1164.02 74.3054C1135.21 82.4569 1116.33 104.006 1105.58 120.647C1099.25 130.353 1094.32 140.571 1089.56 150.453C1088.13 153.405 1086.66 156.456 1085.19 159.407C1081.43 166.952 1078.21 176.061 1074.79 185.703C1066.91 207.975 1057.97 233.218 1038.65 251.209C1028.06 261.064 1015.22 267.672 999.398 271.409C988.671 273.942 977.23 275.192 964.659 275.192Z" fill="#A1A1A1"/>
<path d="M978.472 277.625C957.406 277.625 937.153 273.529 919.826 270.025C903.525 266.729 887.114 262.611 869.656 257.435C855.873 253.319 842.369 248.745 829.52 243.838C791.004 229.145 756.667 208.056 725.301 187.453C718.896 183.247 712.426 178.911 706.171 174.719C697.486 168.897 688.504 162.877 679.503 157.076C650.457 138.404 619.475 125.706 587.419 119.333C545.951 111.091 502.953 112.616 455.968 123.995C431.777 129.853 407.573 137.776 385.974 146.906C369.314 153.946 355.218 162.835 340.296 172.245C339.238 172.911 338.178 173.581 337.113 174.25L336.535 174.615C332.908 176.905 329.157 179.272 325.354 181.648C316.242 187.366 306.208 193.28 294.603 197.798C281.13 203.043 267.549 205.659 253.076 205.795C227.674 206.034 201.783 200.63 176.747 195.403C174.992 195.036 173.245 194.672 171.506 194.311C154.996 190.883 142.952 188.851 132.458 187.72C93.4577 183.52 54.2064 182.199 24.768 184.098L24.7083 183.571C54.1945 181.669 93.5035 182.991 132.556 187.197C143.08 188.331 155.149 190.368 171.689 193.802C173.428 194.162 175.175 194.527 176.932 194.895C201.921 200.111 227.761 205.502 253.066 205.267C284.495 204.971 306.628 192.71 324.908 181.241C328.71 178.865 332.461 176.498 336.089 174.209L336.667 173.844C337.732 173.174 338.792 172.506 339.85 171.839C354.798 162.412 368.918 153.509 385.633 146.444C407.273 137.298 431.522 129.362 455.755 123.493C478.03 118.099 498.952 114.984 519.716 113.971C542.877 112.842 565.714 114.475 587.594 118.824C619.752 125.216 650.826 137.951 679.954 156.673C688.96 162.477 697.944 168.499 706.631 174.322C712.886 178.515 719.352 182.849 725.755 187.054C757.09 207.634 791.385 228.701 829.831 243.366C842.662 248.266 856.146 252.834 869.909 256.944C887.342 262.112 903.726 266.224 920.003 269.515C944.995 274.569 976.099 280.858 1006.83 274.24C1022.96 270.767 1035.78 264.171 1046.03 254.076C1065.07 235.324 1072.19 208.584 1078.47 184.99C1081 175.51 1083.38 166.557 1086.33 159.204C1087.41 156.485 1088.5 153.675 1089.56 150.956C1093.69 140.325 1097.96 129.33 1103.81 118.788C1110.16 107.229 1117.82 97.1404 1126.55 88.805C1136.4 79.3992 1147.45 72.4312 1159.4 68.0938C1167.15 65.2777 1175.15 63.3254 1183.84 62.1238C1195.54 60.5062 1208.53 60.5605 1222.44 62.2852C1234.62 63.7957 1247.94 66.6436 1262.03 70.7517C1285.49 77.5916 1308.18 88.2607 1327.64 101.606C1349.38 116.475 1368.33 134.958 1383.97 156.544C1398.09 176.044 1409.11 197.437 1416.71 220.126L1416.03 220.255C1399.94 172.179 1368.38 130.18 1327.17 101.998C1307.77 88.6964 1285.16 78.062 1261.78 71.2447C1231.48 62.4088 1206.02 59.5941 1183.96 62.644C1175.34 63.8365 1167.4 65.7752 1159.7 68.5702C1131.28 78.8896 1113.97 101.684 1104.45 118.991C1098.62 129.507 1094.35 140.486 1090.23 151.104C1089.17 153.822 1088.08 156.634 1086.99 159.357C1084.06 166.685 1081.68 175.626 1079.16 185.094C1076.13 196.445 1072.71 209.309 1067.73 221.369C1062.03 235.188 1055.12 245.991 1046.58 254.397C1041.65 259.258 1035.98 263.395 1029.73 266.693C1023.01 270.241 1015.37 272.951 1007.02 274.748C997.474 276.806 987.89 277.625 978.472 277.625Z" fill="#A1A1A1"/>
<path d="M990.922 280.295C983.957 280.295 976.661 279.782 968.953 278.758C953.774 276.743 939.244 273.085 926.423 269.861C910.264 265.795 893.391 260.737 876.277 254.829C862.582 250.074 849.166 244.879 836.405 239.385C799.777 223.635 768.221 202.693 733.699 178.943C730.631 176.832 727.516 174.68 724.504 172.596C712.641 164.396 700.376 155.918 687.88 147.907C658.352 129.017 626.401 117.051 592.915 112.341C550.676 106.4 504.926 111.526 456.944 127.578C432.322 135.816 408.141 146.2 387.015 157.611C371.109 166.202 358.015 176.332 344.152 187.057C342.744 188.147 341.33 189.24 339.907 190.337C336.367 193.072 332.555 196.007 328.676 198.946C320.543 205.128 310.63 212.173 298.788 217.53C285.531 223.527 271.915 226.549 257.166 226.768C230.166 227.17 202.681 220.404 176.101 213.862L175.09 213.613C162.075 210.411 148.308 207.175 135.81 205.211C97.7145 199.225 58.011 195.068 24.0168 193.508L24.0626 192.944C58.0927 194.506 97.832 198.665 135.962 204.658C148.496 206.628 162.287 209.868 175.321 213.075L176.333 213.323C202.855 219.851 230.283 226.601 257.152 226.201C288.182 225.74 309.612 212.636 328.148 198.543C332.027 195.606 335.836 192.671 339.375 189.938C340.798 188.842 342.212 187.747 343.621 186.659C357.507 175.916 370.625 165.768 386.583 157.148C407.748 145.714 431.976 135.311 456.643 127.058C479.155 119.528 501.309 114.339 522.484 111.637C546.68 108.551 570.423 108.599 593.054 111.782C626.668 116.51 658.736 128.518 688.364 147.472C700.87 155.491 713.141 163.973 725.01 172.177C728.021 174.259 731.137 176.412 734.205 178.522C768.693 202.25 800.215 223.169 836.777 238.892C849.52 244.376 862.917 249.564 876.592 254.313C893.682 260.212 910.527 265.262 926.662 269.322C951.955 275.687 983.434 283.607 1014.47 277.539C1031.03 274.302 1043.93 267.667 1053.93 257.253C1072.75 237.632 1078.2 208.057 1082.58 184.293C1084.28 175.037 1085.89 166.294 1088.08 159.179C1088.76 156.935 1089.46 154.624 1090.13 152.389C1093.62 140.774 1097.23 128.763 1102.63 117.149C1110.99 99.0745 1126.85 74.896 1155.01 62.3484C1162.79 58.884 1170.81 56.3332 1179.53 54.5512C1202.36 49.8219 1229.54 51.3521 1260.32 59.0966C1284.66 65.2218 1308.06 75.4689 1327.98 88.731C1350.27 103.529 1369.37 122.19 1384.75 144.199C1391.8 154.294 1398.04 165.076 1403.28 176.246C1408.29 186.915 1412.42 197.994 1415.56 209.176L1414.83 209.294C1400.99 160.023 1369.97 117.357 1327.49 89.1547C1307.63 75.9422 1284.33 65.7344 1260.08 59.6317C1229.45 51.922 1202.41 50.3963 1179.73 55.0954C1171.07 56.8638 1163.11 59.395 1155.39 62.8338C1127.42 75.294 1111.65 99.3489 1103.34 117.334C1097.94 128.919 1094.34 140.913 1090.86 152.512C1090.19 154.748 1089.49 157.061 1088.8 159.305C1086.63 166.397 1085.02 175.127 1083.32 184.37C1081.12 196.328 1078.62 209.882 1074.35 222.673C1069.45 237.372 1062.97 248.792 1054.53 257.584C1049.72 262.6 1044.09 266.83 1037.8 270.156C1031.03 273.74 1023.24 276.408 1014.66 278.084C1007.13 279.559 999.26 280.295 990.922 280.295Z" fill="#A1A1A1"/>
<path d="M1002.39 283.114C994.048 283.114 985.245 282.295 975.843 280.654C960.608 277.996 945.95 273.585 933.018 269.692C916.737 264.792 899.874 258.914 882.898 252.219C869.292 246.83 855.966 241.013 843.288 234.93C808.404 218.204 778.483 196.645 746.806 173.824C745.238 172.694 743.67 171.564 742.098 170.433C727.367 159.832 712.136 148.869 696.257 138.738C666.215 119.608 633.297 108.374 598.416 105.346C554.603 101.543 507.334 110.228 457.919 131.158C433.202 141.626 408.391 154.822 388.056 168.313C372.701 178.5 360.387 189.962 347.349 202.098C345.805 203.535 344.257 204.976 342.697 206.42C339.582 209.31 335.875 212.737 331.994 216.242C324.807 222.751 315.014 231.021 302.97 237.243C289.924 243.983 276.278 247.419 261.252 247.743C248.902 247.977 235.272 246.534 219.583 243.331C206.113 240.581 193.083 236.987 178.664 232.916C165.503 229.155 151.612 225.27 139.15 222.704C102.235 215.103 63.2432 208.447 23.2589 202.917L23.4023 202.324C63.4105 207.856 102.425 214.518 139.359 222.122C151.855 224.695 165.766 228.586 178.943 232.351C203.111 239.176 233.189 247.672 261.231 247.14C293.291 246.447 313.894 231.693 331.382 215.853C335.261 212.351 338.966 208.926 342.08 206.038C343.639 204.593 345.187 203.152 346.729 201.717C359.789 189.561 372.126 178.079 387.53 167.86C407.907 154.341 432.766 141.12 457.531 130.631C507.095 109.638 554.527 100.931 598.508 104.748C615.37 106.212 631.934 109.611 647.735 114.852C664.69 120.473 681.188 128.356 696.771 138.278C712.668 148.419 727.909 159.389 742.648 169.997C744.22 171.13 745.79 172.259 747.357 173.388C779.005 196.19 808.9 217.727 843.717 234.422C856.376 240.496 869.683 246.305 883.269 251.686C900.221 258.37 917.058 264.241 933.315 269.133C958.865 276.821 990.664 286.39 1022.11 280.841C1039.14 277.834 1052.13 271.159 1061.81 260.434C1080.47 239.949 1083.8 208.656 1086.47 183.513C1087.42 174.52 1088.33 166.026 1089.82 159.158C1090.13 157.741 1090.44 156.316 1090.75 154.884C1093.54 141.947 1096.43 128.569 1101.45 115.513C1108.62 96.735 1122.97 71.272 1150.62 56.6063C1158.33 52.5147 1166.38 49.3669 1175.22 46.9819C1187.51 43.6366 1201.21 42.0642 1215.94 42.3054C1229.38 42.5255 1243.73 44.2547 1258.59 47.4432C1283.81 52.8509 1307.92 62.6758 1328.32 75.8551C1351.16 90.5811 1370.41 109.423 1385.52 131.854C1392.46 142.146 1398.47 153.15 1403.38 164.559C1408.08 175.486 1411.79 186.814 1414.41 198.228L1413.62 198.331C1402.22 148.594 1370.94 104.121 1327.8 76.3134C1307.49 63.1914 1283.48 53.4072 1258.37 48.0206C1227.42 41.3782 1198.75 41.2154 1175.49 47.5472C1166.71 49.9141 1158.72 53.0378 1151.07 57.0977C1123.61 71.6625 1109.35 96.9943 1102.21 115.679C1097.21 128.7 1094.32 142.059 1091.53 154.979C1091.22 156.411 1090.92 157.837 1090.61 159.254C1089.11 166.097 1088.21 174.58 1087.26 183.56C1084.58 208.775 1081.25 240.159 1062.47 260.775C1057.8 265.944 1052.22 270.271 1045.88 273.631C1039.05 277.247 1031.12 279.87 1022.29 281.429C1015.91 282.55 1009.31 283.114 1002.39 283.114Z" fill="#A1A1A1"/>
<path d="M1013.18 286.049C1003.67 286.049 993.591 284.885 982.732 282.549C967.37 279.243 952.62 274.079 939.61 269.525C923.168 263.769 906.313 257.068 889.514 249.611C876.006 243.596 862.769 237.157 850.168 230.477C819.138 214.032 792.617 193.886 764.539 172.557C759.95 169.07 755.203 165.466 750.494 161.921C733.94 149.469 719.804 139.201 704.631 129.569C674.053 110.186 640.168 99.6823 603.915 98.3496C558.361 96.6747 509.566 108.916 458.888 134.734C433.713 147.56 408.924 163.284 389.089 179.011C374.146 190.859 362.465 203.757 350.098 217.411C348.567 219.102 347.029 220.8 345.481 222.499C342.724 225.531 339.074 229.526 335.307 233.531C319.455 250.428 298.743 267.824 265.335 268.714C264.293 268.739 263.247 268.751 262.203 268.751C236.116 268.751 209.482 260.937 182.235 252.213L180.534 251.664C167.037 247.304 154.288 243.187 142.487 240.19C98.015 228.895 55.0048 219.361 22.5026 212.318L22.7356 211.701C55.2458 218.748 98.268 228.283 142.756 239.583C154.589 242.587 167.352 246.71 180.866 251.075L182.565 251.624C210.811 260.668 238.394 268.735 265.305 268.074C298.343 267.194 318.881 249.932 334.616 233.162C338.381 229.159 342.027 225.167 344.784 222.137C346.331 220.436 347.867 218.74 349.399 217.049C361.786 203.374 373.485 190.455 388.475 178.569C408.35 162.809 433.189 147.053 458.414 134.201C481.826 122.273 505.247 113.115 528.024 106.978C554.158 99.9356 579.706 96.8179 603.955 97.7089C640.395 99.0476 674.451 109.602 705.173 129.076C720.368 138.723 734.517 149.001 751.087 161.464C755.798 165.009 760.545 168.615 765.137 172.102C793.187 193.41 819.681 213.536 850.652 229.948C863.235 236.62 876.453 243.049 889.941 249.055C906.716 256.502 923.545 263.193 939.963 268.94C965.736 277.963 997.812 289.191 1029.74 284.136C1047.19 281.373 1060.26 274.658 1069.7 263.609C1088.12 242.191 1089.23 209.137 1090.12 182.578C1090.41 173.913 1090.69 165.726 1091.56 159.131L1091.58 158.98C1093.55 144.21 1095.59 128.938 1100.26 113.87C1104.31 100.727 1109.94 88.9107 1117.01 78.7466C1124.98 67.2875 1134.8 57.9043 1146.21 50.8564C1153.85 46.1407 1161.92 42.3943 1170.9 39.4048C1195.16 31.2805 1224.88 30.0262 1256.86 35.7806C1269.73 38.0962 1282.43 41.6044 1294.6 46.2055C1306.84 50.8338 1318.3 56.4766 1328.66 62.9743C1352.05 77.6295 1371.45 96.6491 1386.3 119.505C1399.65 140.049 1408.97 163.485 1413.26 187.276L1412.42 187.362C1403.25 136.442 1372.53 91.2836 1328.12 63.4673C1307.35 50.4388 1282.64 41.0797 1256.67 36.4077C1224.87 30.6865 1195.33 31.9272 1171.25 39.9958C1162.34 42.9627 1154.33 46.6789 1146.75 51.3569C1125.45 64.5165 1109.66 86.185 1101.09 114.019C1096.43 129.048 1094.4 144.299 1092.43 159.048L1092.41 159.199C1091.53 165.77 1091.26 173.944 1090.97 182.598C1090.07 209.238 1088.96 242.391 1070.41 263.96C1065.86 269.288 1060.31 273.708 1053.93 277.097C1047.06 280.752 1038.97 283.331 1029.91 284.768C1024.51 285.621 1018.95 286.049 1013.18 286.049Z" fill="#A1A1A1"/>
<path d="M265.955 289.741C254.289 289.741 241.586 288.021 227.249 284.509C213.004 281.019 198.916 276.2 185.813 271.515C183.44 270.661 181.086 269.81 178.747 268.964C167.105 264.753 156.109 260.776 145.832 257.678C104.854 245.33 65.794 234.231 28.0188 223.5L21.7598 221.721L22.0746 221.086L28.3336 222.865C66.1107 233.599 105.177 244.698 146.163 257.05C156.468 260.155 167.478 264.137 179.133 268.353C181.47 269.199 183.825 270.051 186.195 270.903C213.094 280.521 241.672 289.842 269.389 289.012C303.461 287.938 323.879 267.851 337.86 250.473C341.441 246.029 344.891 241.6 347.497 238.238C348.935 236.385 350.364 234.534 351.788 232.687C363.601 217.378 374.758 202.917 389.432 189.282C408.8 171.288 433.615 152.995 459.309 137.776C483.145 123.656 507.199 112.5 530.805 104.618C557.881 95.5773 584.327 90.8857 609.409 90.6731C647.15 90.248 682.204 100.074 713.583 119.876C730.978 130.867 746.573 142.755 759.538 152.936C766.591 158.476 773.645 164.156 780.468 169.648C804.618 189.091 829.59 209.194 857.596 225.478C870.106 232.753 883.238 239.803 896.622 246.429C913.186 254.61 930.007 262.121 946.621 268.751C972.589 279.114 1004.91 292.012 1037.37 287.435C1055.24 284.916 1068.4 278.162 1077.59 266.787C1095.77 244.398 1094.54 209.534 1093.55 181.52C1093.26 173.236 1092.98 165.41 1093.32 159.11C1094.06 144.907 1095.19 128.4 1099.09 112.233C1102.37 98.5336 1107.33 86.1398 1113.83 75.3968C1121.18 63.2442 1130.6 53.056 1141.82 45.1141C1149.26 39.8511 1157.59 35.3841 1166.59 31.8353C1179.43 26.7548 1193.84 23.5602 1209.42 22.3421C1224.01 21.2008 1239.39 21.8009 1255.14 24.124C1268.42 26.0839 1281.51 29.3071 1294.05 33.7062C1306.66 38.1325 1318.42 43.6472 1329 50.0966C1341.19 57.5229 1352.41 66.2925 1362.33 76.1627C1371.72 85.5142 1380.05 95.9436 1387.08 107.16C1400.24 128.144 1408.89 152.063 1412.11 176.328L1411.22 176.396C1404.3 124.289 1374.13 78.4481 1328.44 50.6258C1307.51 37.8686 1281.42 28.6935 1254.97 24.7904C1222.26 19.9646 1191.85 22.6089 1167.01 32.4368C1158.08 35.957 1149.81 40.3893 1142.43 45.6101C1121.29 60.5743 1107 83.0297 1099.97 112.355C1096.08 128.479 1094.96 144.957 1094.21 159.137C1093.88 165.414 1094.16 173.228 1094.45 181.502C1094.93 195.322 1095.49 210.987 1093.64 226.131C1091.49 243.703 1086.49 257.117 1078.35 267.141C1073.92 272.626 1068.42 277.141 1062 280.56C1055.07 284.254 1046.84 286.791 1037.54 288.101C1032.85 288.763 1028.16 289.063 1023.5 289.063C995.599 289.063 968.561 278.272 946.204 269.35C929.567 262.709 912.72 255.188 896.134 246.994C882.73 240.359 869.58 233.299 857.052 226.013C828.988 209.696 803.99 189.572 779.817 170.11C772.996 164.62 765.944 158.942 758.894 153.405C745.948 143.236 730.374 131.364 713.011 120.395C681.802 100.699 646.953 90.9294 609.423 91.3485C550.484 91.849 495.56 117.16 459.862 138.307C434.221 153.495 409.456 171.749 390.129 189.707C375.499 203.301 364.358 217.739 352.563 233.025C351.139 234.872 349.708 236.723 348.27 238.577C345.662 241.941 342.21 246.373 338.626 250.822C332.758 258.117 323.545 268.736 311.341 276.696C305.415 280.562 299.108 283.599 292.596 285.727C285.335 288.098 277.538 289.431 269.427 289.686C268.277 289.723 267.12 289.741 265.955 289.741Z" fill="#A1A1A1"/>
<path d="M269.7 310.73C258.02 310.73 245.343 308.877 231.082 305.096C216.317 301.182 201.719 295.679 189.388 290.811C185.599 289.313 181.819 287.793 178.161 286.323C167.938 282.215 158.281 278.333 149.175 275.164C116.475 263.782 83.9892 252.67 52.5706 241.922C42.1781 238.367 31.433 234.692 21.0186 231.122L21.409 230.469C31.8235 234.039 42.5686 237.715 52.9611 241.269C84.3796 252.017 116.87 263.131 149.571 274.515C158.701 277.693 168.37 281.578 178.605 285.692C182.261 287.162 186.042 288.68 189.827 290.178C215.4 300.27 245.064 310.953 273.469 309.947C308.343 308.684 327.931 286.75 341.102 267.783C344.479 262.924 347.744 258.046 350.21 254.339C351.477 252.436 352.736 250.535 353.993 248.638C365.292 231.58 375.963 215.469 390.39 199.996C409.153 179.873 433.948 159.046 460.203 141.352C496.767 116.816 553.279 86.8873 614.861 83.6415C654.025 81.5219 690.071 90.6186 721.994 110.681C736.336 119.7 750.52 130.102 767.986 144.414C776.813 151.645 785.572 159.141 794.042 166.388C816.08 185.243 838.865 204.741 864.54 221.015C876.979 228.901 890.021 236.57 903.304 243.81C919.387 252.567 936.202 260.898 953.278 268.572C979.507 280.287 1012.15 294.87 1045.01 290.742C1063.03 288.526 1076.64 281.538 1085.48 269.975C1103.4 246.573 1099.56 208.287 1096.75 180.332C1095.96 172.486 1095.21 165.076 1095.07 159.099C1094.74 145.814 1094.77 128.297 1097.91 110.606C1103.33 79.9494 1116.63 55.985 1137.43 39.382C1144.72 33.5326 1153.09 28.4506 1162.28 24.2761C1175.37 18.3302 1190.13 14.3306 1206.16 12.3903C1221.27 10.5631 1237.17 10.5918 1253.42 12.4762C1267.13 14.1014 1280.61 17.0472 1293.49 21.2292C1306.5 25.4535 1318.56 30.8355 1329.34 37.2262C1341.81 44.6103 1353.2 53.41 1363.2 63.3827C1372.67 72.8337 1380.97 83.4108 1387.86 94.8232C1400.81 116.249 1408.8 140.651 1410.96 165.39L1410.02 165.437C1405.36 112.141 1375.74 65.6154 1328.76 37.7915C1307.46 25.1685 1280.65 16.4291 1253.27 13.1848C1219.52 9.27264 1188.23 13.3205 1162.77 24.8912C1153.65 29.031 1145.36 34.0723 1138.12 39.875C1117.46 56.3679 1104.25 80.1967 1098.85 110.703C1095.72 128.346 1095.69 145.828 1096.02 159.087C1096.16 165.043 1096.91 172.444 1097.69 180.279C1099.15 194.729 1100.79 211.109 1099.85 227.1C1098.75 245.72 1094.32 259.862 1086.3 270.336C1081.98 275.984 1076.52 280.598 1070.07 284.047C1063.08 287.787 1054.7 290.278 1045.17 291.451C1030.39 293.307 1014.48 291.639 996.531 286.352C980.932 281.755 965.985 275.08 952.8 269.191C935.698 261.507 918.861 253.164 902.754 244.395C889.451 237.145 876.391 229.465 863.935 221.568C838.206 205.261 815.395 185.742 793.335 166.867C784.868 159.622 776.111 152.131 767.293 144.905C749.856 130.619 735.699 120.236 721.39 111.239C689.657 91.291 653.84 82.2485 614.925 84.3546C553.608 87.5883 497.283 117.425 460.828 141.887C434.625 159.545 409.882 180.329 391.159 200.41C376.772 215.838 366.117 231.927 354.836 248.96C353.579 250.858 352.32 252.759 351.053 254.661C348.585 258.371 345.318 263.254 341.937 268.118C328.65 287.254 308.865 309.383 273.51 310.663C272.253 310.707 270.98 310.73 269.7 310.73Z" fill="#A1A1A1"/>
<path d="M273.52 331.72C241.608 331.72 208.123 316.887 178.44 303.736C169.318 299.696 160.703 295.879 152.515 292.651L20.2774 240.523L20.7376 239.856L152.976 291.983C161.185 295.218 169.81 299.04 178.944 303.086C209.775 316.745 244.721 332.226 277.548 330.885C313.192 329.43 331.969 305.649 344.345 285.096C348.393 278.374 352.302 271.534 356.082 264.919C366.423 246.828 377.114 228.121 391.344 210.709C402.643 196.885 416.678 182.387 431.934 168.784C448.669 153.86 466.587 140.168 485.187 128.09C505.695 114.773 526.548 103.757 547.163 95.3496C569.966 86.0508 592.431 79.9798 613.937 77.3039C657.019 71.9444 696.202 80.0778 730.396 101.481C758.812 119.266 782.964 141.258 806.321 162.527C826.651 181.04 847.673 200.182 871.478 216.545C898.974 235.444 928.734 252.886 959.931 268.382C986.216 281.439 1018.93 297.691 1052.64 294.038C1081.12 290.953 1097.58 276.535 1102.97 249.956C1107.56 227.349 1103.2 200.53 1099.69 178.983C1098.5 171.639 1097.37 164.703 1096.82 159.078C1093.76 128.07 1095.71 102.473 1102.77 80.8256C1107.18 67.3192 1113.68 55.2796 1122.1 45.0417C1131.5 33.6052 1143.57 24.0712 1157.97 16.7052C1170.43 10.3327 1184.47 5.70441 1199.71 2.94856C1214.21 0.325372 1229.48 -0.553544 1245.1 0.335927C1275.8 2.08472 1305.84 10.6116 1329.67 24.3441C1342.42 31.6845 1353.98 40.5159 1364.06 50.5911C1373.6 60.1401 1381.87 70.8665 1388.64 82.4748C1401.38 104.342 1408.7 129.228 1409.8 154.439L1408.8 154.465C1406.46 100.777 1376.65 52.3579 1329.07 24.9456C1278.54 -4.16571 1206.82 -7.36931 1158.52 17.3309C1110.68 41.7989 1090.82 88.1464 1097.81 159.022C1098.36 164.629 1099.49 171.556 1100.68 178.891C1104.19 200.485 1108.56 227.361 1103.96 250.071C1101.45 262.441 1096.4 272.382 1088.97 279.619C1084.78 283.688 1079.74 287.014 1073.98 289.502C1067.84 292.149 1060.71 293.926 1052.78 294.786C1049.54 295.137 1046.25 295.313 1042.89 295.313C1030.68 295.313 1017.66 292.975 1003.4 288.238C987.34 282.901 971.838 275.201 959.381 269.014C928.142 253.495 898.341 236.031 870.805 217.105C846.946 200.707 825.902 181.542 805.55 163.01C782.223 141.768 758.101 119.802 729.756 102.063C695.792 80.806 656.877 72.7253 614.092 78.0486C527.546 88.8157 438.394 154.57 392.184 211.107C377.993 228.47 367.316 247.152 356.989 265.219C353.206 271.837 349.296 278.682 345.244 285.41C337.027 299.055 328.911 308.826 319.704 316.156C313.957 320.73 307.722 324.336 301.172 326.873C293.889 329.694 285.956 331.298 277.594 331.64C276.243 331.693 274.883 331.72 273.52 331.72Z" fill="#A1A1A1"/>
</g>
</svg>
