<svg width="38" height="38" viewBox="0 0 38 38" fill="none" xmlns="http://www.w3.org/2000/svg">
<path d="M19.2764 34.285V12.1759M16.7035 10.8495C16.9772 10.911 17.2656 10.8357 17.4627 10.6386C17.6598 10.4415 17.7349 10.153 17.6736 9.87941C17.428 8.87593 16.523 5.51571 15.5938 4.5865C14.4362 3.42883 12.552 3.42401 11.4 4.57595C10.2482 5.72782 10.2528 7.61198 11.4106 8.76973C12.355 9.71415 15.7 10.6039 16.7035 10.8495ZM19.5133 9.87933C19.4518 10.153 19.5271 10.4415 19.7242 10.6385C19.9212 10.8356 20.2098 10.9108 20.4834 10.8495C21.4869 10.6038 24.8471 9.69886 25.7763 8.76966C26.934 7.61199 26.9388 5.72782 25.7868 4.57588C24.635 3.42401 22.7508 3.42867 21.593 4.58642C20.6486 5.53083 19.7589 8.87587 19.5133 9.87933ZM4.9055 19.9141H33.0946C33.7051 19.9141 34.2 19.4191 34.2 18.8086V13.2813C34.2 12.6708 33.7051 12.1759 33.0946 12.1759H4.9055C4.29498 12.1759 3.80005 12.6708 3.80005 13.2813V18.8086C3.80005 19.4191 4.29498 19.9141 4.9055 19.9141ZM31.4364 19.9141V33.1795C31.4364 33.79 30.9415 34.285 30.331 34.285H7.66914C7.05861 34.285 6.56369 33.79 6.56369 33.1795V19.9141H31.4364Z" stroke="black" stroke-width="2" stroke-linecap="round" stroke-linejoin="round"/>
</svg>
