<svg width="56" height="41" viewBox="0 0 56 41" fill="none" xmlns="http://www.w3.org/2000/svg">
<path fill-rule="evenodd" clip-rule="evenodd" d="M55.7117 1.3538C55.8944 1.20816 56 0.993143 56 0.766507C56 0.343177 55.6388 0 55.1932 0H1.25248C0.560756 0 0 0.532742 0 1.18991C0 1.54366 0.165668 1.87906 0.452058 2.10513L26.7481 22.8625C27.3211 23.3149 28.1527 23.313 28.7235 22.8582L55.7117 1.3538ZM2.52627 8.18461C1.52199 7.39185 0 8.07038 0 9.31086V39.5357C0 40.3444 0.690056 41 1.54128 41H54.4587C55.3099 41 56 40.3444 56 39.5357V8.72256C56 7.47892 54.4712 6.80146 53.4683 7.60064L28.8986 27.178L28.7343 27.3089C28.1635 27.7637 27.3319 27.7655 26.7589 27.3132L26.594 27.183L2.52627 8.18461Z" fill="#09C3FF"/>
</svg>
